<?xml version="1.0" encoding="utf-8"?>
<!-- Generator: Adobe Illustrator 27.2.0, SVG Export Plug-In . SVG Version: 6.00 Build 0)  -->
<svg version="1.1" id="Layer_1" xmlns="http://www.w3.org/2000/svg" xmlns:xlink="http://www.w3.org/1999/xlink" x="0px" y="0px"
	 viewBox="0 0 291.7 696.2" style="enable-background:new 0 0 291.7 696.2;" xml:space="preserve" fill="white">
<polygon points="280.5,63.9 145.9,9.8 145.9,9.8 145.9,9.8 11.3,63.9 16.3,79.7 146.1,29.7 275.3,79.7 "/>
<g>
	<g>
		<path d="M64.8,606.1l0.3,0.9c0.2,0.6-0.8,1-3.1,1.1c-2.4,0.1-4.5-0.1-6.4-0.5c-0.3-0.1-1,0-2.2,0.3l-1.4,2.2l-0.1,0.4
			c-0.4,1.4-1.2,2-2.4,2c-1,0-1.7-0.6-2.2-2c-0.3-0.8-0.4-1.6-0.3-2.6c0.1-2.8,0.1-5.2,0-7.1c-0.1-2.8-0.1-4.4-0.1-4.9
			c0-1.1,1.8-3.6,3.1-3.6c1.2,0,1.9,1,2,3.1c0,0.1,1.1,1.2,1.1,2.5c0,0.3,0.2,0.4,0.6,0.4c0.4-0.1,1.2-0.1,2-0.1
			c3.9,0.2,8.5,0.2,13.7,0c0.8-0.1,2,0.2,3.5,0.6c0.1,0.1,1.5,0,4.3-0.2c1.6-0.1,2.9,0,3.9,0.1c2.2,0.4,2.6-0.3,4.7-0.6
			c0.5,0.1,1.4,0.1,2.3,0c0.3-0.1,0.6-0.5,1.1-1.4c-0.1-1.3,0.3-2.6,0.9-3.8c0.1-0.3,0.1-0.5,0-0.7c-0.6-1-0.9-1.7-0.9-2.1v-4
			c0-1,0.6-1.5,0.6-2c0-0.4-0.1-0.9-0.3-1.5c-0.3-0.7-2.3-2.3-6.2-4.8c-1.9-1.1-4-2.2-4.9-4.4c0.5-0.7,0.8-1.1,0.8-1.2
			c0.4-0.4,0.8-0.5,1.3-0.5c1.7-0.1,4.9,0.4,9.4,1.4c0.4-0.1,1.2-0.1,2.2-0.1c0.5,0.1,1,0.5,1.8,1.3h0.4c1.3,0.2,2,0.9,2,2.2
			c0,0.6-0.5,1.6-0.5,2c-0.2,0.8-0.4,2.1-0.5,3.8c0.2,0.5,0.3,1.5,0.3,3.1c-0.1,5.1-0.1,12.4,0,21.9l0.6,1.9c0.1,2.2-1.1,4.8-3,4.8
			c-0.6,0-1.3-0.3-1.9-0.8c-1.3-1-2-1.8-2.2-2.6l-0.2-1c-0.4-0.5-0.7-0.9-1.2-1c-1.2-0.5-2.9-0.7-4.9-0.8c-1,0.3-1.7,0.5-2,0.5
			c-1.2,0.1-2.8,0-5-0.3c-0.6-0.1-2.4,0.5-3.1,0.5h-4.1c-0.8,0-1.5-0.3-2.2-0.8L64.8,606.1z"/>
		<path d="M93.8,525.2l-0.1,1.5c0,0.1,0.1,0.3,0.2,0.5l0.2,0.3c0.6,0.9,1,1.6,1,2.1v9.6c0,0.7,1.4,3.4,1.4,4.9
			c0,1.5-1.4,4.3-1.4,5.4c0,1.5,0.5,2.6,1.4,3.1v5.5c0,1.7-0.3,3.2-0.8,4.6c-0.7,1.9-1.8,2.8-3.1,2.8c-1.9,0-3.1-1.6-3.8-4.9
			c-1.3-0.8-2.2-1.3-2.7-1.3H75c-1.2,0-2.7,0.1-4.8,0.3c-2.1,0.2-3.7,0.3-4.9,0.3c-0.2,0-1.1,0.2-2.7,0.5c-1.7,0.3-3,0.4-4,0.4
			c-2.3,0-4,0.9-5.2,2.7c-0.7,0.3-1.4,0.8-1.8,1.7c-0.5,0.9-1.3,1.4-2.2,1.4c-1.7,0-2.5-1.1-2.5-3.2c0-2.6,0-3.7,0.1-3.1
			c0.8-1.1,1.3-1.9,1.3-2.3c0-0.6-0.2-1.7-0.4-3.2c-0.3-1.3-0.4-2.5-0.3-3.3c-0.5-0.8-0.7-1.4-0.7-1.7v-13c0-4.9,0.8-7.6,2.3-8.2
			c0.3-0.1,0.9-0.2,1.9-0.3c0.5,0,1.2-0.5,2-1.3h1.8c1-1,1.9-1.5,2.8-1.5c1.6,0,2.4,0.8,2.4,2.4c0,0.9-0.5,1.7-1.5,2.5
			c-0.5,2.2-2.3,3.6-3.9,5.1c-2,2.2-3,6.4-3,12.4c0,0.8,0.4,1.6,1.1,2.4l0.6,0.6h6c0.3,0,1.4,0.1,3.7,0.2c1.5,0.1,2.8,0.1,3.6-0.1
			c1.4-0.3,2-1.6,2-4c0-2.2-1.1-4.1-1.9-6c-4.2-2.1-6.4-3.4-6.4-4.2c0-1.4,1.6-3.2,3.1-3.2c0.8,0,2.9,0.6,3.7,0.6
			c0.5,0,2-0.7,2.8-0.7h4.8c0.1,0,1.6,0.3,4.6,0.8l0.1,1.6c0.1,1.7-1.7,3.2-5.2,4.5l-0.7,0.2c0,1-0.5,3.9-0.5,5c0,2.9,0,4.4,0.1,4.6
			c0.3,0.7,1.2,1.1,2.7,1.1c8.8,0,13.5-0.5,14.1-1.4l0.2-3.1v-8.7c0-0.8-1.5-3.2-1.6-4.4c-5.3-4.4-8-7.3-8-8.7
			c0-1.3,1.7-2.1,2.9-2.1c1,0,2.3,0.3,4.1,0.7c1.8,0.4,3.1,0.6,4.1,0.6L93.8,525.2z"/>
		<path d="M95.5,470.9c-0.6,2.6-0.9,4-0.9,4.2c0,0.3,0.3,0.6,0.7,1.1c0.3,5,0.3,8.8-0.2,11.7c-0.8,0.4-1.5,0.5-2,0.5
			c-1.4,0-2.5-0.9-3.3-2.7c0.3-0.6,0.4-1.2,0.4-1.6c0-0.2-0.1-0.4-0.3-0.6c-1.1,0.3-2.2,0.3-3.1,1.3c-0.3-0.1-1.4,0.2-3.5,0.8
			c-2.1,0.5-3.5,1-4.4,1.4c-0.2,2.8-0.3,7-0.3,12.8c0,1.3,1.5,1.9,4.6,1.9c1,0,1.9,0.5,2.9,1.7c1,0,1.9,0.2,2.8,0.5
			c0.4-0.5,1-1.1,1.5-1.9l-1.2-1.1l2.7-4.3c2.8-0.1,4.1,2,4.1,6.4c0,1.1-0.1,2.4-0.3,4.1l1.4,2.3c-1.8,0.5-1.4,0.4-1.5,4.9
			c-1.5,0.8-2.8,1.2-3.7,1.2c-1.5,0-2.3-1.4-2.6-4.4c-0.6-0.5-1.4-0.8-2.5-0.9l-1.4-1.1c-0.9-0.1-2-0.5-3.2-1.3
			c-1.4-0.8-2.7-1.3-4.2-1.3c-1.2,0-2.4-0.5-4-1.4h-1.3c-1.4-1.3-3.3-2.2-5.8-2.8l-0.9-1.1c-2.1-0.5-4.7-1.4-8-2.4
			c-4.1-1.3-6.6-2.3-7.4-3c-0.1-1.8-1.3-2.9-3.7-3.1l-0.4-3.4c0.9-0.1,2.3-0.5,4.3-1.2c2-0.7,3.1-1.3,3.6-1.5c1.6,0.1,3.3-0.1,5-0.4
			c1.6-1.4,4.3-2.7,8-4c3.7-1.4,6.7-2.2,8.7-2.2l1.1-1c0.5-0.1,2.1-0.6,4.9-1.8s4.3-2,4.6-2.2c1.5-0.1,2.4-0.5,2.7-1.2
			c0.2-0.5,0.3-1.6,0.2-3.3l2.9-2.3L95.5,470.9z M73.2,493c-0.3-0.6-0.4-1.3-0.4-1.7c0-1,0.9-2.1,0.9-2.3l0.1-0.1
			c-0.9,0.4-2.3,0.7-4.3,1.1c-0.6,0.8-1.6,1.3-3,1.3c-0.4,0-2.2,1.7-2.5,2c-0.5,0.3-2.7-0.4-3.1-0.2c-0.2,0.2-0.5,0.5-1,0.7l1,0.9
			c0.5,0.5,1.3,0.7,2.2,0.8c1.8,0,3.1,1.4,3.2,1.4c0.4-0.1,0.8-0.1,1.1-0.1c0.8,0,1.4,0.3,1.8,0.9l0.1,0.3l0.2,0.2h0.1
			c1-0.1,1.8,0.3,2.5,1.1l0.2,0.3h0.3c0.1-0.1,0.2-0.1,0.3-0.1c0.3,0,0.8,0.2,1.4,0.6c-0.1,0-0.2-0.3-0.2-0.9v-1.1
			c-0.1-0.5-0.1-0.7-0.1-0.8c0-0.5,0.4-1,1-1.5C74.2,494.1,73.7,493.2,73.2,493z"/>
		<path d="M94.6,429.1l-11.3,9.5c-6.2,5.2-9.3,8.3-9.3,9.2c0,0.1,0.1,0.5,0.2,1c0.5,0.5,0.9,0.9,1.2,1.4c0.9,0,2.2,0.2,3.9,0.5
			c1.7,0.3,3,0.4,3.8,0.4c0.6,0,1.2-0.2,1.7-0.5c3.1,0.1,4.8-0.1,5-0.5c0.1-0.1,0.4-0.6,0.6-1.5c0.4-1.3,1-2.7,1.8-4.3l2.2,0.4
			c1,1,1.5,2.2,1.5,3.3c0,1.4-0.8,3.5-0.8,4.9c0,1,0.5,3.2,0.5,4.2c0,0.7,0,1.8-0.1,3.2c-0.1,1.7-0.1,3.1-0.1,4l-1.8,0.5
			c-0.9,0-1.7-0.6-2.5-1.9c-0.6-1-1-2.1-1.3-3.2c-0.6-0.5-1.6-0.5-3.1,0.2c-1-0.3-3-0.5-5.8-0.5c-2.8,0.1-4.7,0.3-5.5,0.5l-0.8-0.6
			c-1.5,0.3-3.3,0.4-5.6,0.3c-3.8-0.2-5.7-0.3-5.7-0.3c-3.1,0-5.1,0.1-6.1,0.2c-3,0.5-4.5,1.4-4.5,3c0,1.3-0.4,2.4-1.4,3.3
			c-2.6-0.1-3.9-1.3-3.9-3.5c0-0.8,0.2-1.8,0.5-3l-0.2-0.4c-0.1-1.2,0-2.8,0.4-5c-0.2-0.6-0.3-1.3-0.3-1.7c0-0.1,0.4-1.1,1-2.8
			c1.3-0.1,2.2,0,2.7,0.2l2.1,1.1c0.1,0.1,0.2,0.2,0.3,0.2c0.3,0,1.3,0.1,3.1,0.2c1.8,0.1,3.3,0.2,4.6,0.2c5.5,0,8.3-1.1,8.3-3.1
			c0-0.7,0.7-2.4,0.7-3.1c0-0.1-0.1-0.6-0.3-1.8l-3.2-3.1c-1.9-1.8-4.4-2.7-7.4-2.7c-3.6,0-5,2.9-6.7,5.3c0.2,0.8,0.3,1.6,0.3,2.4
			c0,1.2-1.4,1.2-1.8,2.2c-0.4,0.5-0.9,0.7-1.2,0.7c0.1,0-0.5-0.5-1.8-1.4c-0.6-1.2-1-2.5-1-3.9c0-3.1,0.9-5.9,2.7-8.6
			c2.1-3.1,4.6-4.8,7.7-4.8c2.1,0,4,0.2,5.6,0.6l0.6-0.6c2.9,1.2,4.9,2.4,6,3.8c0.5,0.7,1.4,1.7,2.7,3c0.7,0,1.4-0.2,2.2-0.5
			c0.8-0.9,2.2-2.1,4-3.5c3.8-3,6-4.8,6.7-5.4c2.7-2.6,4-4.9,4-6.9c0-2.1,1-3.1,2.9-3.1c1.5,0.5,2.6,4.4,2.3,9.6
			C95.1,426.9,94.9,427.9,94.6,429.1z"/>
		<path d="M78.4,370.8c-0.4-0.1-0.8-0.4-1.4-0.7h-3.7c-1.5-0.9-2.5-1.4-3.1-1.4c-1.2,0-4.3,1-5.5,1c-1,0-2.5-0.2-4.7-0.5
			c-2.2-0.4-3.8-0.5-4.9-0.6l-1.3,1.4c0,1.3-0.3,2.5-0.9,3.9c-0.8,1.7-1.8,2.5-3.1,2.5l-2.2-1.3c-0.1-1-0.3-2.9-0.7-5.6
			c-0.3-2.2-0.5-3.9-0.5-5.2v-4.2l3.4-3.7c2.9-0.3,3.3,2.8,4,5c0.1,0.4,0.7,0.8,1.8,1.3l2.2,1.1l19.5-0.1c1.5,0,4.3,1.3,5.5,1.3
			h10.8c0.9,0.5,1.4,1.3,1.5,2.2c0.1,0.5,0.1,1.3,0,2.8c-2.8,2.7-6.7,5.7-11.5,8.9l-12.1,8c-0.6,0.5-1.5,1.4-2.9,3.2
			c-2.2,2.8-5,3.1-6.8,4.9l-0.3,1.5c0.5-0.3,0.8-0.4,1.3-0.4c1,0,3.1,0.9,4.1,0.9c0.7,0,2.8-0.9,3.9-0.9c1.3,0,3.6,0.3,6.6,0.7
			c3,0.5,5.1,0.6,6.7,0.6c2.1,0,3.3-0.1,3.8-0.3c0.6-0.3,1-2,1.1-5l1.1-1.3c0.1-1.5,0.8-2.4,2.2-2.8l4,2.2l0.1,17.9l-1.3,1.9
			l-4.2-0.5c-0.8-4.2-2.2-6.6-3.9-7.2c-0.8-0.3-2-0.4-3.5-0.4c-0.5,0-1.3,0-2.4,0.1h-2.9c-1.5,0-4,0.4-7.2,1.1
			c-0.9-0.8-2.2-1.3-3.9-1.2c-1.2,0-3.9,0.2-4.6,0.2c-0.5,0-1.3-0.2-2.6-0.6c-0.7,0.4-2.1,0.7-4,0.8c-0.8,0.6-1.6,1.4-2.4,2.4
			c-0.1,0.8-0.4,1.6-1,2.4c-0.6,1-1.4,1.5-2.1,1.5c-2.2,0-3.3-2.7-3.3-8.2c0-3.5,0.6-6.1,2-7.6c1.1-1.3,4.1-3.7,9.3-7.4
			c5.3-3.8,9-6,10.9-6.7c3.1-4,5-6,6-6.1c0.9-0.1,1.4-0.1,1.4-0.1c0.3-0.1,0.5-0.5,0.7-1.3L78.4,370.8z"/>
		<path d="M95.5,338.7c0,0.5,0.3,1.2,0.9,1.9c-0.6,2.1-1,5.7-1,10.6c0,1.9-0.7,2.8-2.1,2.8c-1.5,0-2.5-0.7-2.8-2.2l-0.4-3.2
			c-0.2-0.3-0.5-0.5-1.2-0.5c-1.8-0.1-3.6-0.1-5.4-0.1c-4-0.1-7.7-0.1-11.2-0.1c-3.7,0-6.8,0.1-9.4,0.2c-5.1,0.3-8.2,0.7-9.2,1.4
			l-3.2,3.7c-2.5,0.2-3.8-0.7-3.8-2.6c0-0.7,0.3-1.7,0.7-2.9l-0.6-1.2c0.7-1.2,1.1-2.5,1.1-4c0,0-0.5-1.5-1.3-4.6
			c-0.2-0.7-0.3-1.5-0.3-2.5l1.3-1.2c1,0,2.3,0.1,3.9,0.4c0.3,1,0.9,2.2,1.8,4c0.3-0.1,0.5-0.1,0.7-0.1c1.1,0,3.1,1,4,1
			c0.6,0,2.1-0.4,2.7-0.4c0.9,0,2.2,0.2,4,0.5c1.7,0.3,3.1,0.4,4,0.4c1.3,0,3.3-0.1,6-0.2c2.6-0.1,4.6-0.2,5.9-0.2
			c1.2,0,2.8-0.2,4.7-0.5c3-0.5,4.5-0.7,4.6-0.7v-1c0-1.4,1.2-3.7,2.9-3.7s2.7,0.8,2.8,2.5C95.7,336.9,95.5,338.3,95.5,338.7z"/>
		<path d="M78.4,288c-0.4-0.1-0.8-0.4-1.4-0.7h-3.7c-1.5-0.9-2.5-1.4-3.1-1.4c-1.2,0-4.3,1-5.5,1c-1,0-2.5-0.2-4.7-0.4
			c-2.2-0.4-3.8-0.5-4.9-0.6l-1.3,1.3c0,1.3-0.3,2.5-0.9,3.9c-0.8,1.7-1.8,2.5-3.1,2.5l-2.2-1.3c-0.1-1-0.3-2.9-0.7-5.6
			c-0.3-2.2-0.5-3.9-0.5-5.2v-4.2l3.4-3.7c2.9-0.3,3.3,2.8,4,5c0.1,0.4,0.7,0.8,1.8,1.3l2.2,1.1l19.5-0.1c1.5,0,4.3,1.3,5.5,1.3
			h10.8c0.9,0.5,1.4,1.3,1.5,2.2c0.1,0.4,0.1,1.4,0,2.8c-2.8,2.7-6.7,5.7-11.5,8.9l-12.1,8c-0.6,0.5-1.5,1.4-2.9,3.1
			c-2.2,2.8-5,3.1-6.8,4.9l-0.3,1.5c0.5-0.3,0.8-0.4,1.3-0.4c1,0,3.1,0.9,4.1,0.9c0.7,0,2.8-0.9,3.9-0.9c1.3,0,3.6,0.3,6.6,0.7
			c3,0.4,5.1,0.6,6.7,0.6c2.1,0,3.3-0.1,3.8-0.3c0.6-0.3,1-2,1.1-4.9l1.1-1.4c0.1-1.5,0.8-2.4,2.2-2.8l4,2.2l0.1,17.9l-1.3,1.9
			l-4.2-0.5c-0.8-4.2-2.2-6.6-3.9-7.2c-0.8-0.3-2-0.4-3.5-0.4c-0.5,0-1.3,0-2.4,0.1h-2.9c-1.5,0-4,0.4-7.2,1.1
			c-0.9-0.8-2.2-1.3-3.9-1.2c-1.2,0-3.9,0.2-4.6,0.2c-0.5,0-1.3-0.2-2.6-0.6c-0.7,0.5-2.1,0.7-4,0.8c-0.8,0.6-1.6,1.4-2.4,2.4
			c-0.1,0.8-0.4,1.6-1,2.4c-0.6,1-1.4,1.5-2.1,1.5c-2.2,0-3.3-2.7-3.3-8.2c0-3.5,0.6-6.1,2-7.6c1.1-1.3,4.1-3.7,9.3-7.4
			c5.3-3.8,9-6,10.9-6.7c3.1-4,5-6,6-6.1c0.9-0.1,1.4-0.1,1.4-0.1c0.3-0.1,0.5-0.5,0.7-1.4L78.4,288z"/>
		<path d="M78.8,223.9c0.5,0.2,1.6,0.3,3.2,0.2c2.6-0.1,3.8-0.2,3.5-0.2c2.2,0,4,0.9,5.4,2.8c0.8,1.1,1.6,3,2.4,5.8
			c0.5,1.4,1.6,4.1,3.3,7.7v8.5c0,0.8-1.3,3.1-1.3,4.2c0,3.1-2.3,6.7-7,10.6c-4.7,3.9-8.5,5.9-11.7,5.9c-0.5,0-1.6,0.4-3.3,1.1
			c-2.4-0.7-4.6-1.1-6.3-1.1c-1.1,0-3-1.5-5-1.4c-0.5-0.6-1.2-1.2-2.2-1.5c-2.2-1.7-4.9-3.7-8-6.1l-0.4-1.6c-0.8-0.7-2-3.2-2.6-3.9
			v-1.5l-1.5-1.7v-5.9c0-0.5,0.3-1.4,0.9-2.8c0.1-0.3-0.1-0.7-0.5-1.3c0-1.7,0.5-3.7,1.4-5.8l-0.3-1.4c1.2-0.8,1.9-2.2,2.2-4
			c-0.8-1.4-1.1-3.1-0.6-5.2c1.5-0.7,2.4-1.1,2.7-1.1h4.8c1.8,0,4,0.2,6.7,0.5v2.8c-0.8,1.1-1.7,1.7-2.7,1.9l-6.3,4.7
			c-2.2,2.1-3.4,4.2-3.4,6.7c0,3.5,0.7,6.8,2.1,10c1.6,3.7,3.8,5.5,6.4,5.5c0,0,1.2,0.5,3.6,1.6c2.1,1,4,1.4,5.9,1.4
			c3.2,0,5.8-0.2,7.7-0.5c0.8-0.6,2-1,3.6-1c1.1,0,2.4-0.7,4-2.1c1.5-1.4,2.4-2.8,2.5-4c1-0.6,1.8-2,2.5-4c0.6-1.9,1-3.5,1-5
			c0-0.5-0.3-1-0.8-1.5c-0.1-1-0.2-2.4-0.4-4.3c-0.2-0.7-0.9-1.5-2.2-2.5c-0.1-0.4-0.3-0.7-0.6-1.1l-6.7-0.3l-2.6,0.7
			c-0.3,3-1.4,4.4-3.2,4.4l-1.3-0.3l-1.1-2.3c0.3-1.8,0.5-3.3,0.5-4.6c0-0.8-0.1-2.2-0.4-4s-0.4-3.1-0.4-4s0.2-1.7,0.6-2.5
			c0.6-1.1,1.3-1.6,2-1.6c0.8,0,1.4,0.4,2,1.3C77.4,221.3,78,222.5,78.8,223.9z"/>
		<path d="M75.7,170.6c-1.3-0.3-2.2,0.1-2.9,0.9c-0.6,0.8-1.1,1.2-1.2,1.2c-0.7-0.4-1.7-0.6-2.9-0.9c-1.3-0.6-1.9-1.9-1.9-3.8
			c0-1.4,0.6-4.6,0.6-5.7c0-2.2,1-3.9,2.9-4.8c2.5,0,3.8,1.2,3.9,3.5c-0.1,0.7-0.1,1.7-0.1,3c0,0.5,0.3,0.8,0.8,0.9
			c1.1,2.8,3.3,4.1,6.7,4.1c0.6-0.7,1.4-1.3,2.4-1.6l1.1-0.4c0.7-0.3,1.4-1.2,1.8-2.9c0.6-0.5,0.9-1.1,0.9-1.8
			c-0.1-0.1-0.1-0.5-0.1-0.9c0-0.5,0.2-1.4,0.5-2.6l4.8-1c0.1,0.5,0.2,1.4,0.4,2.4c0.3,0.4,0.7,0.9,1.4,1.2c-0.5,1.9-0.9,4.9-1,8.9
			l-1.6,1.9l-2.1,0.1c-0.1,0.1-0.4,0.1-0.8,0c-0.4-0.1-0.8-0.2-0.9-0.2c-0.3,0-0.5,0.2-0.5,0.4s0.1,0.5,0.2,0.8c1,0.8,2.2,2,4,3.7
			c0,0.9,0.4,2,1.3,3.2c1.2,1.7,1.9,3.9,2,6.4l0.8,1.2c0,2.1-1.6,4.1-4.9,6.4c-0.7,1.3-2,2.4-3.7,3.1c-1.5,0.4-3.1,1-4.7,1.5
			c0,0,0,0,0.1,0.1c-0.4,1.3-0.8,2-1.4,2.2c-0.3,0.1-1.3,0.3-2.9,0.4c-0.9,0.1-2.1-0.8-3.5-2.6l-4.3-5.4c-2-2.5-3.5-4.1-4.6-4.9
			c-3,2.2-5.6,3.2-7.7,3.2c-0.3,0-0.9-0.2-1.7-0.5c-0.4,0.1-0.8,0.1-1.3,0.1c-2,0-4-0.9-5.9-2.7c-2.1-1.8-3.1-3.6-3.1-5.5
			c0-3,1.6-5.2,4.9-6.6c0.4-0.9,1.1-1.5,2.1-1.9c0.5-1.5,1.6-2.3,3.4-2.3l1.2,0.2l0.7,1c1.5,0.2,2.9,0.4,4.1,0.6
			c0.3,0.4,0.6,0.5,1.2,0.4c0.4,0.4,1.4,1.4,2.8,3c2-1,4.8-2.8,8.5-5.3C75.5,172.6,75.5,171.9,75.7,170.6z M60.9,179.5
			c-1.3-0.4-2.3-0.6-3.2-0.6c-0.5,0.2-1.3,0.5-2.3,0.9c-2.2,1.2-2.4,3-2.5,3.2l-0.2,0.1c-0.3,0.2-0.5,0.4-0.5,0.8l0.1,0.4
			c0.8,0.9,2.2,2,4,3.1c0.8,0.6,1.7,1,2.7,1c2.4,0,4.4-2.2,4.4-4.7c0-0.5-0.3-1.9-0.3-2.3C63,180.7,62.3,180,60.9,179.5z
			 M80.7,177.5c-0.8,0.9-2.2,2.2-4.2,3.8c-1,0.6-2.8-0.3-3.8,0.4c-0.1,0.1-2.3,0.3-2.3,0.5l0.5,2.4c1,1.1,2.3,2.5,2.4,3.7l3,2.9
			c1.3,1.1,2.4,1.6,3.5,1.6c2.1,0,3.9-0.3,5.2-0.9c0.1-0.8,0.7-1.5,2-2.2c1.3-0.7,2-1.4,2.1-2.2c0.5-3.1,0.4-4.9-0.2-5.6
			c-0.5-0.2-1.3-0.6-2.3-1.3c-1.2-1.2-2.8-2.6-2.9-4c-0.3-0.3-0.6-0.4-1.1-0.4c-0.4,0-0.8,0.3-1.4,0.8L80.7,177.5z"/>
	</g>
	<g>
		<path d="M167.6,572.9l-0.1,1.5c0,0.1,0.1,0.3,0.2,0.5l0.2,0.3c0.6,0.9,1,1.6,1,2.1v9.6c0,0.7,1.4,3.4,1.4,4.9
			c0,1.5-1.4,4.3-1.4,5.4c0,1.5,0.5,2.6,1.4,3.1v5.5c0,1.7-0.3,3.2-0.8,4.6c-0.7,1.9-1.8,2.8-3.1,2.8c-1.9,0-3.2-1.6-3.8-4.9
			c-1.3-0.8-2.2-1.3-2.7-1.3h-11c-1.2,0-2.7,0.1-4.8,0.3c-2.1,0.2-3.7,0.3-4.9,0.3c-0.2,0-1.1,0.2-2.7,0.5c-1.7,0.3-3,0.4-4,0.4
			c-2.3,0-4,0.9-5.2,2.7c-0.7,0.3-1.4,0.8-1.8,1.7c-0.5,0.9-1.3,1.4-2.2,1.4c-1.7,0-2.5-1.1-2.5-3.2c0-2.6,0-3.7,0.1-3.1
			c0.8-1.1,1.3-1.9,1.3-2.3c0-0.6-0.2-1.7-0.4-3.2c-0.3-1.3-0.4-2.5-0.3-3.3c-0.5-0.8-0.7-1.4-0.7-1.7v-13c0-4.9,0.8-7.6,2.3-8.2
			c0.3-0.1,0.9-0.2,1.9-0.3c0.5,0,1.2-0.5,2-1.3h1.8c1-1,1.9-1.5,2.8-1.5c1.6,0,2.4,0.8,2.4,2.4c0,0.9-0.5,1.7-1.5,2.5
			c-0.5,2.2-2.3,3.6-3.9,5.1c-2,2.2-3,6.4-3,12.4c0,0.8,0.4,1.6,1.1,2.4l0.6,0.6h6c0.3,0,1.4,0.1,3.7,0.2c1.5,0.1,2.8,0.1,3.6-0.1
			c1.4-0.3,2-1.6,2-4c0-2.2-1.1-4.1-1.9-6c-4.2-2.1-6.4-3.4-6.4-4.2c0-1.4,1.6-3.2,3.1-3.2c0.8,0,2.9,0.6,3.7,0.6
			c0.5,0,2-0.7,2.8-0.7h4.8c0.1,0,1.6,0.3,4.6,0.8l0.1,1.6c0.1,1.7-1.7,3.2-5.2,4.5l-0.7,0.2c0,1-0.5,3.9-0.5,5c0,2.9,0,4.4,0.1,4.6
			c0.3,0.7,1.2,1.1,2.7,1.1c8.8,0,13.5-0.5,14.1-1.4l0.2-3.1v-8.7c0-0.8-1.5-3.2-1.6-4.4c-5.3-4.4-8-7.3-8-8.7
			c0-1.3,1.7-2.1,2.9-2.1c1,0,2.3,0.3,4.1,0.7c1.8,0.4,3.1,0.6,4.1,0.6L167.6,572.9z"/>
		<path d="M151.2,512.4c2.1,0.2,5.4,2.1,10,5.8c4.8,3.9,7,6.8,6.9,8.8l-0.2,3.8l0.9,1.2c0.5,6.8,0.5,14.9,0.1,24.2
			c1,1.1,1.4,2.2,1.3,3.1c-0.1,1.1-0.9,2.6-2.6,4.6c-1.3-0.3-2.4-1-3.1-2c-0.3-0.3-0.8-1.3-1.6-3.2c-1-2.1-2.2-3.1-3.3-3.2
			c-1.4-0.1-3.5,0-6.1,0.4c-2.6,0.3-4.7,0.4-6,0.3l-6.6-0.5c-3.6-0.3-6.5-0.5-8.6-0.5c-3.5,0-5.7,0.4-6.5,1.1v0.9
			c-0.1,1-0.5,2-1.1,3c-0.9,1.3-2,1.7-3.3,1.4l-1.6-3.1c0.4-1.9,0.5-4.1,0.4-6.9c-0.1-4.8-0.2-7.1-0.2-7v-2.8
			c-0.9-1.1-1.3-2.5-1-4.4c0.6-0.1,0.9-0.4,1-0.8v-2.2c0.1-1.4,0.4-3.2,1-5.6c0.6-2.7,1.4-4.5,2.1-5.3c0.5-0.5,0.6-0.9,0.5-1.3
			c1.4-1.4,3.2-3.1,5.5-4.8c2.1-1.4,4-2.9,6-4.4c1.2,0,4.3-1.2,5.8-1.1L151.2,512.4z M141,520.8C141.1,520.8,141.1,520.8,141,520.8
			L141,520.8l-0.2,0.2c-0.4,0.5-2.8,1.6-6.8,3.4c-3,1.3-5,3.2-6,5.7c-1.7,0.7-2,2.2-2.6,3.7L125,541c-0.1,2.9,0,4.4,0.5,4.7l1-0.8
			c4.2,0,6.6,0.2,7.1,0.5c0.7,0.5,1.1,0.6,1.2,0.6l0.5-0.1c2.2-0.3,3.2-0.5,3.1-0.5c0.8,0,1.8,0.3,3.1,0.9c0.8,0.5,1.6,0.7,2.4,0.7
			c0,0,1.2-0.2,3.5-0.6c1.3-0.3,2.9-0.5,4.5-0.5c1.3,0,3.1,0.1,5.4,0.4l5.3,0.5c0.6,0,1.1-0.5,1.2-1.6c0.1-0.5,0.2-1.4,0.1-2.8
			c0.2-0.3,0.4-0.5,0.4-0.7c0.2-2.9-0.2-5.2-1-7.1l-3.1-6.3l-2.7-2.2c-1.4-0.5-2.3-1.4-2.8-2.7c-0.3-0.3-1.7-0.5-4.3-0.6
			c-0.4,0-1.4-0.1-3-0.3c-1.3-0.2-2.4-0.3-3.4-0.2l-1.7-1.3L141,520.8z"/>
		<path d="M157.1,490.3l0.9-1.2c0.8-0.5,1.7-0.7,2.8-0.8c1.7-1.4,1.1-3.2,2.5-5V482c0.5-0.6,0.6-1.9,0.5-3.9l-0.1-2.4
			c-3.7-5.3-8.7-8-15.1-8c-1,0-3.5,0.8-4.6,0.8c-1.2,0-3.5-1.1-4.3-1.1l-0.4,0.5l-0.8,0.7c-2.1-0.3-3-0.4-2.5-0.4
			c-4.2,0-6.8,0.2-7.9,0.6c-0.3,0.1-0.5,0.7-0.6,1.8c-0.1,1-0.4,1.8-0.8,2.2c-0.6,0.8-1.9,1.3-3.6,1.2c-0.8-0.8-1.2-1.9-1.2-3.2
			c0-0.8-0.3-1.5-0.9-2.2c0-1-0.4-2.2-1.3-3.6c1.4-0.8,2.2-1.9,2.2-3.2c0.2-2.7,0.3-4,0.3-4.1c0.4-1.3,1.3-2,2.6-2
			c0.7,0,1.3,0.5,1.6,1.4c0.3,0.5,0.5,1.4,0.8,2.7c0.5,2.2,1,3.1,1.6,3.1c3.1-0.4,8.5-0.6,15.7-0.6c1.9,0,4.3,0.3,7.3,0.7
			c2.9,0.5,5,0.6,6.2,0.6l1.7,0.2c0.8,0.8,2.1,1.9,3.9,3.1c1.3,0.8,2.5,2.5,3.7,5c0,1.1,0.3,2.4,0.7,4c0.5,1.9,0.8,3.7,0.8,5.2
			c0,1.2,0.4,2,1,2.6l0.3,1.5c0,0.8-0.2,1.7-0.6,2.9c-0.5,1.3-0.9,2.3-1,2.8c-0.4,0.9-1.2,2.1-2.3,3.5c-3.2,2.2-5,3.6-5.8,4
			c-2,1-4.3,1.6-7.1,1.7c-1,0.1-3.2,0.1-6.8,0.1c-1.4,0-4.8,1.5-6.3,1.5c-0.8,0-2.1-0.2-3.6-0.5c-1.6-0.3-2.8-0.5-3.6-0.5l-1.2,0.7
			l-2.2,0.1c-0.5,0.4-1,1-1.4,1.5l-0.1,3c-1.5,0.6-2.7,1-3.5,1c-2.2,0-2.8-2.7-3.5-4.6c0.1-1,0.1-2.3-0.1-4c-0.2-2-0.3-3.3-0.3-4
			c0-1.2,1-4,1-5.1c0-2.3,0.9-3.5,2.8-3.5c1.2,0,2,0.5,2.2,1.6c0.2,0.5,0.3,1.4,0.3,3c0,0.6,0,0.8-0.1,0.7h0.2c0,0,0.4,0.1,1.4,0.3
			l0.9,0.9c0.3,0,3.5,0.1,9.7,0.3c1.5-1,2.9-1.4,3.9-1.4c0.6,0,1.4,0.2,2.3,0.4c1.3,0.5,2.1,0.6,2.3,0.7c1.6-0.9,2.9-1.4,3.8-1.4
			c0.8,0,1.4,0.5,1.6,1.3c0.3,0.8,0.4,1.3,0.4,1.3c0.1,0,0.7-1,1.7-3.1L157.1,490.3z"/>
		<path d="M129.6,417.3c-0.1,0.4-0.6,1.3-1.5,3c-0.7,1.4-1.1,2.3-1.1,2.8c0,1.3-0.3,2.6-0.7,3.8l0.8,3.9l1,0.9l0.3,1.6
			c2.8,2.9,4.9,4.6,6.4,5.2c0.8,0.5,3.5,0.9,8,1.4l1.2,1.1l0.9,0.1l1.1-1.1c0.4-0.1,1.4-0.2,2.9-0.2c2,0,4.9-1.7,8.8-5.1
			c3.9-3.5,5.8-6,5.8-7.7l-0.1-6.2c-0.5-0.4-1.1-1.7-2-3.9c-0.7-1.7-1.5-2.7-2.3-3l-1.5-2.2v-1.8l2.8-1c2.4,0.7,4.4,2.4,5.9,5.2
			c1.3,2.4,2,4.8,2,7.1c0,0.6,0.3,1.7,0.7,3.2c0.4,1.8,0.7,3.6,0.7,5.5l-1.1,1.3l0.1,1.3c0.1,2.8-1.2,5.8-3.9,9
			c-2.7,3.1-5.5,4.9-8.3,5.6c-1.3,1.5-3.3,2.5-6.2,2.8c-0.5,0.1-2.9,0.1-7.2,0.1c-3,0-6.6-1.2-10.9-3.5c-4.4-2.4-7.3-4.9-8.8-7.7
			l0.1-2.1l-0.1-1.3l-1.3-1.6l-0.1-2.2c-1-1.2-1.4-2.4-1.4-3.7c0-4.3,0.6-8.3,1.8-11.9c1.4-1.2,2.1-2,2.2-2.4c0.1-0.5,0-1-0.1-1.6
			c-0.1-0.9-0.1-1.4-0.1-1.7c0-2.3,2.9-3.5,8.6-3.5c2.2,0,4.1,0.8,5.8,2.5l-0.4,1.4c-1.2,1.3-2.3,2-3.6,2.2c-0.6,0.6-2.2,1.9-4.8,4
			L129.6,417.3z"/>
		<path d="M169.3,358c-0.6,2.6-0.9,4-0.9,4.2c0,0.3,0.3,0.6,0.7,1.1c0.3,5,0.3,8.8-0.2,11.7c-0.8,0.4-1.5,0.5-2,0.5
			c-1.4,0-2.5-0.9-3.3-2.7c0.3-0.6,0.4-1.2,0.4-1.6c0-0.2-0.1-0.4-0.3-0.6c-1.1,0.3-2.2,0.3-3.2,1.3c-0.3-0.1-1.4,0.2-3.5,0.8
			c-2.1,0.5-3.5,1-4.4,1.4c-0.2,2.8-0.3,7-0.3,12.8c0,1.3,1.5,1.9,4.6,1.9c1,0,1.9,0.5,2.9,1.7c1,0,1.9,0.2,2.8,0.5
			c0.4-0.5,1-1.1,1.5-1.9l-1.2-1.1l2.7-4.3c2.8-0.1,4.1,2,4.1,6.4c0,1.1-0.1,2.4-0.3,4.1l1.3,2.3c-1.8,0.5-1.3,0.4-1.5,4.9
			c-1.5,0.8-2.8,1.2-3.7,1.2c-1.5,0-2.3-1.4-2.6-4.4c-0.6-0.5-1.4-0.8-2.5-0.9l-1.3-1.1c-0.9-0.1-2-0.5-3.2-1.3
			c-1.3-0.8-2.7-1.3-4.2-1.3c-1.2,0-2.4-0.5-4-1.4h-1.3c-1.4-1.3-3.3-2.2-5.8-2.8l-0.9-1.1c-2.1-0.5-4.7-1.4-8-2.4
			c-4.1-1.3-6.6-2.3-7.4-3c-0.1-1.8-1.3-2.9-3.7-3.1l-0.4-3.4c0.9-0.1,2.3-0.5,4.3-1.2c2-0.7,3.1-1.3,3.6-1.5c1.6,0.1,3.3-0.1,5-0.4
			c1.6-1.4,4.3-2.7,8-4c3.7-1.4,6.7-2.2,8.7-2.2l1.1-1c0.5-0.1,2.1-0.6,4.9-1.8s4.3-2,4.6-2.2c1.5-0.1,2.4-0.5,2.7-1.2
			c0.2-0.5,0.3-1.6,0.2-3.3l2.9-2.3L169.3,358z M147,380c-0.3-0.6-0.4-1.3-0.4-1.7c0-1,0.9-2.1,0.9-2.3l0.1-0.1
			c-0.9,0.4-2.3,0.7-4.3,1.1c-0.6,0.8-1.6,1.3-3,1.3c-0.4,0-2.2,1.7-2.5,2c-0.5,0.3-2.7-0.4-3.1-0.2c-0.2,0.2-0.5,0.5-1,0.7l1,0.9
			c0.5,0.5,1.3,0.7,2.2,0.8c1.8,0,3.1,1.4,3.2,1.4c0.4-0.1,0.8-0.1,1.1-0.1c0.8,0,1.4,0.3,1.8,0.9l0.1,0.3l0.2,0.2h0.1
			c1-0.1,1.8,0.3,2.5,1.1l0.2,0.3h0.3c0.1-0.1,0.2-0.1,0.3-0.1c0.3,0,0.8,0.2,1.4,0.6c-0.1,0-0.2-0.3-0.2-0.9V385
			c-0.1-0.5-0.1-0.7-0.1-0.8c0-0.5,0.4-1,1-1.5C148,381.2,147.4,380.3,147,380z"/>
		<path d="M134.6,305.1c-4.4,1.7-6.7,3.1-6.9,3.9v1.9c-0.1,2.2-1.1,3.5-1.8,5c-0.1,0.2-0.1,0.4-0.1,0.4c0,3.1,0.4,4.8,1.4,4.8
			c2.8,0,7-0.2,12.7-0.5c5.6-0.5,9.8-0.6,12.6-0.6c3.5,0,6.7,0.2,9.6,0.6c1.2-0.7,1.7-1.8,1.7-3.2c0-0.4-0.1-0.7-0.2-1.1l1-1.9
			l2-0.4c0.3,0,1.3,0.5,2.9,1.4l-0.2,14.5c1.2,1.2,1.7,2.2,1.7,3.1c0,2.2-1.8,4.6-4.2,4.6c-1.2,0-2.5-2-4.2-5.9
			c-0.1-0.3-1.2-0.5-3.2-0.8h-30.6c-1.4,0-2.1,1.8-2.1,5.3c0,2.5,0.8,4.5,2.4,5.9c0.5,0.5,2.2,1.5,5.4,3.4c1.5,0.9,2.2,1.9,2.2,3
			c0,0.8-0.8,1.6-2.4,2.2c-1.3,0.6-2.5,0.9-3.5,0.9c-1.1,0-3.7-0.6-5-0.6c-1,0-2.2-0.5-3.9-1.6c-1.7-1.2-2.5-2.2-2.5-3.3
			c0-0.2,0.3-1,0.8-2.4c0.5-1.2,0.6-2.5,0.6-4l0.8-1.1c-0.7-1.9-1.1-4.8-1.1-8.7c0-2,0.1-4.9,0.4-8.6s0.4-6.3,0.4-7.5
			c0-1.4-0.4-4.9-0.4-6.3c-0.2-0.2-0.5-1-0.7-2.5c-0.3-1.5-0.4-2.6-0.4-3.1c0-1.6,0.8-2.4,2.4-2.4c0.7,0,1.9,0.2,3.5,0.6
			c1.6,0.4,2.8,0.5,3.4,0.5h1.8c0.7,0.1,1.2,0.1,1.4,0.1c1.9,0,2.8,0.9,2.8,2.8L134.6,305.1z"/>
		<path d="M169.3,281.6c0,0.5,0.3,1.2,0.9,1.9c-0.6,2.1-1,5.7-1,10.6c0,1.9-0.7,2.8-2.1,2.8c-1.5,0-2.5-0.7-2.8-2.2l-0.4-3.2
			c-0.2-0.3-0.5-0.4-1.2-0.4c-1.8-0.1-3.6-0.1-5.4-0.1c-4-0.1-7.7-0.1-11.2-0.1c-3.7,0-6.8,0.1-9.4,0.2c-5.1,0.3-8.2,0.7-9.2,1.3
			l-3.2,3.7c-2.5,0.2-3.8-0.7-3.8-2.6c0-0.7,0.3-1.7,0.7-2.9l-0.6-1.2c0.7-1.2,1.1-2.5,1.1-4c0,0-0.5-1.5-1.3-4.6
			c-0.2-0.7-0.3-1.5-0.3-2.5l1.3-1.2c1,0,2.3,0.1,3.9,0.4c0.3,1,0.9,2.2,1.8,4c0.3-0.1,0.5-0.1,0.7-0.1c1.1,0,3.1,1,4,1
			c0.6,0,2.1-0.4,2.7-0.4c0.9,0,2.2,0.2,4,0.5c1.7,0.3,3.1,0.5,4,0.5c1.3,0,3.3-0.1,6-0.2c2.6-0.1,4.6-0.2,5.9-0.2
			c1.2,0,2.8-0.2,4.7-0.5c3-0.5,4.5-0.7,4.6-0.7v-1c0-1.4,1.2-3.7,2.9-3.7s2.7,0.8,2.8,2.5C169.5,279.8,169.3,281.1,169.3,281.6z"/>
		<path d="M150.2,223.8c0.6,0.1,2.4,0.5,5.5,1.4c0.3,0.1,0.6,0.1,1.1,0c0.7,0.9,1.6,1.6,2.7,2.2c-0.1,1.2,1.6,2.9,5,4.9
			c0.4,1.9,1.8,3.3,2.9,4.8c1.7,2.6,2.6,6.5,2.6,11.6c0,0.5-0.3,1.6-0.9,3.2c-0.6,1.6-1.2,2.9-1.6,3.7v0.2c0.1,2.2-1.3,3.8-2.4,5.5
			l-1.4,0.4c-0.8,1.3-2.2,2.5-4.1,3.7c-2.2,1.3-3.9,1.8-5.1,1.5c-0.6,1.2-2.3,1.6-4.9,1.5c-1.5,1-3.3,1.4-5.4,1.4
			c-0.7,0-1.9-0.3-3.6-0.8c-1.4-0.5-2.7-0.6-3.7-0.5c-1.2-1.4-4.3-2.2-5.4-3c-6.8-5.7-10.1-12.4-10.1-20.2c0-0.9,0.3-2.2,0.7-3.8
			c0.5-1.7,0.6-2.9,0.7-3.6l1.9-1.7c0.5-0.5,0.6-1.4,0.7-2.4c1.1-0.8,2.2-2.2,3.6-4.3c1.2-1.9,2.9-3.1,5.1-3.6
			c2.7-0.6,4.5-1.4,5.4-2.1l1.7,0.1l4.1-0.1c1-0.8,2.2-1.3,3.3-1.2L150.2,223.8z M141.9,233.6c-1.4-0.1-2.4-0.2-3.1-0.2
			c-0.6,0-2.1,0.9-4.3,2.6c-1.9,1.5-3.5,2.9-4.7,4l-0.1,1.6c-0.6,0.6-1.6,1.4-3.1,2.3c-0.5,1-0.7,2.1-0.7,3.2c0,1.6,0.8,2.5,2.3,2.7
			c0.4,0.9,0.7,1.7,0.6,2.4c1.1,1.7,2.1,2.5,3.1,2.3c0.8,0.4,2,1.3,3.5,2.8c0.9,0.9,2.1,1.3,3.4,1.3c1,0,2.2-0.4,3.3-1.4
			c1.4,0.7,3.1,1.2,4.8,1.3h5c0.9,0,1.9-0.5,2.9-1.4c1.3-0.1,2.6-0.4,4-1c1.7-0.8,2.5-1.6,2.3-2.6l1.3-1.4c0.2-0.6,0.7-1.5,1.5-2.7
			s1.2-2,1.2-2.6c0-0.8-0.9-2.7-2.8-5.8c-1.9-3.1-3.1-4.8-3.8-5c-1.2-0.4-2.8-1.3-5-2.4c-0.8,0-1.5-0.2-2.2-0.5
			c-1.2,0.5-3.1,0.6-5.8,0.5C145,233.8,143.8,233.7,141.9,233.6z"/>
		<path d="M152.2,179.1c-0.4-0.1-0.8-0.4-1.4-0.7h-3.7c-1.5-0.9-2.5-1.4-3.2-1.4c-1.2,0-4.3,1-5.5,1c-1,0-2.5-0.2-4.7-0.4
			c-2.2-0.4-3.8-0.5-4.9-0.6l-1.3,1.3c0,1.3-0.3,2.5-0.9,3.9c-0.8,1.7-1.8,2.5-3.1,2.5l-2.2-1.3c-0.1-1-0.3-2.9-0.7-5.6
			c-0.3-2.2-0.5-3.9-0.5-5.2v-4.2l3.4-3.7c2.9-0.3,3.3,2.8,4,5c0.1,0.4,0.7,0.8,1.8,1.3l2.2,1.1l19.5-0.1c1.5,0,4.3,1.3,5.5,1.3
			h10.8c0.9,0.5,1.4,1.3,1.5,2.2c0.1,0.4,0.1,1.4,0,2.8c-2.8,2.7-6.7,5.7-11.5,8.9l-12.1,8c-0.6,0.5-1.5,1.4-2.9,3.1
			c-2.2,2.8-5,3.1-6.8,4.9l-0.3,1.5c0.5-0.3,0.8-0.4,1.3-0.4c1,0,3.1,0.9,4.1,0.9c0.7,0,2.8-0.9,3.9-0.9c1.3,0,3.6,0.3,6.6,0.7
			c3,0.4,5.1,0.6,6.7,0.6c2.1,0,3.3-0.1,3.8-0.3c0.6-0.3,1-2,1.1-4.9l1.1-1.4c0.1-1.5,0.8-2.4,2.2-2.8l4,2.2l0.1,17.9l-1.3,1.9
			l-4.2-0.5c-0.8-4.2-2.2-6.6-3.9-7.2c-0.8-0.3-2-0.4-3.5-0.4c-0.5,0-1.3,0-2.4,0.1h-2.9c-1.5,0-4,0.4-7.2,1.1
			c-0.9-0.8-2.2-1.3-3.9-1.2c-1.2,0-3.9,0.2-4.6,0.2c-0.5,0-1.3-0.2-2.6-0.6c-0.7,0.5-2.1,0.7-4,0.8c-0.8,0.6-1.6,1.4-2.4,2.4
			c-0.1,0.8-0.4,1.6-1,2.4c-0.6,1-1.4,1.5-2.1,1.5c-2.2,0-3.3-2.7-3.3-8.2c0-3.5,0.6-6.1,2-7.6c1.1-1.3,4.1-3.7,9.3-7.4
			c5.3-3.8,9-6,10.9-6.7c3.1-4.1,5-6,6-6.1c0.9-0.1,1.4-0.1,1.4-0.1c0.3-0.1,0.5-0.5,0.7-1.4L152.2,179.1z"/>
		<path d="M169.3,116.3c-0.6,2.6-0.9,4-0.9,4.2c0,0.3,0.3,0.6,0.7,1.1c0.3,4.9,0.3,8.8-0.2,11.7c-0.8,0.4-1.5,0.5-2,0.5
			c-1.4,0-2.5-0.9-3.3-2.7c0.3-0.6,0.4-1.2,0.4-1.6c0-0.2-0.1-0.4-0.3-0.6c-1.1,0.3-2.2,0.3-3.2,1.4c-0.3-0.1-1.4,0.2-3.5,0.8
			c-2.1,0.5-3.5,1-4.4,1.4c-0.2,2.8-0.3,7-0.3,12.8c0,1.3,1.5,1.9,4.6,1.9c1,0,1.9,0.5,2.9,1.7c1,0,1.9,0.2,2.8,0.5
			c0.4-0.4,1-1.1,1.5-1.9l-1.2-1.1l2.7-4.3c2.8-0.1,4.1,2,4.1,6.4c0,1.1-0.1,2.4-0.3,4.1l1.3,2.3c-1.8,0.4-1.3,0.4-1.5,4.9
			c-1.5,0.8-2.8,1.2-3.7,1.2c-1.5,0-2.3-1.4-2.6-4.4c-0.6-0.5-1.4-0.8-2.5-0.9l-1.3-1.1c-0.9-0.1-2-0.5-3.2-1.4
			c-1.3-0.8-2.7-1.3-4.2-1.3c-1.2,0-2.4-0.5-4-1.4h-1.3c-1.4-1.4-3.3-2.2-5.8-2.8l-0.9-1.1c-2.1-0.5-4.7-1.3-8-2.4
			c-4.1-1.4-6.6-2.3-7.4-3c-0.1-1.8-1.3-2.9-3.7-3.1l-0.4-3.4c0.9-0.1,2.3-0.5,4.3-1.2c2-0.7,3.1-1.3,3.6-1.5c1.6,0.1,3.3-0.1,5-0.4
			c1.6-1.3,4.3-2.7,8-4c3.7-1.4,6.7-2.2,8.7-2.2l1.1-1c0.5-0.1,2.1-0.6,4.9-1.8s4.3-2,4.6-2.2c1.5-0.1,2.4-0.5,2.7-1.2
			c0.2-0.5,0.3-1.6,0.2-3.3l2.9-2.3L169.3,116.3z M147,138.4c-0.3-0.6-0.4-1.3-0.4-1.7c0-1,0.9-2.1,0.9-2.3l0.1-0.1
			c-0.9,0.4-2.3,0.7-4.3,1.1c-0.6,0.8-1.6,1.3-3,1.3c-0.4,0-2.2,1.7-2.5,2c-0.5,0.3-2.7-0.5-3.1-0.2c-0.2,0.2-0.5,0.5-1,0.7l1,0.9
			c0.5,0.4,1.3,0.7,2.2,0.8c1.8,0,3.1,1.4,3.2,1.4c0.4-0.1,0.8-0.1,1.1-0.1c0.8,0,1.4,0.3,1.8,0.9l0.1,0.3l0.2,0.2h0.1
			c1-0.1,1.8,0.3,2.5,1.1l0.2,0.3h0.3c0.1-0.1,0.2-0.1,0.3-0.1c0.3,0,0.8,0.2,1.4,0.6c-0.1,0-0.2-0.3-0.2-0.9v-1.1
			c-0.1-0.4-0.1-0.7-0.1-0.8c0-0.4,0.4-1,1-1.5C148,139.5,147.4,138.6,147,138.4z"/>
		<path d="M138.6,102.6l0.3,0.9c0.2,0.6-0.8,1-3.1,1.1c-2.4,0.1-4.5-0.1-6.4-0.5c-0.3-0.1-1,0-2.2,0.3l-1.4,2.2l-0.1,0.4
			c-0.4,1.3-1.2,2-2.4,2c-1,0-1.7-0.6-2.2-2c-0.3-0.8-0.4-1.6-0.3-2.6c0.1-2.8,0.1-5.2,0-7.1c-0.1-2.8-0.1-4.4-0.1-4.9
			c0-1.1,1.8-3.6,3.1-3.6c1.2,0,1.9,1,2,3.1c0,0.1,1.1,1.2,1.1,2.5c0,0.3,0.2,0.4,0.6,0.4c0.4-0.1,1.2-0.1,2-0.1
			c3.9,0.2,8.5,0.2,13.7,0c0.8-0.1,2,0.2,3.5,0.6c0.1,0.1,1.5,0,4.3-0.2c1.6-0.1,2.9,0,3.9,0.1c2.2,0.4,2.6-0.3,4.7-0.6
			c0.5,0.1,1.3,0.1,2.3,0c0.3-0.1,0.6-0.5,1.1-1.3c-0.1-1.4,0.3-2.6,0.9-3.8c0.1-0.3,0.1-0.5,0-0.7c-0.6-1-0.9-1.7-0.9-2.1v-4
			c0-1,0.6-1.5,0.6-2c0-0.4-0.1-0.9-0.3-1.5c-0.3-0.7-2.3-2.3-6.2-4.8c-1.9-1.1-4-2.2-4.9-4.4c0.5-0.7,0.8-1.1,0.8-1.2
			c0.4-0.4,0.8-0.5,1.3-0.5c1.7-0.1,4.9,0.4,9.4,1.4c0.5-0.1,1.2-0.1,2.2-0.1c0.5,0.1,1,0.4,1.8,1.3h0.4c1.3,0.2,2,0.9,2,2.2
			c0,0.6-0.5,1.6-0.5,2c-0.2,0.8-0.4,2.1-0.5,3.8c0.2,0.4,0.3,1.5,0.3,3.1c-0.1,5.1-0.1,12.4,0,21.9l0.6,1.9c0.1,2.2-1.1,4.8-3,4.8
			c-0.6,0-1.3-0.3-1.9-0.8c-1.3-1-2-1.8-2.2-2.6l-0.2-1c-0.4-0.5-0.7-0.9-1.2-1c-1.2-0.5-2.9-0.7-5-0.8c-1,0.3-1.7,0.4-2,0.4
			c-1.2,0.1-2.8,0-5-0.3c-0.6-0.1-2.4,0.5-3.1,0.5h-4.1c-0.8,0-1.5-0.3-2.2-0.8L138.6,102.6z"/>
	</g>
	<g>
		<path d="M246.6,464l-11.3,9.5c-6.2,5.2-9.3,8.3-9.3,9.2c0,0.1,0.1,0.4,0.2,1c0.5,0.5,0.9,0.9,1.2,1.4c0.9,0,2.2,0.2,3.9,0.5
			c1.7,0.3,3,0.5,3.8,0.5c0.6,0,1.2-0.2,1.7-0.5c3.2,0.1,4.8-0.1,5-0.5c0.1-0.1,0.4-0.6,0.6-1.5c0.4-1.3,1-2.7,1.8-4.3l2.2,0.4
			c1,1,1.5,2.2,1.5,3.3c0,1.4-0.8,3.5-0.8,4.9c0,1,0.5,3.2,0.5,4.2c0,0.7,0,1.8-0.1,3.2c-0.1,1.7-0.1,3.1-0.1,4l-1.8,0.5
			c-0.9,0-1.7-0.6-2.5-1.9c-0.6-1-1-2.1-1.3-3.2c-0.6-0.5-1.6-0.5-3.1,0.2c-1-0.3-3-0.5-5.8-0.5c-2.8,0.1-4.7,0.3-5.5,0.5l-0.8-0.6
			c-1.5,0.3-3.3,0.4-5.6,0.3c-3.8-0.2-5.7-0.3-5.7-0.3c-3.1,0-5.1,0.1-6.1,0.2c-3,0.4-4.5,1.4-4.5,3c0,1.3-0.5,2.4-1.4,3.3
			c-2.6-0.1-3.9-1.3-3.9-3.5c0-0.8,0.2-1.8,0.5-3l-0.2-0.4c-0.1-1.2,0-2.8,0.4-5c-0.2-0.6-0.3-1.3-0.3-1.7c0-0.1,0.4-1.1,1-2.8
			c1.3-0.1,2.2,0,2.7,0.2l2.1,1.1c0.1,0.1,0.2,0.2,0.3,0.2c0.3,0,1.3,0.1,3.1,0.2c1.8,0.1,3.3,0.2,4.6,0.2c5.5,0,8.3-1.1,8.3-3.1
			c0-0.7,0.7-2.4,0.7-3.1c0-0.1-0.1-0.6-0.3-1.8l-3.2-3.1c-1.9-1.8-4.4-2.7-7.4-2.7c-3.6,0-5,2.9-6.7,5.3c0.2,0.8,0.3,1.6,0.3,2.4
			c0,1.2-1.4,1.2-1.8,2.2c-0.5,0.5-0.9,0.7-1.2,0.7c0.1,0-0.5-0.5-1.8-1.4c-0.6-1.2-1-2.5-1-3.9c0-3.1,0.9-5.9,2.7-8.6
			c2.1-3.1,4.6-4.8,7.7-4.8c2.1,0,4,0.2,5.6,0.6l0.6-0.6c2.9,1.2,4.9,2.4,6,3.8c0.5,0.7,1.4,1.7,2.7,3c0.7,0,1.4-0.2,2.2-0.5
			c0.8-0.9,2.2-2.1,4-3.5c3.8-3,6-4.8,6.7-5.4c2.7-2.6,4-4.9,4-6.9c0-2.1,1-3.1,2.9-3.1c1.5,0.5,2.6,4.4,2.3,9.6
			C247.1,461.9,246.9,462.9,246.6,464z"/>
		<path d="M245.8,405.3l-0.1,1.5c0,0.1,0.1,0.3,0.2,0.5l0.2,0.3c0.6,0.9,1,1.6,1,2.1v9.6c0,0.7,1.4,3.4,1.4,4.9
			c0,1.5-1.4,4.3-1.4,5.4c0,1.5,0.5,2.6,1.4,3.1v5.5c0,1.7-0.3,3.2-0.8,4.6c-0.7,1.9-1.8,2.8-3.1,2.8c-1.9,0-3.2-1.6-3.8-4.9
			c-1.3-0.8-2.2-1.3-2.7-1.3h-11c-1.2,0-2.7,0.1-4.8,0.3c-2.1,0.2-3.7,0.3-4.9,0.3c-0.2,0-1.1,0.2-2.7,0.5c-1.7,0.3-3,0.4-4,0.4
			c-2.3,0-4,0.9-5.2,2.7c-0.7,0.3-1.3,0.8-1.8,1.7c-0.5,0.9-1.3,1.4-2.2,1.4c-1.7,0-2.5-1.1-2.5-3.2c0-2.6,0-3.7,0.1-3.1
			c0.8-1.1,1.3-1.9,1.3-2.3c0-0.6-0.2-1.7-0.4-3.2c-0.3-1.3-0.4-2.5-0.3-3.3c-0.5-0.8-0.7-1.4-0.7-1.7v-13c0-4.9,0.8-7.6,2.3-8.2
			c0.3-0.1,0.9-0.2,1.9-0.3c0.5,0,1.2-0.5,2-1.3h1.8c1-1,1.9-1.5,2.8-1.5c1.6,0,2.4,0.8,2.4,2.4c0,0.9-0.5,1.7-1.5,2.5
			c-0.5,2.2-2.3,3.6-3.9,5.1c-2,2.2-3,6.4-3,12.4c0,0.8,0.4,1.6,1.1,2.4l0.6,0.6h6c0.3,0,1.4,0.1,3.7,0.2c1.5,0.1,2.8,0.1,3.6-0.1
			c1.4-0.3,2-1.6,2-4c0-2.2-1.1-4.1-1.9-6c-4.2-2.1-6.4-3.4-6.4-4.2c0-1.4,1.6-3.2,3.2-3.2c0.8,0,2.9,0.6,3.7,0.6
			c0.5,0,2-0.7,2.8-0.7h4.8c0.1,0,1.6,0.3,4.6,0.8l0.1,1.6c0.1,1.7-1.7,3.2-5.2,4.5l-0.7,0.2c0,1-0.5,3.9-0.5,5c0,2.9,0,4.4,0.1,4.6
			c0.3,0.7,1.2,1.1,2.7,1.1c8.8,0,13.5-0.5,14.1-1.4l0.2-3.1v-8.7c0-0.8-1.5-3.2-1.6-4.4c-5.3-4.4-8-7.3-8-8.7
			c0-1.3,1.7-2.1,2.9-2.1c1,0,2.3,0.3,4.1,0.7c1.8,0.4,3.1,0.6,4.1,0.6L245.8,405.3z"/>
		<path d="M239.3,367.1l1.7,0.5c1.3,0.6,2.7,2.1,4,4.1c1.5,2.2,2.2,4.2,2.1,5.8c0.6,0.8,0.9,1.6,0.9,2.6c0,0.8-0.3,2-0.7,3.4
			c-0.5,1.4-0.7,2.5-0.8,3.3c-1,0.6-1.5,1.3-1.5,2c0,0.4,0.4,1.7,0.4,2.5c0,1.4-1.1,2.9-2.4,2.9h-7.4c-1-0.7-1.8-1.1-2.4-1.1
			c-1.2,0-2.2-0.6-3.1-1.9c0.6-1.2,1.4-2.1,2.6-2.7c1.2-0.5,2.2-1,3.3-1.5c2.8-1.3,5-3.4,6.7-6.2c-0.4-1.3-0.5-2.6-0.2-4
			c-0.1,0.1-0.4,0.1-0.6,0.2c-0.7-0.5-1.4-1.2-2.1-2c-1.4-1.7-3.3-1.7-5.1-2c-1.2,0.5-2.8,1.4-5,2.8c-1.7,1.3-2.6,4.1-2.5,8.5
			l-1.1,1c-0.3,2.6-2.2,4.9-5.9,6.7c-3.1,1.5-5.9,2.2-8.6,2.2c-0.5,0-0.9-0.2-1.3-0.5c-3.6-2.5-6.1-4.6-7.5-6.2
			c-2.4-2.7-3.6-5.7-3.6-9c0-1.1,1-3.3,1.1-4.1l1-1.1l-0.2-0.8c-0.4-0.5-0.7-1-0.7-1.4c0-1.7,1.9-3.5,3.6-3.5c0.5,0,0.9,0.2,1.3,0.5
			c1.1,0.1,2.5,0.2,4.2,0.1c2.4-0.1,3.8-0.2,4.2-0.2l1.8,1c0.3,2.5,0,3.2-2.2,4.1c-3.2,1.3-5,2.2-5.4,2.3c-1.7,1.2-2.6,2.8-2.6,4.9
			c0,3.6,1.5,5.4,4.7,5.4c0.3,0,1.3-0.1,3.1-0.3c0.9-0.8,2.1-1.2,3.6-1.2c1.9,0,2.9-3.2,2.9-9.6c0-2.7,1.5-4.9,4.7-6.8
			c2.8-1.5,5.4-2.2,8-2l0.4-0.4c2.1,0,3.9,0.1,5.2,0.4C238.2,366.6,238.6,367,239.3,367.1z"/>
		<path d="M245.8,320.7l-0.1,1.5c0,0.1,0.1,0.3,0.2,0.5l0.2,0.3c0.6,0.9,1,1.6,1,2.1v9.6c0,0.7,1.4,3.4,1.4,4.9
			c0,1.5-1.4,4.3-1.4,5.4c0,1.5,0.5,2.6,1.4,3.1v5.5c0,1.7-0.3,3.2-0.8,4.6c-0.7,1.9-1.8,2.8-3.1,2.8c-1.9,0-3.2-1.6-3.8-4.9
			c-1.3-0.8-2.2-1.3-2.7-1.3h-11c-1.2,0-2.7,0.1-4.8,0.3c-2.1,0.2-3.7,0.3-4.9,0.3c-0.2,0-1.1,0.2-2.7,0.5c-1.7,0.3-3,0.4-4,0.4
			c-2.3,0-4,0.9-5.2,2.7c-0.7,0.3-1.3,0.8-1.8,1.7c-0.5,0.9-1.3,1.4-2.2,1.4c-1.7,0-2.5-1.1-2.5-3.2c0-2.6,0-3.7,0.1-3.1
			c0.8-1.1,1.3-1.9,1.3-2.3c0-0.6-0.2-1.7-0.4-3.2c-0.3-1.3-0.4-2.5-0.3-3.3c-0.5-0.8-0.7-1.4-0.7-1.7v-13c0-4.9,0.8-7.6,2.3-8.2
			c0.3-0.1,0.9-0.2,1.9-0.3c0.5,0,1.2-0.5,2-1.3h1.8c1-1,1.9-1.5,2.8-1.5c1.6,0,2.4,0.8,2.4,2.4c0,0.9-0.5,1.7-1.5,2.5
			c-0.5,2.2-2.3,3.6-3.9,5.1c-2,2.2-3,6.4-3,12.4c0,0.8,0.4,1.6,1.1,2.4l0.6,0.6h6c0.3,0,1.4,0.1,3.7,0.2c1.5,0.1,2.8,0.1,3.6-0.1
			c1.4-0.3,2-1.6,2-4c0-2.2-1.1-4.1-1.9-6c-4.2-2.1-6.4-3.4-6.4-4.2c0-1.4,1.6-3.2,3.2-3.2c0.8,0,2.9,0.6,3.7,0.6
			c0.5,0,2-0.7,2.8-0.7h4.8c0.1,0,1.6,0.3,4.6,0.8l0.1,1.6c0.1,1.7-1.7,3.2-5.2,4.5l-0.7,0.2c0,1-0.5,3.9-0.5,5c0,2.9,0,4.4,0.1,4.6
			c0.3,0.7,1.2,1.1,2.7,1.1c8.8,0,13.5-0.5,14.1-1.4l0.2-3.1v-8.7c0-0.8-1.5-3.2-1.6-4.4c-5.3-4.4-8-7.3-8-8.7
			c0-1.3,1.7-2.1,2.9-2.1c1,0,2.3,0.3,4.1,0.7c1.8,0.4,3.1,0.6,4.1,0.6L245.8,320.7z"/>
		<path d="M247.5,266.5c-0.6,2.6-0.9,4-0.9,4.2c0,0.3,0.3,0.6,0.7,1.1c0.3,5,0.3,8.8-0.2,11.7c-0.8,0.4-1.5,0.5-2,0.5
			c-1.4,0-2.5-0.9-3.3-2.7c0.3-0.6,0.4-1.2,0.4-1.6c0-0.2-0.1-0.4-0.3-0.6c-1.1,0.3-2.2,0.3-3.2,1.3c-0.3-0.1-1.4,0.2-3.5,0.8
			c-2.1,0.5-3.5,1-4.4,1.4c-0.2,2.8-0.3,7-0.3,12.8c0,1.3,1.5,1.9,4.6,1.9c1,0,1.9,0.5,2.9,1.7c1,0,1.9,0.2,2.8,0.5
			c0.4-0.5,1-1.1,1.5-1.9l-1.2-1.1l2.7-4.3c2.8-0.1,4.1,2,4.1,6.4c0,1.1-0.1,2.4-0.3,4.1l1.3,2.3c-1.8,0.5-1.3,0.4-1.5,4.9
			c-1.5,0.8-2.8,1.2-3.7,1.2c-1.5,0-2.3-1.4-2.6-4.4c-0.6-0.5-1.4-0.8-2.5-0.9l-1.3-1.1c-0.9-0.1-2-0.5-3.2-1.3
			c-1.3-0.8-2.7-1.3-4.2-1.3c-1.2,0-2.4-0.5-4-1.4h-1.3c-1.4-1.3-3.3-2.2-5.8-2.8l-0.9-1.1c-2.1-0.5-4.7-1.4-8-2.4
			c-4.1-1.3-6.6-2.3-7.4-3c-0.1-1.8-1.3-2.9-3.7-3.1l-0.4-3.4c0.9-0.1,2.3-0.5,4.3-1.2c2-0.7,3.1-1.3,3.6-1.5c1.6,0.1,3.3-0.1,5-0.4
			c1.6-1.4,4.3-2.7,8-4c3.7-1.4,6.7-2.2,8.7-2.2l1.1-1c0.5-0.1,2.1-0.6,4.9-1.8s4.3-2,4.6-2.2c1.5-0.1,2.4-0.5,2.7-1.2
			c0.2-0.5,0.3-1.6,0.2-3.3l2.9-2.3L247.5,266.5z M225.2,288.5c-0.3-0.6-0.4-1.3-0.4-1.7c0-1,0.9-2.1,0.9-2.3l0.1-0.1
			c-0.9,0.4-2.3,0.7-4.3,1.1c-0.6,0.8-1.6,1.3-3,1.3c-0.4,0-2.2,1.7-2.5,2c-0.5,0.3-2.7-0.4-3.1-0.2c-0.2,0.2-0.5,0.5-1,0.7l1,0.9
			c0.5,0.5,1.3,0.7,2.2,0.8c1.8,0,3.1,1.4,3.2,1.4c0.4-0.1,0.8-0.1,1.1-0.1c0.8,0,1.4,0.3,1.8,0.9l0.1,0.3l0.2,0.2h0.1
			c1-0.1,1.8,0.3,2.5,1.1l0.2,0.3h0.3c0.1-0.1,0.2-0.1,0.3-0.1c0.3,0,0.8,0.2,1.4,0.6c-0.1,0-0.2-0.3-0.2-0.9v-1.1
			c-0.1-0.5-0.1-0.7-0.1-0.8c0-0.5,0.4-1,1-1.5C226.2,289.7,225.7,288.8,225.2,288.5z"/>
		<path d="M246.6,224.6l-11.3,9.5c-6.2,5.2-9.3,8.3-9.3,9.2c0,0.1,0.1,0.4,0.2,1c0.5,0.5,0.9,0.9,1.2,1.4c0.9,0,2.2,0.2,3.9,0.5
			c1.7,0.3,3,0.5,3.8,0.5c0.6,0,1.2-0.2,1.7-0.5c3.2,0.1,4.8-0.1,5-0.5c0.1-0.1,0.4-0.6,0.6-1.5c0.4-1.3,1-2.7,1.8-4.3l2.2,0.4
			c1,1,1.5,2.2,1.5,3.3c0,1.4-0.8,3.5-0.8,4.9c0,1,0.5,3.2,0.5,4.2c0,0.7,0,1.8-0.1,3.2c-0.1,1.7-0.1,3.1-0.1,4l-1.8,0.5
			c-0.9,0-1.7-0.6-2.5-1.9c-0.6-1-1-2.1-1.3-3.2c-0.6-0.5-1.6-0.5-3.1,0.2c-1-0.3-3-0.5-5.8-0.5c-2.8,0.1-4.7,0.3-5.5,0.5l-0.8-0.6
			c-1.5,0.3-3.3,0.4-5.6,0.3c-3.8-0.2-5.7-0.3-5.7-0.3c-3.1,0-5.1,0.1-6.1,0.2c-3,0.4-4.5,1.4-4.5,3c0,1.3-0.5,2.4-1.4,3.3
			c-2.6-0.1-3.9-1.3-3.9-3.5c0-0.8,0.2-1.8,0.5-3l-0.2-0.4c-0.1-1.2,0-2.8,0.4-5c-0.2-0.6-0.3-1.3-0.3-1.7c0-0.1,0.4-1.1,1-2.8
			c1.3-0.1,2.2,0,2.7,0.2l2.1,1.1c0.1,0.1,0.2,0.2,0.3,0.2c0.3,0,1.3,0.1,3.1,0.2c1.8,0.1,3.3,0.2,4.6,0.2c5.5,0,8.3-1.1,8.3-3.1
			c0-0.7,0.7-2.4,0.7-3.1c0-0.1-0.1-0.6-0.3-1.8l-3.2-3.1c-1.9-1.8-4.4-2.7-7.4-2.7c-3.6,0-5,2.9-6.7,5.3c0.2,0.8,0.3,1.6,0.3,2.4
			c0,1.2-1.4,1.2-1.8,2.2c-0.5,0.5-0.9,0.7-1.2,0.7c0.1,0-0.5-0.5-1.8-1.4c-0.6-1.2-1-2.5-1-3.9c0-3.1,0.9-5.9,2.7-8.6
			c2.1-3.1,4.6-4.8,7.7-4.8c2.1,0,4,0.2,5.6,0.6l0.6-0.6c2.9,1.2,4.9,2.4,6,3.8c0.5,0.7,1.4,1.7,2.7,3c0.7,0,1.4-0.2,2.2-0.5
			c0.8-0.9,2.2-2.1,4-3.5c3.8-3,6-4.8,6.7-5.4c2.7-2.6,4-4.9,4-6.9s1-3.1,2.9-3.1c1.5,0.4,2.6,4.4,2.3,9.6
			C247.1,222.5,246.9,223.5,246.6,224.6z"/>
		<path d="M207.8,171.9c-0.1,0.4-0.6,1.4-1.5,3c-0.7,1.4-1.1,2.3-1.1,2.8c0,1.4-0.3,2.6-0.7,3.8l0.8,3.9l1,0.9l0.3,1.6
			c2.8,2.9,5,4.6,6.4,5.2c0.8,0.4,3.5,0.9,8,1.4l1.2,1.1l0.9,0.1l1.1-1.1c0.4-0.1,1.4-0.2,2.9-0.2c2,0,4.9-1.7,8.8-5.1
			c3.9-3.5,5.8-6,5.8-7.7l-0.1-6.2c-0.5-0.5-1.1-1.7-2-3.9c-0.7-1.7-1.5-2.7-2.3-3l-1.5-2.2v-1.8l2.8-1c2.4,0.7,4.4,2.4,5.9,5.2
			c1.3,2.4,2,4.8,2,7.1c0,0.6,0.3,1.7,0.7,3.2c0.4,1.8,0.7,3.6,0.7,5.5l-1.1,1.3l0.1,1.3c0.1,2.8-1.2,5.9-3.9,9
			c-2.7,3.1-5.5,5-8.3,5.6c-1.3,1.5-3.3,2.5-6.2,2.8c-0.5,0.1-2.9,0.1-7.2,0.1c-3,0-6.6-1.2-10.9-3.5c-4.4-2.4-7.3-5-8.8-7.7
			l0.1-2.1l-0.1-1.4l-1.3-1.6l-0.1-2.2c-1-1.2-1.4-2.4-1.4-3.7c0-4.3,0.6-8.3,1.8-11.9c1.3-1.2,2.1-2,2.2-2.4c0.1-0.5,0-1-0.1-1.6
			c-0.1-0.9-0.1-1.4-0.1-1.7c0-2.3,2.9-3.5,8.6-3.5c2.2,0,4.1,0.8,5.8,2.5l-0.4,1.4c-1.2,1.3-2.3,2-3.6,2.2c-0.6,0.6-2.2,1.9-4.8,4
			L207.8,171.9z"/>
		<path d="M219.5,138c0.6-2.1,1-3.9,1-5.6c0-0.6-0.4-2-0.4-2.4c-0.5-1-0.7-2-0.7-3.1s0.7-4.2,0.7-5.4c0-1.3-0.7-4.2-0.7-5.6
			c0-0.5-0.5-0.7-1.6-0.9c-0.6-0.1-2.1-0.2-4.3-0.3c-1.8,0.1-4.5,0.1-8,0.2c-0.4,1.3-0.7,2.5-1,3.8c-0.5,1.7-1.4,2.5-2.8,2.4
			l-1.3-0.1c-0.9-1.6-1.3-6.8-1.3-15.6c0-2.2,0.9-4.2,2.6-6.3c1.4,3,2.2,4.7,2.5,5c0.9,1.2,8.1,1.7,21.5,1.7c1.7,0,3.4,0.4,5,1.1
			l1.2-1.4c0.8-0.1,1.8-0.1,3.1,0c1.5,0.1,2.6,0.2,3.1,0.2c1.7,0,2.7-0.5,3-1.5l0.5-3.2c0.5-1.3,1.3-2,2.8-2c0.8,0,1.6,1.4,2.4,4.3
			c0.8,2.5,1.2,4.4,1.2,5.6c0,1.1-0.9,3.5-0.9,4.5c0,1.2,0.7,4,0.7,5.1c0,2.1-0.7,3.1-2.2,3.1c-1.7,0-2.6-1.3-2.9-3.9
			c-0.8-1.3-1.6-2.2-2.4-2.8h-13.3l-1.6,1.5v12.8l-0.8,1.2c0.1,0.9,0.4,1.6,0.9,2.2c0.1,1.1-0.2,2.6-0.6,4.6c0.4,0.4,1,0.9,1.8,1.7
			l3-1.1c1.2,0.9,4.1,1.3,9,1.3c1.6,0,3-0.7,4.1-2.2c-0.1-1.4,0.6-3,2-4.5l2.3,0.8c0.5,1.3,0.8,2.5,0.9,3.9
			c-0.1-0.8-0.1,0.5-0.1,3.8c0,2.2,1.4,3.3,1.4,4.8c0,1.5-1.1,5.1-1.1,6.6c0,1.6-0.8,3-2.3,4c-2-0.8-3.1-1.6-3.1-2.5
			c-0.1-0.6,0.3-2.4,0.3-2.9c0,0-0.5-0.6-1.4-1.9l-1.7-0.3c-1.5,0.5-5.2,0.8-10.9,0.8c-1.5,0-5-1.5-6.5-1.5c-0.8,0-1.6,0.4-2.2,1.4
			c-1.3,0-3.1-0.3-5.4-0.7c-2.3-0.4-4-0.7-5.2-0.7c0,0.1,0,0.1,0,0.1c-0.8,0.8-1.6,1.3-2.2,1.3c-0.5,0-1.2-0.3-1.8-0.8
			c-0.1,0-0.2,0-0.3,0.1c0,0.7,0.3,2.2,0.3,2.4c0,1.9-0.8,3.3-2.5,4.3c-2.8-0.3-4.2-1.6-4.2-4c0-1.4,1-4.7,1-6.1
			c0-1.4-0.7-4.9-0.7-6.3c0-3.6,0.5-6.1,1.4-7.6l3.4,0.9c0.2,4.3,1.6,6.5,4.2,6.5c1.3,0,3.8-1,4.8-1s3.1,0.9,4,0.8L219.5,138z"/>
	</g>
</g>
<g>
	<path d="M52.1,653.3c1.8,0.6,3.4,0.9,5,0.9c0.6,0,1.8-0.3,2.2-0.3c0.9-0.4,1.8-0.6,2.8-0.6s3.8,0.6,4.8,0.6c1.2,0,3.8-0.6,5-0.6
		c0.4,0,0.6-0.5,0.8-1.4c0.1-0.6,0.2-1.8,0.2-3.8c-0.1-1.6-0.1-4-0.2-7.1c-1.1-0.3-2.2-0.6-3.4-0.9c-1.5-0.5-2.2-1.3-2.2-2.5
		l0.1-1.1c1.4-0.8,6.1-1.2,13.8-1.2c1.9,0,3.8,0.8,5.6,2.3c-2.6,1.3-4.2,2-4.5,2.2c-1,0.8-1.5,7.2-1.5,19.1c0,1.5-0.3,3-1,4.4l1.3,1
		c0.1,0.7,0.1,1.6,0,2.8c-0.1,1.4-0.2,2.3-0.2,2.7c0,1.5,0.5,2.4,1.4,2.6l2.9,0.5c1.2,0.4,1.8,1.2,1.8,2.5c0,0.7-1.3,1.4-3.8,2.2
		c-2.2,0.7-3.9,1-5,1c-1,0-3.1-0.8-4-0.8c-1,0-3.5,0.6-4.6,0.6c-1.8,0-2.8-0.6-2.8-2c0-1.5,1.1-2.3,3.4-2.6c1.1-0.7,1.9-1.4,2.5-2.2
		v-11.8l-1.4-1.4H59.8l-1-0.7c-0.8,0.1-1.4,0.3-2,0.8c-1,0.1-2.3-0.2-4.1-0.6c-0.3,0.4-0.8,0.9-1.5,1.6l1,2.6c-0.8,1-1.2,3.7-1.2,8
		c0,1.4,0.6,2.6,2,3.7c1.3-0.1,2.6,0.6,4,1.8l-0.7,2.1c-1.1,0.5-2.2,0.7-3.4,0.8c0.7-0.1-0.4-0.1-3.4-0.1c-2,0-3,1.3-4.2,1.3
		c-1.4,0-4.6-1-5.8-1c-1.4,0-2.6-0.7-3.5-2.1c0.7-1.8,1.4-2.7,2.2-2.8c0.6-0.1,2.2,0.2,2.6,0.2c0,0,0.6-0.4,1.7-1.3l0.2-1.5
		c-0.5-1.4-0.7-4.6-0.7-9.7c0-1.4,1.4-4.4,1.4-5.8c0-0.7-0.4-1.4-1.3-2c0-1.1,0.2-2.7,0.6-4.8c0.4-2.1,0.6-3.6,0.6-4.6
		c-0.1,0-0.1,0-0.1,0c-0.7-0.7-1.1-1.4-1.1-2c0-0.5,0.2-1,0.7-1.6c0-0.1,0-0.2-0.1-0.2c-0.6,0-1.9,0.2-2.2,0.2c-1.7,0-3-0.7-3.8-2.2
		c0.2-2.5,1.4-3.8,3.6-3.8c1.3,0,4.2,0.9,5.4,0.9c1.2,0,4.3-0.6,5.6-0.6c3.2,0,5.4,0.4,6.8,1.3l-0.8,3c-3.8,0.2-5.8,1.4-5.8,3.8
		c0,1.2,0.9,3.4,0.9,4.2s-0.8,2.8-0.7,3.5L52.1,653.3z"/>
	<path d="M132.4,661.3c-0.1,0.6-0.5,2.2-1.3,4.9c-0.1,0.2-0.1,0.6,0,1c-0.8,0.6-1.4,1.4-1.9,2.4c-1-0.1-2.6,1.4-4.4,4.4
		c-1.7,0.3-3,1.6-4.2,2.6c-2.3,1.5-5.8,2.3-10.3,2.3c-0.5,0-1.4-0.2-2.9-0.8c-1.4-0.6-2.6-1-3.3-1.4h-0.2c-1.9,0.1-3.4-1.2-4.9-2.2
		l-0.3-1.3c-1.1-0.7-2.2-2-3.3-3.7c-1.1-1.9-1.6-3.4-1.4-4.6c-1-0.6-1.4-2.1-1.4-4.4c-0.9-1.4-1.3-3-1.3-4.8c0-0.6,0.2-1.7,0.7-3.2
		c0.4-1.3,0.6-2.4,0.5-3.3c1.3-1,1.9-3.8,2.6-4.8c5-6,11-9,17.9-9c0.8,0,1.9,0.2,3.4,0.6c1.5,0.4,2.6,0.6,3.2,0.6l1.5,1.7
		c0.5,0.4,1.2,0.6,2.2,0.6c0.7,1,2,2,3.8,3.2c1.7,1,2.7,2.6,3.2,4.6c0.6,2.4,1.2,4,1.8,4.8l-0.1,1.5l0.1,3.7c0.7,0.9,1.1,1.9,1,3
		L132.4,661.3z M123.7,653.9c0.1-1.3,0.2-2.2,0.2-2.7c0-0.6-0.8-1.8-2.3-3.8c-1.4-1.7-2.6-3.1-3.6-4.2l-1.4-0.1
		c-0.6-0.6-1.3-1.4-2.1-2.8c-0.9-0.4-1.8-0.6-2.9-0.6c-1.4,0-2.2,0.7-2.4,2.1c-0.8,0.4-1.5,0.6-2.2,0.6c-1.5,1-2.2,1.8-2.1,2.7
		c-0.3,0.7-1.1,1.8-2.5,3.1c-0.8,0.8-1.2,1.8-1.2,3c0,0.9,0.4,1.9,1.3,3c-0.6,1.3-1,2.7-1.1,4.2v4.4c0,0.8,0.4,1.7,1.2,2.6
		c0.1,1.1,0.3,2.3,0.9,3.5c0.7,1.5,1.4,2.2,2.3,2.1l1.3,1.2c0.6,0.2,1.4,0.6,2.4,1.4c1,0.7,1.8,1,2.3,1c0.7,0,2.4-0.8,5.1-2.5
		c2.8-1.7,4.2-2.8,4.5-3.4c0.4-1,1.1-2.5,2.2-4.4c0-0.7,0.2-1.4,0.4-1.9c-0.4-1-0.6-2.7-0.5-5.2
		C123.5,656.7,123.6,655.6,123.7,653.9z"/>
	<path d="M151.1,667.4l1,0.8c0.4,0.7,0.6,1.5,0.7,2.5c1.2,1.5,2.8,1,4.4,2.2h1.2c0.6,0.4,1.7,0.6,3.4,0.5l2.2-0.1
		c4.7-3.3,7.1-7.8,7.1-13.4c0-0.9-0.7-3.1-0.7-4.1c0-1,1-3.1,1-3.8l-0.4-0.3l-0.6-0.7c0.2-1.8,0.4-2.6,0.4-2.2c0-3.8-0.2-6.1-0.6-7
		c-0.1-0.2-0.6-0.5-1.6-0.6c-0.9-0.1-1.6-0.3-2-0.7c-0.7-0.6-1.1-1.7-1-3.2c0.7-0.7,1.7-1,2.8-1c0.7,0,1.4-0.2,2-0.8
		c0.9,0,2-0.4,3.2-1.1c0.7,1.3,1.7,1.9,2.9,2c2.4,0.2,3.6,0.2,3.7,0.2c1.2,0.3,1.8,1.1,1.8,2.3c0,0.6-0.4,1.1-1.3,1.4
		c-0.4,0.2-1.2,0.5-2.4,0.7c-1.9,0.4-2.8,0.9-2.7,1.4c0.4,2.8,0.6,7.5,0.6,14c0,1.7-0.2,3.8-0.6,6.5c-0.4,2.6-0.6,4.4-0.6,5.5
		l-0.2,1.5c-0.7,0.7-1.7,1.8-2.8,3.4c-0.7,1.1-2.2,2.2-4.4,3.3c-1,0-2.2,0.2-3.5,0.6c-1.7,0.5-3.3,0.7-4.6,0.7c-1,0-1.8,0.3-2.3,0.9
		l-1.4,0.2c-0.7,0-1.5-0.2-2.6-0.6c-1.2-0.5-2.1-0.8-2.5-0.9c-0.8-0.3-1.8-1-3.1-2.1c-2-2.8-3.2-4.5-3.6-5.1
		c-0.9-1.8-1.4-3.8-1.5-6.3c-0.1-0.9-0.1-2.9-0.1-6.1c0-1.3-1.4-4.2-1.4-5.6c0-0.7,0.2-1.8,0.4-3.2c0.2-1.4,0.4-2.5,0.4-3.2l-0.6-1
		l-0.1-1.9c-0.4-0.5-0.9-0.9-1.4-1.3l-2.6-0.1c-0.6-1.4-0.9-2.4-0.9-3.1c0-2,2.4-2.5,4.1-3.1c0.9,0.1,2.1,0.1,3.6-0.1
		c1.8-0.2,3-0.2,3.5-0.2c1,0,3.5,0.9,4.6,0.9c2.1,0,3.1,0.8,3.1,2.5c0,1-0.5,1.8-1.4,2c-0.4,0.2-1.3,0.2-2.6,0.2
		c-0.6,0-0.7,0-0.6-0.1v0.2c0,0-0.1,0.4-0.2,1.3l-0.8,0.8c0,0.2-0.1,3.1-0.2,8.6c0.9,1.4,1.3,2.6,1.3,3.4c0,0.6-0.2,1.3-0.4,2.1
		c-0.4,1.1-0.6,1.8-0.6,2.1c0.8,1.4,1.2,2.6,1.2,3.4c0,0.7-0.4,1.2-1.1,1.4c-0.7,0.2-1.1,0.3-1.1,0.3c0,0.1,0.9,0.6,2.7,1.5
		L151.1,667.4z"/>
	<path d="M210.9,670.9l-0.5,1.5c-0.6,1.2-1.8,2.4-3.7,3.6c-2,1.4-3.8,1.9-5.2,1.8c-0.7,0.6-1.4,0.8-2.3,0.8c-0.7,0-1.8-0.2-3-0.6
		c-1.3-0.4-2.2-0.6-3-0.7c-0.6-0.9-1.2-1.4-1.8-1.4c-0.3,0-1.5,0.3-2.2,0.3c-1.3,0-2.6-1-2.6-2.2v-6.6c0.6-0.9,1-1.6,1-2.2
		c0-1,0.6-2,1.7-2.7c1,0.6,1.8,1.3,2.4,2.3c0.4,1,0.9,2,1.4,3c1.2,2.5,3,4.5,5.5,5.9c1.1-0.3,2.3-0.4,3.5-0.2
		c-0.1-0.1-0.1-0.3-0.2-0.6c0.5-0.6,1-1.3,1.8-1.8c1.5-1.3,1.5-3,1.8-4.6c-0.5-1-1.3-2.5-2.5-4.4c-1.1-1.5-3.7-2.3-7.6-2.2l-0.9-1
		c-2.3-0.2-4.3-2-6-5.3c-1.4-2.7-2-5.3-2-7.7c0-0.4,0.2-0.8,0.4-1.1c2.2-3.2,4.1-5.4,5.5-6.6c2.4-2.2,5-3.2,8-3.2c1,0,3,0.9,3.7,1
		l1,0.9l0.7-0.2c0.4-0.4,0.9-0.6,1.3-0.6c1.5,0,3.1,1.7,3.1,3.2c0,0.4-0.2,0.8-0.4,1.1c-0.1,1-0.2,2.2-0.1,3.8
		c0.1,2.2,0.2,3.4,0.2,3.8l-0.9,1.6c-2.2,0.2-2.8,0-3.7-1.9c-1.2-2.9-1.9-4.5-2.1-4.8c-1-1.5-2.5-2.3-4.3-2.3
		c-3.2,0-4.8,1.4-4.8,4.2c0,0.2,0.1,1.1,0.2,2.7c0.7,0.8,1,1.8,1,3.2c0,1.7,2.9,2.6,8.6,2.6c2.4,0,4.4,1.4,6,4.2
		c1.4,2.5,2,4.8,1.8,7.1l0.3,0.4c0,1.8-0.1,3.4-0.3,4.6C211.3,669.9,210.9,670.3,210.9,670.9z"/>
	<path d="M252.1,676.7l-1.4-0.1c-0.1,0-0.2,0.1-0.4,0.2l-0.2,0.2c-0.8,0.6-1.4,0.9-1.8,0.9h-8.6c-0.6,0-3,1.2-4.3,1.2
		c-1.4,0-3.8-1.2-4.8-1.2c-1.4,0-2.3,0.4-2.7,1.2h-4.9c-1.5,0-2.9-0.2-4.1-0.7c-1.7-0.6-2.5-1.6-2.5-2.8c0-1.7,1.4-2.8,4.3-3.4
		c0.7-1.1,1.1-1.9,1.1-2.4V660c0-1-0.1-2.4-0.2-4.2s-0.2-3.3-0.2-4.3c0-0.2-0.2-1-0.4-2.4c-0.2-1.5-0.3-2.6-0.3-3.5
		c0-2.1-0.8-3.6-2.4-4.6c-0.2-0.6-0.7-1.2-1.5-1.6c-0.8-0.5-1.2-1.1-1.2-1.9c0-1.5,1-2.2,2.9-2.2c2.3,0,3.3,0,2.8,0.1
		c1,0.7,1.7,1.1,2.1,1.1c0.6,0,1.5-0.2,2.9-0.4c1.2-0.2,2.2-0.3,3-0.2c0.7-0.4,1.3-0.6,1.5-0.6h11.6c4.4,0,6.8,0.7,7.3,2.1
		c0.1,0.2,0.2,0.8,0.2,1.7c0,0.5,0.4,1,1.1,1.8v1.6c0.9,0.9,1.4,1.7,1.4,2.5c0,1.4-0.7,2.2-2.2,2.2c-0.8,0-1.5-0.5-2.2-1.4
		c-1.9-0.4-3.2-2.1-4.6-3.4c-2-1.8-5.7-2.6-11-2.6c-0.7,0-1.4,0.3-2.2,1l-0.6,0.6v5.4c0,0.2-0.1,1.3-0.2,3.3
		c-0.1,1.4-0.1,2.5,0.1,3.2c0.2,1.2,1.4,1.8,3.6,1.8c1.9,0,3.7-1,5.4-1.7c1.8-3.8,3-5.7,3.8-5.7c1.2,0,2.9,1.4,2.9,2.8
		c0,0.7-0.6,2.6-0.6,3.3c0,0.4,0.6,1.8,0.6,2.5v4.2c0,0.1-0.2,1.4-0.7,4.1l-1.4,0.1c-1.5,0.1-2.9-1.5-4-4.6l-0.2-0.6
		c-0.9,0-3.4-0.4-4.4-0.4c-2.6,0-3.9,0-4.1,0.1c-0.6,0.2-1,1-1,2.4c0,7.8,0.4,12,1.2,12.6l2.7,0.2h7.8c0.7,0,2.9-1.4,3.9-1.4
		c3.9-4.7,6.5-7.1,7.8-7.1c1.2,0,1.8,1.5,1.8,2.6c0,0.9-0.2,2.1-0.6,3.7c-0.4,1.6-0.6,2.8-0.6,3.7L252.1,676.7z"/>
</g>
</svg>
