<?xml version="1.0" encoding="utf-8"?>
<!-- Generator: Adobe Illustrator 27.2.0, SVG Export Plug-In . SVG Version: 6.00 Build 0)  -->
<svg version="1.1" id="Layer_1" xmlns="http://www.w3.org/2000/svg" xmlns:xlink="http://www.w3.org/1999/xlink" x="0px" y="0px"
	 viewBox="0 0 595.28 841.89" style="enable-background:new 0 0 595.28 841.89;" xml:space="preserve" fill="white">
<g>
	<g>
		<g>
			<g>
				<path d="M194.24,674.8c0-0.83,0.24-1.61,0.71-2.35c0.47-0.74,1.15-1.11,2.04-1.11h1.68c0.47,0.65,0.88,1.27,1.24,1.86
					c0.3,0.47,0.58,0.94,0.84,1.42c0.26,0.47,0.4,0.79,0.4,0.97v2.65c0,1.24,0.35,2.22,1.06,2.93c0.71,0.71,1.68,1.06,2.92,1.06
					h2.66c1.6,0,3.34,0.2,5.23,0.58c1.89,0.39,3.69,0.75,5.4,1.11h4.87h4.96h2.48h0.98c0.18,0,0.49-0.05,0.93-0.13
					c0.44-0.09,0.88-0.24,1.33-0.44s0.83-0.46,1.15-0.75c0.33-0.29,0.49-0.68,0.49-1.15v-2.48v-2.65v-2.48
					c0-0.17-0.18-0.66-0.53-1.46c-0.35-0.8-0.77-1.67-1.24-2.61c-0.47-0.94-0.97-1.88-1.51-2.79c-0.53-0.92-0.97-1.58-1.33-1.99
					c-0.41-0.47-0.81-0.94-1.2-1.42c-0.38-0.47-0.57-0.92-0.57-1.33c-0.83-0.35-1.32-0.6-1.46-0.75c-0.15-0.15-0.22-0.46-0.22-0.93
					c0-0.35,0.19-0.85,0.58-1.5c0.39-0.65,0.75-0.97,1.11-0.97c0.18,0,0.87,0.25,2.08,0.75c1.21,0.51,2.57,1.11,4.07,1.82
					c1.51,0.71,2.95,1.47,4.34,2.3c1.39,0.83,2.32,1.6,2.79,2.3c0.24,0.18,0.4,0.7,0.49,1.55c0.09,0.85,0.16,1.76,0.22,2.7
					c0.06,1.06,0.09,2.27,0.09,3.63v2.48v1.68c0,1.24-0.12,2.48-0.35,3.72c-0.24,1.24-0.21,2.07,0.09,2.48l0.27,1.15l0.97,4.25
					c0,0.18-0.04,0.55-0.13,1.11c-0.09,0.56-0.21,1.17-0.35,1.82c-0.15,0.65-0.27,1.26-0.35,1.81c-0.09,0.56-0.13,0.93-0.13,1.11
					c0,0.47,0.06,0.92,0.18,1.33c0.12,0.41,0.24,0.77,0.35,1.06c0.18,0.36,0.33,0.71,0.44,1.07c0,0.65-0.15,1.14-0.44,1.46
					c-0.3,0.32-0.65,0.56-1.06,0.71c-0.41,0.15-0.83,0.24-1.24,0.26c-0.41,0.03-0.74,0.05-0.97,0.05c-1.24,0-2.01-0.4-2.3-1.2
					c-0.29-0.79-0.54-1.67-0.75-2.61c-0.21-0.94-0.56-1.81-1.06-2.61c-0.5-0.8-1.58-1.2-3.23-1.2h-7.44l-6.64-0.71h-3.19
					c-0.23,0-0.69-0.03-1.37-0.09c-0.68-0.06-1.4-0.15-2.17-0.27c-0.89-0.12-1.83-0.26-2.84-0.44c-0.47,0-0.91,0.14-1.33,0.4
					c-0.41,0.26-0.8,0.4-1.15,0.4h-0.97c-1.65,0-2.79,0.25-3.41,0.75c-0.62,0.5-1.09,1.06-1.42,1.68c-0.32,0.62-0.69,1.18-1.11,1.68
					s-1.24,0.75-2.48,0.75c-0.59,0-1.11-0.13-1.55-0.4c-0.44-0.27-0.81-0.58-1.11-0.93c-0.3-0.35-0.5-0.71-0.62-1.06
					c-0.12-0.36-0.18-0.62-0.18-0.8V674.8z"/>
				<path d="M193.8,636.17c0-0.35,0.03-0.69,0.09-1.02c0.06-0.32,0.1-0.71,0.13-1.15c0.03-0.44,0.07-0.97,0.13-1.6
					c0.06-0.62,0.09-1.43,0.09-2.43l-0.71-2.93c-0.12-0.47-0.24-0.92-0.35-1.33c-0.12-0.35-0.21-0.71-0.27-1.06
					c-0.06-0.36-0.09-0.62-0.09-0.8c0-0.41,0.15-0.93,0.44-1.55c0.3-0.62,0.62-1.16,0.98-1.64c0.77-0.41,1.68-0.68,2.74-0.8
					c1.06-0.12,1.98-0.35,2.75-0.71c0.18-0.18,0.52-0.39,1.02-0.62c0.5-0.23,0.99-0.47,1.46-0.71c0.65-0.24,1.3-0.53,1.95-0.88
					c1.12,0,1.68,0.74,1.68,2.21c0,0.36-0.28,0.89-0.84,1.6c-0.56,0.71-1.18,1.62-1.86,2.75c-0.68,1.12-1.3,2.45-1.86,3.99
					c-0.56,1.54-0.84,3.36-0.84,5.49l0.44,1.69c0.53,0.35,0.97,0.69,1.33,1.02c0.35,0.32,0.65,0.48,0.89,0.48h0.8
					c0.47,0.12,0.92,0.24,1.33,0.36c0.35,0.12,0.71,0.21,1.06,0.26s0.62,0.09,0.8,0.09h6.38c0.89,0,1.73-0.18,2.53-0.53
					c0.8-0.36,1.19-0.92,1.19-1.68c0-0.18-0.03-0.47-0.09-0.89c-0.06-0.41-0.15-0.86-0.26-1.33c-0.12-0.53-0.24-1.09-0.35-1.68V629
					c0-0.47-0.12-0.9-0.35-1.28c-0.24-0.38-0.49-0.75-0.75-1.11c-0.26-0.35-0.52-0.69-0.75-1.02c-0.24-0.32-0.35-0.66-0.35-1.02
					c0-0.17,0.12-0.38,0.35-0.62c0.24-0.24,0.5-0.47,0.8-0.71l1.06-0.89h5.85c1.65,0,2.48,0.74,2.48,2.21c0,0.65-0.13,1.22-0.4,1.69
					c-0.26,0.47-0.54,0.88-0.84,1.24c-0.24,0.65-0.5,1.19-0.8,1.64c-0.29,0.44-0.44,0.99-0.44,1.64v1.42v1.77
					c0,1.47,0.26,2.42,0.8,2.83s1.6,0.62,3.19,0.62h2.21c0.83-0.17,1.66-0.29,2.48-0.35c0.83-0.06,1.59-0.16,2.3-0.31
					c0.71-0.14,1.31-0.43,1.81-0.84c0.5-0.41,0.84-1.07,1.02-1.95V629c0-0.82-0.16-1.73-0.49-2.7c-0.33-0.97-0.75-1.96-1.28-2.97
					c-0.35-1-0.68-1.94-0.98-2.79c-0.29-0.85-0.44-1.64-0.44-2.34c0.18-0.24,0.39-0.47,0.62-0.71c0.18-0.18,0.35-0.36,0.53-0.53
					c0.18-0.18,0.35-0.27,0.53-0.27c0.41,0,0.8,0.15,1.15,0.44c0.35,0.3,0.71,0.65,1.06,1.07c0.77,0.83,1.55,1.42,2.35,1.77
					c0.8,0.36,1.54,0.7,2.21,1.02c0.68,0.33,1.24,0.73,1.68,1.2c0.44,0.47,0.66,1.18,0.66,2.13c0,0.36-0.04,0.68-0.13,0.97
					c-0.09,0.3-0.21,0.61-0.35,0.93s-0.26,0.71-0.35,1.15c-0.09,0.44-0.13,0.99-0.13,1.64l0.26,8.59l0.71,3.01v4.69v2.66l0.53,1.77
					l0.18,2.66c0,0.29-0.12,0.62-0.35,0.97c-0.24,0.36-0.52,0.68-0.84,0.97c-0.33,0.3-0.65,0.55-0.97,0.75
					c-0.33,0.21-0.58,0.31-0.75,0.31c-1.47,0-2.21-1.09-2.21-3.28c-0.18-0.47-0.38-0.94-0.62-1.42c-0.41-0.89-0.71-1.62-0.89-2.22
					c-0.23-1.24-0.62-2.08-1.15-2.52c-0.53-0.44-1.77-0.67-3.72-0.67c-0.29,0-0.6-0.1-0.93-0.31c-0.32-0.21-0.66-0.1-1.02,0.31
					c-0.3,0-0.6,0.03-0.93,0.09c-0.33,0.06-0.63,0.14-0.93,0.26c-0.35,0.12-0.74,0.24-1.15,0.35h-1.68h-3.19h-2.21l-6.2-0.71h-1.51
					c-0.35,0-0.59-0.04-0.71-0.13c-0.12-0.09-0.35-0.13-0.71-0.13h-4.7h-2.48h-2.66c-0.53,0-0.96,0.3-1.28,0.89
					c-0.33,0.59-0.49,1.04-0.49,1.33v2.48c0,1.12-0.47,1.94-1.42,2.44c-0.94,0.51-2.04,0.75-3.28,0.75c-0.35,0-0.68-0.16-0.97-0.48
					c-0.29-0.33-0.44-0.67-0.44-1.02v-2.93v-1.77c0-0.35-0.04-0.9-0.13-1.64c-0.09-0.74-0.13-1.67-0.13-2.79V636.17z"/>
				<path d="M190.61,582.23c0-1.3,0.28-2.27,0.84-2.92c0.56-0.65,1.28-1.11,2.17-1.38c0.89-0.26,1.85-0.44,2.88-0.53
					c1.03-0.09,2.02-0.19,2.97-0.31h3.19c0.65-0.35,1.52-0.81,2.61-1.37c1.09-0.56,2.2-0.84,3.32-0.84h2.21
					c0.18,0,0.71-0.15,1.6-0.44c0.88-0.29,1.86-0.63,2.92-1.02c1.06-0.39,2.08-0.73,3.06-1.02c0.98-0.29,1.64-0.44,1.99-0.44
					c1.12,0,2.61-0.14,4.47-0.44c1.86-0.29,3.67-0.67,5.45-1.15c1.77-0.47,3.31-1.02,4.6-1.64c1.3-0.62,1.95-1.28,1.95-1.99
					c0-0.83,0.09-1.47,0.26-1.95c0.18-0.47,0.27-0.88,0.27-1.24c0-0.18,0.03-0.49,0.09-0.93c0.06-0.44,0.18-0.92,0.35-1.42
					c0.18-0.5,0.43-0.93,0.75-1.28c0.33-0.35,0.75-0.53,1.28-0.53c1.18,0,2.01,0.41,2.48,1.24c0.47,0.83,0.71,1.8,0.71,2.93
					l-0.26,5.94v2.48v4.43v1.95l0.26,2.48c0,0.36-0.03,0.93-0.09,1.73c-0.06,0.8-0.3,1.2-0.71,1.2c-0.83,0-1.51-0.37-2.04-1.11
					c-0.53-0.74-0.97-1.61-1.33-2.61c-0.29-0.83-0.62-1.52-0.97-2.08c-0.35-0.56-0.94-0.84-1.77-0.84c-0.18,0-0.62,0.07-1.33,0.22
					c-0.71,0.14-1.46,0.32-2.26,0.53c-0.8,0.21-1.51,0.44-2.13,0.71c-0.62,0.26-0.93,0.52-0.93,0.75c-0.59,0.18-1.24,0.31-1.95,0.4
					s-1.34,0.21-1.9,0.36c-0.56,0.14-0.99,0.38-1.28,0.71c-0.3,0.32-0.39,0.81-0.27,1.46v3.01c0,0.18,0,0.52,0,1.02
					s0.03,1.02,0.09,1.55c0.06,0.54,0.13,1.05,0.22,1.55c0.09,0.51,0.22,0.85,0.4,1.02c0.35,0.77,0.87,1.08,1.55,0.93
					c0.68-0.15,1.4-0.22,2.17-0.22c0.24,0.18,0.7,0.44,1.37,0.8c0.68,0.35,1.41,0.69,2.17,1.02c0.77,0.32,1.48,0.6,2.13,0.84
					c0.65,0.24,1.06,0.35,1.24,0.35c0.71,0,1.21-0.19,1.51-0.58c0.3-0.38,0.58-0.81,0.84-1.28c0.26-0.47,0.64-0.9,1.11-1.28
					c0.48-0.38,1.27-0.58,2.39-0.58c0.35,0,0.64,0.12,0.84,0.36c0.21,0.24,0.35,0.52,0.44,0.84s0.15,0.65,0.18,0.97
					c0.03,0.33,0.04,0.58,0.04,0.75c0.18,0,0.29,0.06,0.35,0.18c0.06,0.12,0.09,0.28,0.09,0.48c0,0.21-0.15,0.49-0.44,0.84
					c0,0.24,0,0.55,0,0.93s-0.03,0.78-0.09,1.2l-0.18,1.59c0,0.77,0.09,1.39,0.26,1.86c0.18,0.48,0.26,1.09,0.26,1.86
					c0,0.83,0.05,1.42,0.13,1.77c0.09,0.36,0.18,0.6,0.27,0.75c0.09,0.14,0.16,0.25,0.22,0.31c0.06,0.06,0.09,0.17,0.09,0.35
					c0,0.3-0.03,0.81-0.09,1.55c-0.06,0.74-0.16,1.49-0.31,2.26c-0.15,0.77-0.35,1.43-0.62,2c-0.27,0.56-0.58,0.84-0.93,0.84
					c-1.12,0-2.07-0.34-2.84-1.02c-0.77-0.68-1.15-1.58-1.15-2.7l-0.44-1.69c0-0.12-0.1-0.33-0.31-0.66
					c-0.21-0.32-0.46-0.66-0.75-1.02c-0.29-0.35-0.6-0.72-0.93-1.11c-0.32-0.39-0.58-0.69-0.75-0.93c-1.47-0.35-3.08-0.98-4.83-1.9
					c-1.74-0.92-3.41-1.76-5-2.53c-1-0.35-2.05-0.81-3.14-1.37c-1.09-0.56-2.02-1.08-2.79-1.55c-1.12-0.59-2.21-1.09-3.28-1.51
					c-1.06-0.41-2.14-0.79-3.23-1.15c-1.09-0.35-2.2-0.74-3.32-1.15c-1.12-0.41-2.27-0.88-3.46-1.42c-0.88-0.41-1.84-0.74-2.88-0.97
					c-1.03-0.24-2.09-0.46-3.19-0.66c-1.09-0.21-2.2-0.47-3.32-0.8c-1.12-0.32-2.24-0.75-3.36-1.28c-0.3-0.35-0.65-0.74-1.07-1.15
					c-0.41-0.41-0.79-1-1.15-1.77V582.23z M206.82,583.3c0,0.41,0.18,0.78,0.53,1.11c0.35,0.33,0.75,0.6,1.2,0.84
					c0.44,0.24,0.88,0.41,1.33,0.54c0.44,0.12,0.75,0.17,0.93,0.17c0.53,0,0.93,0,1.2,0c0.27,0,0.5,0.03,0.71,0.09
					c0.21,0.06,0.49,0.13,0.84,0.22c0.35,0.09,0.92,0.22,1.68,0.4h0.71c0.35,0,0.7-0.26,1.02-0.79c0.33-0.53,0.49-1,0.49-1.42
					c0-0.18,0-0.45,0-0.84s-0.03-0.77-0.09-1.15c-0.06-0.39-0.18-0.73-0.35-1.02c-0.18-0.29-0.44-0.44-0.79-0.44
					c-0.77,0-1.36,0.21-1.77,0.62c-0.41,0.41-0.83,0.62-1.24,0.62h-3.9c-0.35,0-0.86,0.1-1.51,0.31
					C207.14,582.75,206.82,583,206.82,583.3z"/>
				<path d="M191.85,524.57c0-1.18,0.46-2.29,1.37-3.32c0.92-1.03,1.76-1.96,2.53-2.79c1.42-0.47,2.48-1.21,3.19-2.21
					c0.41-0.35,0.86-0.71,1.33-1.06s1.03-0.59,1.68-0.71c0-0.24,0.25-0.47,0.75-0.71c0.5-0.24,1.09-0.44,1.77-0.62
					c0.68-0.18,1.31-0.33,1.9-0.44c0.59-0.12,0.97-0.18,1.15-0.18c0.83,0,1.74,0.15,2.75,0.44c1,0.3,2.01,0.67,3.01,1.11
					c1,0.44,1.96,0.92,2.88,1.42c0.92,0.5,1.67,0.93,2.26,1.28c0.41,0.24,0.74,0.55,0.97,0.93c0.24,0.39,0.46,0.75,0.67,1.11
					c0.21,0.36,0.49,0.67,0.84,0.93c0.35,0.27,0.83,0.4,1.42,0.4c0.65,0,1.51-0.18,2.57-0.53c1.06-0.35,2.13-0.8,3.19-1.33
					c1.06-0.53,2.01-1.08,2.83-1.64c0.83-0.56,1.33-1.02,1.51-1.37c0.47-0.71,1.06-1.34,1.77-1.9c0.71-0.56,1.42-1.15,2.13-1.77
					c0.71-0.62,1.34-1.28,1.91-1.99c0.56-0.71,0.93-1.53,1.11-2.48c0.12-0.35,0.34-0.92,0.67-1.68c0.33-0.77,0.69-1.36,1.11-1.77
					c0.35-0.35,0.6-0.54,0.75-0.58c0.15-0.03,0.46,0.02,0.93,0.13c0.65,0.18,1.12,0.61,1.42,1.29c0.3,0.68,0.49,1.42,0.58,2.21
					c0.09,0.79,0.12,1.52,0.09,2.17c-0.03,0.65-0.07,1.03-0.13,1.15c-0.35,0.41-0.53,0.96-0.53,1.64c0,0.68-0.06,1.23-0.18,1.64
					c-0.95,1.6-1.71,2.72-2.3,3.37c-0.59,0.65-1.15,1.42-1.68,2.3c-0.18,0.35-0.49,0.8-0.93,1.33c-0.44,0.53-0.96,1.11-1.55,1.73
					c-0.59,0.62-1.21,1.24-1.86,1.86c-0.65,0.62-1.24,1.2-1.77,1.73c-0.89,0.71-1.74,1.32-2.57,1.82c-0.83,0.5-1.61,0.94-2.35,1.33
					c-0.74,0.39-1.42,0.75-2.04,1.11s-1.11,0.74-1.46,1.15c-0.47,0.83-0.92,1.43-1.33,1.81c-0.41,0.39-0.62,0.99-0.62,1.82
					c0,0.71,0.22,1.26,0.66,1.64c0.44,0.38,0.96,0.68,1.55,0.88c0.59,0.21,1.21,0.34,1.86,0.4c0.65,0.06,1.18,0.09,1.6,0.09
					l4.16-0.98h1.77c1.42,0,2.48-0.45,3.19-1.37c0.71-0.91,1.3-1.9,1.77-2.97c0.48-1.06,0.93-2.05,1.37-2.97
					c0.44-0.91,1.11-1.37,1.99-1.37c0.41,0,0.77,0.21,1.06,0.62c0.3,0.41,0.44,0.8,0.44,1.15v3.19l-0.71,4.96v1.95v4.16v1.51v3.46
					c0,0.17-0.04,0.75-0.13,1.72c-0.09,0.98-0.24,2.01-0.44,3.1c-0.21,1.09-0.5,2.08-0.89,2.97c-0.38,0.89-0.9,1.33-1.55,1.33
					c-0.18,0-0.35-0.09-0.53-0.26c-0.18-0.18-0.35-0.39-0.53-0.62c-0.24-0.24-0.44-0.53-0.62-0.89c0-0.18,0.03-0.44,0.09-0.79
					c0.06-0.36,0.12-0.71,0.18-1.07c0.06-0.41,0.12-0.85,0.18-1.33v-1.77c0-1.18-0.34-2.17-1.02-2.97c-0.68-0.8-1.4-1.2-2.17-1.2
					h-9.3H213.2l-6.38-0.71c-0.59,0.18-1.3,0.29-2.13,0.35c-0.83,0.06-1.61,0.17-2.35,0.31c-0.74,0.15-1.4,0.41-1.99,0.8
					c-0.59,0.38-0.97,0.96-1.15,1.73v3.45c0,0.65-0.06,1.3-0.18,1.95c-0.12,0.65-0.33,1.26-0.62,1.81c-0.3,0.56-0.71,1.02-1.24,1.38
					c-0.53,0.35-1.24,0.53-2.13,0.53c-0.18,0-0.37-0.13-0.58-0.4c-0.21-0.27-0.4-0.55-0.58-0.85c-0.24-0.35-0.44-0.77-0.62-1.24
					l-0.71-14.97v-9.13c0-0.18-0.03-0.5-0.09-0.97c-0.06-0.47-0.15-0.94-0.27-1.42c-0.12-0.59-0.23-1.21-0.35-1.86V524.57z
					 M200.88,532.98c0.06,0.24,0.12,0.5,0.18,0.8c0.12,0.3,0.22,0.62,0.31,0.98c0.09,0.35,0.28,0.74,0.58,1.15
					c0,0.41,0.19,0.81,0.58,1.2c0.39,0.38,0.99,0.58,1.82,0.58h1.5h3.46h1.51c0.48,0,0.9,0.12,1.28,0.35
					c0.39,0.24,0.75,0.35,1.11,0.35l0.18-0.35c0.12-0.12,0.22-0.21,0.31-0.27c0.09-0.06,0.28-0.09,0.58-0.09
					c0.59,0.18,1.14,0.12,1.64-0.18c0.5-0.29,0.94-0.71,1.33-1.24c0.39-0.53,0.68-1.11,0.89-1.72c0.21-0.62,0.31-1.14,0.31-1.55
					c-0.24-0.53-0.47-1.06-0.71-1.59c-0.18-0.47-0.36-0.9-0.53-1.28c-0.18-0.39-0.26-0.72-0.26-1.02l0.71-1.77
					c0-0.77-0.31-1.42-0.93-1.95c-0.62-0.53-1.33-0.96-2.13-1.28c-0.79-0.33-1.56-0.58-2.3-0.75c-0.74-0.18-1.23-0.32-1.46-0.44
					l-2.48,0.53c-0.41,0-0.81,0.04-1.19,0.13c-0.39,0.09-0.81,0.37-1.29,0.84c-0.35,0-0.88,0.05-1.59,0.14
					c-0.71,0.09-1.24,0.37-1.6,0.84c0,0.18-0.09,0.6-0.26,1.28c-0.18,0.68-0.38,1.42-0.62,2.21c-0.23,0.8-0.44,1.6-0.62,2.39
					C200.97,532.05,200.88,532.63,200.88,532.98z"/>
				<path d="M193,491.44c0-0.77,0.03-1.42,0.09-1.95c0.06-0.53,0.3-1.03,0.71-1.51c0.47-0.77,0.9-1.25,1.28-1.46
					c0.39-0.2,0.78-0.54,1.2-1.02c1.18-0.41,1.91-1.03,2.17-1.86c0.26-0.83,0.69-1.6,1.28-2.3c0.59-0.71,1.32-1.4,2.17-2.08
					c0.86-0.68,1.76-1.37,2.7-2.08c0.94-0.71,1.86-1.39,2.74-2.04c0.89-0.65,1.63-1.3,2.21-1.95c1-0.89,2.05-1.64,3.15-2.26
					c1.09-0.62,1.99-1.61,2.7-2.97c0.3-0.35,0.97-1.03,2.04-2.04c1.06-1,2.2-2.11,3.41-3.32c1.21-1.21,2.29-2.38,3.23-3.5
					c0.95-1.12,1.42-2.01,1.42-2.66c0-0.41-0.09-0.69-0.27-0.84c-0.18-0.15-0.4-0.22-0.66-0.22c-0.27,0-0.53,0.04-0.8,0.13
					c-0.27,0.09-0.49,0.13-0.67,0.13h-6.64c-0.53,0-1.15-0.16-1.86-0.49c-0.71-0.33-1.56-0.49-2.57-0.49h-7.44
					c-0.18,0.24-0.47,0.56-0.89,0.97c-0.41,0.41-0.84,0.83-1.28,1.24c-0.44,0.41-0.84,0.81-1.19,1.2c-0.35,0.39-0.53,0.67-0.53,0.84
					v1.68c0,0.35-0.1,0.77-0.31,1.24c-0.21,0.48-0.46,0.92-0.75,1.33c-0.29,0.41-0.58,0.75-0.84,1.02c-0.26,0.26-0.46,0.4-0.58,0.4
					h-2.75c-0.59,0-1.06-0.13-1.42-0.4c-0.35-0.27-0.6-0.6-0.75-1.02c-0.15-0.41-0.24-0.86-0.27-1.33
					c-0.03-0.47-0.04-0.88-0.04-1.24v-1.68c0-0.41,0.04-0.96,0.13-1.64c0.09-0.68,0.18-1.39,0.27-2.13
					c0.09-0.74,0.18-1.45,0.26-2.13s0.13-1.28,0.13-1.82v-12.31c0-1.18,0.26-2.29,0.8-3.32c0.53-1.03,1.42-1.55,2.66-1.55
					c0.47,0,0.87,0.03,1.2,0.09c0.33,0.06,0.75,0.26,1.28,0.62c0.83,1.36,1.2,2.68,1.11,3.94c-0.09,1.27-0.13,2.5-0.13,3.68
					l0.71,2.48v1.51c0,0.48,0.34,0.87,1.02,1.19c0.68,0.33,1.41,0.49,2.17,0.49h3.46h0.71h5.23h4.16c0.35,0,0.89-0.12,1.6-0.35
					c0.71-0.24,1.24-0.35,1.6-0.35h4.96l8.59,1.5c0.35,0,0.83-0.07,1.42-0.22c0.59-0.15,1.2-0.33,1.82-0.53
					c0.62-0.21,1.21-0.38,1.77-0.53c0.56-0.15,1.02-0.22,1.37-0.22c0.24,0,0.65,0.01,1.24,0.04c0.59,0.03,1.18,0.09,1.77,0.18
					c0.59,0.09,1.11,0.24,1.55,0.44c0.44,0.21,0.67,0.49,0.67,0.84c0,0.24,0,0.64,0,1.2c0,0.56-0.03,1.14-0.09,1.73
					c-0.06,0.59-0.15,1.11-0.26,1.55c-0.12,0.44-0.26,0.67-0.44,0.67c-0.83,0.83-1.83,1.52-3.01,2.08
					c-1.18,0.56-2.13,1.25-2.83,2.08c-0.89,0.65-1.62,1.27-2.21,1.86c-0.59,0.59-1.15,1.17-1.68,1.73c-0.53,0.56-1.09,1.09-1.68,1.6
					s-1.3,0.93-2.13,1.28c-1.48,0.65-2.89,1.65-4.25,3.01c-1.36,1.36-2.72,2.79-4.07,4.3c-1.36,1.51-2.73,2.98-4.12,4.43
					c-1.39,1.45-2.82,2.61-4.3,3.5c-0.18,0-0.46,0.09-0.84,0.26c-0.38,0.18-0.75,0.41-1.11,0.71c-0.35,0.3-0.68,0.64-0.97,1.02
					c-0.3,0.39-0.44,0.78-0.44,1.2c0,1.12,0.88,1.68,2.66,1.68h6.64h3.45l4.96-0.71c1.18,0,1.99,0.04,2.44,0.13s1.11,0.13,1.99,0.13
					c1.12,0,1.96-0.34,2.53-1.02c0.56-0.68,0.99-1.52,1.28-2.52c0.3-1,0.52-2.08,0.67-3.23c0.15-1.15,0.34-2.23,0.58-3.23
					c0.24-1,0.6-1.85,1.11-2.53c0.5-0.68,1.23-1.02,2.17-1.02c0.47,0,0.75,0.15,0.84,0.44c0.09,0.3,0.13,0.65,0.13,1.06v10.1
					l0.8,5.67c-0.41,0.47-0.65,1.06-0.71,1.77c-0.06,0.71-0.09,1.27-0.09,1.68v1.68c0,1.24-0.16,2.16-0.49,2.75
					c-0.33,0.59-0.49,1.33-0.49,2.21v3.19l0.97,0.71v1.77c-0.24,0-0.64,0.01-1.2,0.04c-0.56,0.03-1.11,0.04-1.64,0.04
					c-0.65,0.06-1.33,0.09-2.04,0.09c-0.47,0-0.88-0.26-1.24-0.8c-0.35-0.53-0.53-1-0.53-1.42c0-0.94,0-1.58,0-1.9
					c0-0.33-0.01-0.53-0.04-0.62c-0.03-0.09-0.05-0.15-0.05-0.18c0-0.03-0.01-0.21-0.04-0.53c-0.03-0.32-0.05-0.88-0.05-1.68
					s0-2.02,0-3.68c0-0.41-0.13-0.77-0.4-1.06c-0.26-0.29-0.58-0.53-0.93-0.71c-0.35-0.18-0.72-0.29-1.11-0.35
					c-0.39-0.06-0.67-0.09-0.84-0.09c-0.23,0.12-0.47,0.21-0.71,0.26c-0.35,0.18-0.77,0.27-1.24,0.27c-0.89,0-1.61,0.04-2.17,0.13
					c-0.56,0.09-1.05,0.21-1.46,0.35c-0.41,0.15-0.78,0.26-1.11,0.35c-0.33,0.09-0.72,0.13-1.19,0.13c-0.41,0-0.92-0.04-1.51-0.13
					s-1.12-0.19-1.6-0.31c-0.59-0.18-1.18-0.35-1.77-0.53h-5.93c-0.35,0-0.77,0.04-1.24,0.13c-0.47,0.09-0.94,0.37-1.42,0.84
					c-0.71,0-1.15-0.15-1.33-0.44c-0.12-0.18-0.18-0.35-0.18-0.53c-0.24,0.06-0.56,0.18-0.98,0.35c-0.41,0.18-0.82,0.37-1.24,0.58
					c-0.41,0.21-0.8,0.38-1.15,0.53c-0.35,0.15-0.62,0.22-0.8,0.22c-1.24,0-2.18,0.48-2.83,1.42c-0.65,0.95-1.27,1.99-1.86,3.14
					c-0.59,1.15-1.27,2.2-2.04,3.14c-0.77,0.95-1.89,1.42-3.37,1.42c-0.59-0.24-1.12-0.47-1.59-0.71c-0.41-0.23-0.8-0.49-1.15-0.75
					c-0.35-0.26-0.53-0.6-0.53-1.02V491.44z"/>
				<path d="M192.82,415.8c0-0.18,0.04-0.47,0.13-0.89c0.09-0.41,0.18-0.86,0.26-1.33c0.09-0.47,0.16-0.93,0.22-1.37
					c0.06-0.44,0.09-0.78,0.09-1.02c0-0.12,0.12-0.33,0.35-0.62c0.24-0.3,0.53-0.58,0.88-0.84c0.35-0.26,0.75-0.5,1.2-0.71
					c0.44-0.2,0.87-0.31,1.28-0.31c0.24,0,0.44,0.35,0.62,1.06c0.18,0.71,0.35,1.51,0.53,2.39c0.18,0.89,0.38,1.68,0.62,2.39
					c0.24,0.71,0.53,1.06,0.88,1.06h6.2c0.47-0.12,0.92-0.26,1.33-0.44c0.35-0.12,0.71-0.24,1.06-0.35c0.35-0.12,0.62-0.18,0.8-0.18
					l4.16,0.97c0.18,0,0.5-0.04,0.97-0.13c0.48-0.09,0.98-0.21,1.51-0.35c0.53-0.15,1.03-0.26,1.51-0.35
					c0.48-0.09,0.8-0.13,0.98-0.13l4.43-0.8c1.24,0,2.39,0.13,3.45,0.4c1.07,0.26,1.8,0.4,2.21,0.4H231c0.35,0,0.66,0.16,0.93,0.49
					c0.26,0.33,1.02,0.49,2.26,0.49c0.24,0,0.52-0.09,0.84-0.26c0.33-0.18,0.62-0.4,0.89-0.67c0.26-0.26,0.49-0.54,0.67-0.84
					c0.18-0.3,0.26-0.53,0.26-0.71l0.53-1.95c0.77-1.65,2.01-2.48,3.72-2.48c0.71,0,1.28,0.49,1.72,1.46
					c0.44,0.98,0.67,1.96,0.67,2.97v1.51v1.68v1.68l-0.97,3.28c0,0.35,0.09,0.86,0.26,1.51c0.18,0.65,0.38,1.33,0.62,2.04
					c0.24,0.71,0.44,1.36,0.62,1.95c0.18,0.59,0.26,0.97,0.26,1.15c0,0.35-0.19,0.84-0.58,1.46c-0.39,0.62-0.78,0.93-1.2,0.93
					c-0.65,0-1.23-0.34-1.73-1.02s-1-1.42-1.51-2.21c-0.5-0.8-1.05-1.48-1.64-2.04c-0.59-0.56-1.33-0.75-2.21-0.58
					c-0.89,0.48-1.55,0.59-1.99,0.35c-0.44-0.24-0.87-0.35-1.28-0.35h-2.39h-5.93h-12.84l-2.39,0.98c-0.65-0.12-1.27-0.27-1.86-0.44
					c-0.47-0.12-0.93-0.24-1.37-0.35c-0.44-0.12-0.78-0.18-1.02-0.18c-1.18,0-2.11,0.09-2.79,0.26c-0.68,0.18-1.23,0.41-1.64,0.71
					c-0.29,0.29-0.49,0.62-0.57,0.97c-0.09,0.35-0.15,0.72-0.18,1.11c-0.03,0.39-0.07,0.78-0.13,1.2c-0.06,0.41-0.18,0.8-0.35,1.15
					c-0.24,0.35-0.62,0.65-1.15,0.88c-0.53,0.24-1.36,0.35-2.48,0.35c-0.24,0-0.47-0.03-0.71-0.09c-0.18-0.06-0.36-0.13-0.53-0.22
					c-0.18-0.09-0.26-0.25-0.26-0.49v-1.68v-3.19c0-0.24,0.03-0.52,0.09-0.84c0.06-0.32,0.15-0.63,0.27-0.93
					c0.12-0.29,0.24-0.62,0.35-0.97c0-0.35-0.03-0.8-0.09-1.33c-0.06-0.53-0.15-1.03-0.26-1.5c-0.12-0.59-0.24-1.21-0.35-1.86v-0.98
					c0-0.24-0.12-0.53-0.35-0.88L192.82,415.8z"/>
				<path d="M193,393.21c0-0.77,0.03-1.42,0.09-1.95c0.06-0.53,0.3-1.03,0.71-1.51c0.47-0.77,0.9-1.25,1.28-1.46
					c0.39-0.2,0.78-0.54,1.2-1.02c1.18-0.41,1.91-1.03,2.17-1.86c0.26-0.83,0.69-1.6,1.28-2.3c0.59-0.71,1.32-1.4,2.17-2.08
					c0.86-0.68,1.76-1.37,2.7-2.08c0.94-0.71,1.86-1.39,2.74-2.04c0.89-0.65,1.63-1.3,2.21-1.95c1-0.89,2.05-1.64,3.15-2.26
					c1.09-0.62,1.99-1.61,2.7-2.97c0.3-0.35,0.97-1.03,2.04-2.04c1.06-1,2.2-2.11,3.41-3.32c1.21-1.21,2.29-2.38,3.23-3.5
					c0.95-1.12,1.42-2.01,1.42-2.66c0-0.41-0.09-0.69-0.27-0.84c-0.18-0.15-0.4-0.22-0.66-0.22c-0.27,0-0.53,0.04-0.8,0.13
					c-0.27,0.09-0.49,0.13-0.67,0.13h-6.64c-0.53,0-1.15-0.16-1.86-0.49s-1.56-0.49-2.57-0.49h-7.44c-0.18,0.24-0.47,0.56-0.89,0.97
					c-0.41,0.41-0.84,0.83-1.28,1.24c-0.44,0.41-0.84,0.81-1.19,1.19c-0.35,0.39-0.53,0.67-0.53,0.84v1.68
					c0,0.35-0.1,0.77-0.31,1.24c-0.21,0.48-0.46,0.92-0.75,1.33c-0.29,0.41-0.58,0.75-0.84,1.02c-0.26,0.26-0.46,0.4-0.58,0.4h-2.75
					c-0.59,0-1.06-0.13-1.42-0.4c-0.35-0.27-0.6-0.6-0.75-1.02c-0.15-0.41-0.24-0.86-0.27-1.33c-0.03-0.47-0.04-0.88-0.04-1.24
					v-1.68c0-0.41,0.04-0.96,0.13-1.64c0.09-0.68,0.18-1.39,0.27-2.13c0.09-0.74,0.18-1.45,0.26-2.13s0.13-1.28,0.13-1.82v-12.31
					c0-1.18,0.26-2.29,0.8-3.32c0.53-1.03,1.42-1.55,2.66-1.55c0.47,0,0.87,0.03,1.2,0.09c0.33,0.06,0.75,0.26,1.28,0.62
					c0.83,1.36,1.2,2.68,1.11,3.94c-0.09,1.27-0.13,2.5-0.13,3.68l0.71,2.48v1.51c0,0.48,0.34,0.87,1.02,1.2
					c0.68,0.33,1.41,0.49,2.17,0.49h3.46h0.71h5.23h4.16c0.35,0,0.89-0.12,1.6-0.35c0.71-0.24,1.24-0.35,1.6-0.35h4.96l8.59,1.5
					c0.35,0,0.83-0.07,1.42-0.22c0.59-0.15,1.2-0.33,1.82-0.53c0.62-0.21,1.21-0.38,1.77-0.53c0.56-0.15,1.02-0.22,1.37-0.22
					c0.24,0,0.65,0.01,1.24,0.04c0.59,0.03,1.18,0.09,1.77,0.18c0.59,0.09,1.11,0.24,1.55,0.44c0.44,0.21,0.67,0.49,0.67,0.84
					c0,0.24,0,0.64,0,1.2c0,0.56-0.03,1.14-0.09,1.73c-0.06,0.59-0.15,1.11-0.26,1.55s-0.26,0.67-0.44,0.67
					c-0.83,0.83-1.83,1.52-3.01,2.08c-1.18,0.56-2.13,1.25-2.83,2.08c-0.89,0.65-1.62,1.27-2.21,1.86
					c-0.59,0.59-1.15,1.17-1.68,1.73c-0.53,0.56-1.09,1.09-1.68,1.6c-0.59,0.5-1.3,0.93-2.13,1.28c-1.48,0.65-2.89,1.65-4.25,3.01
					c-1.36,1.36-2.72,2.79-4.07,4.3c-1.36,1.51-2.73,2.98-4.12,4.43c-1.39,1.45-2.82,2.61-4.3,3.5c-0.18,0-0.46,0.09-0.84,0.26
					c-0.38,0.18-0.75,0.41-1.11,0.71c-0.35,0.3-0.68,0.64-0.97,1.02c-0.3,0.39-0.44,0.78-0.44,1.2c0,1.12,0.88,1.68,2.66,1.68h6.64
					h3.45l4.96-0.71c1.18,0,1.99,0.04,2.44,0.13s1.11,0.13,1.99,0.13c1.12,0,1.96-0.34,2.53-1.02c0.56-0.68,0.99-1.52,1.28-2.52
					c0.3-1,0.52-2.08,0.67-3.23c0.15-1.15,0.34-2.23,0.58-3.23c0.24-1,0.6-1.85,1.11-2.53c0.5-0.68,1.23-1.02,2.17-1.02
					c0.47,0,0.75,0.15,0.84,0.44c0.09,0.3,0.13,0.65,0.13,1.06v10.1l0.8,5.67c-0.41,0.47-0.65,1.06-0.71,1.77
					c-0.06,0.71-0.09,1.27-0.09,1.68v1.68c0,1.24-0.16,2.16-0.49,2.75c-0.33,0.59-0.49,1.33-0.49,2.21v3.19l0.97,0.71v1.77
					c-0.24,0-0.64,0.01-1.2,0.04c-0.56,0.03-1.11,0.04-1.64,0.04c-0.65,0.06-1.33,0.09-2.04,0.09c-0.47,0-0.88-0.26-1.24-0.8
					c-0.35-0.53-0.53-1-0.53-1.42c0-0.94,0-1.58,0-1.9s-0.01-0.53-0.04-0.62c-0.03-0.09-0.05-0.15-0.05-0.18
					c0-0.03-0.01-0.21-0.04-0.53c-0.03-0.32-0.05-0.88-0.05-1.68c0-0.8,0-2.02,0-3.68c0-0.41-0.13-0.77-0.4-1.06
					c-0.26-0.29-0.58-0.53-0.93-0.71c-0.35-0.18-0.72-0.29-1.11-0.35c-0.39-0.06-0.67-0.09-0.84-0.09
					c-0.23,0.12-0.47,0.21-0.71,0.26c-0.35,0.18-0.77,0.27-1.24,0.27c-0.89,0-1.61,0.04-2.17,0.13c-0.56,0.09-1.05,0.21-1.46,0.35
					c-0.41,0.15-0.78,0.26-1.11,0.35c-0.33,0.09-0.72,0.13-1.19,0.13c-0.41,0-0.92-0.04-1.51-0.13s-1.12-0.19-1.6-0.31
					c-0.59-0.18-1.18-0.35-1.77-0.53h-5.93c-0.35,0-0.77,0.04-1.24,0.13c-0.47,0.09-0.94,0.37-1.42,0.84
					c-0.71,0-1.15-0.15-1.33-0.44c-0.12-0.18-0.18-0.35-0.18-0.53c-0.24,0.06-0.56,0.18-0.98,0.35c-0.41,0.18-0.82,0.37-1.24,0.58
					c-0.41,0.21-0.8,0.38-1.15,0.53c-0.35,0.15-0.62,0.22-0.8,0.22c-1.24,0-2.18,0.48-2.83,1.42c-0.65,0.95-1.27,1.99-1.86,3.14
					c-0.59,1.15-1.27,2.2-2.04,3.14c-0.77,0.95-1.89,1.42-3.37,1.42c-0.59-0.24-1.12-0.47-1.59-0.71c-0.41-0.23-0.8-0.49-1.15-0.75
					c-0.35-0.26-0.53-0.6-0.53-1.02V393.21z"/>
				<path d="M192.82,300.64v-1.68v-2.48c0-1.24,0.52-2.29,1.55-3.14c1.03-0.86,2.2-1.53,3.5-2.04c1.3-0.5,2.53-0.87,3.68-1.11
					c1.15-0.23,1.85-0.35,2.08-0.35c0.48,0,0.84-0.03,1.11-0.09c0.26-0.06,0.52-0.15,0.75-0.27c0.24-0.12,0.44-0.23,0.62-0.35
					c0.18,0,0.38,0.03,0.62,0.09c0.41,0.12,0.77,0.33,1.06,0.62c0.41,0,0.81,0.03,1.2,0.09c0.38,0.06,0.57,0.26,0.57,0.62
					c0,0.3-0.34,0.77-1.02,1.42c-0.68,0.65-1.43,1.33-2.26,2.04c-1,0.83-2.13,1.74-3.37,2.75c-0.35,0.65-0.74,1.52-1.15,2.61
					c-0.41,1.09-0.79,2.14-1.15,3.14c-0.41,1.24-0.8,2.51-1.15,3.81c0,1.89,0.35,3.76,1.06,5.62c0.71,1.86,1.74,3.54,3.1,5.05
					c1.36,1.51,3.01,2.78,4.96,3.81c1.95,1.04,4.16,1.64,6.64,1.82c1.18,0,2.13,0.12,2.84,0.35c0.71,0.24,1.47,0.35,2.3,0.35
					c0.83,0,1.52-0.03,2.08-0.09c0.56-0.06,1.26-0.26,2.08-0.62c1.24-0.41,2.57-1,3.99-1.77c1.42-0.77,2.73-1.67,3.94-2.7
					c1.21-1.03,2.21-2.2,3.01-3.5c0.8-1.3,1.2-2.69,1.2-4.16l-1.06-3.19c0-0.83-0.31-1.72-0.93-2.7c-0.62-0.97-1.52-1.46-2.7-1.46
					h-1.77c-0.71,0.12-1.43,0.26-2.17,0.44c-0.74,0.18-1.49,0.44-2.26,0.8c-0.83,0.48-1.67,1.05-2.53,1.73
					c-0.86,0.68-1.4,1.26-1.64,1.73c-0.29,0.83-0.71,1.24-1.24,1.24c-0.23,0-0.43-0.14-0.58-0.4c-0.15-0.26-0.25-0.58-0.31-0.93
					c-0.06-0.41-0.09-0.88-0.09-1.42v-3.9v-4.25v-1.68c0-0.41-0.03-0.75-0.09-1.02c-0.06-0.27-0.13-0.55-0.22-0.84
					c-0.09-0.29-0.18-0.68-0.26-1.15s-0.13-1.12-0.13-1.95c0.12-0.41,0.26-0.8,0.44-1.15c0.12-0.29,0.3-0.58,0.53-0.84
					c0.24-0.27,0.48-0.4,0.71-0.4c0.35,0,0.93,0.15,1.73,0.44c0.8,0.3,1.19,0.62,1.19,0.97v0.98c0,1.24,0.48,2.26,1.42,3.06
					c0.94,0.8,1.8,1.19,2.57,1.19h2.48h2.66c0.77,0,1.36,0.12,1.77,0.35c0.41,0.24,1.06,0.35,1.95,0.35
					c0.47-0.12,0.94-0.2,1.42-0.26c0.41-0.06,0.87-0.07,1.37-0.04s0.96,0.13,1.37,0.31c0.41,0,0.75,0.14,1.02,0.4
					c0.27,0.26,0.52,0.55,0.75,0.84c0.24,0.35,0.47,0.77,0.71,1.24l0.97,5.93v1.42c0,0.24-0.04,0.6-0.13,1.11
					c-0.09,0.5-0.21,1.04-0.35,1.6c-0.15,0.56-0.26,1.15-0.35,1.77c-0.09,0.62-0.13,1.2-0.13,1.73v2.39c0,0.3-0.06,0.71-0.18,1.24
					c-0.12,0.53-0.29,1.04-0.53,1.51c-0.29,0.89-0.5,1.77-0.62,2.66c-0.12,0.89-0.18,1.57-0.18,2.04c-0.24,0.18-0.43,0.46-0.58,0.84
					c-0.15,0.39-0.31,0.8-0.49,1.24c-0.18,0.44-0.38,0.86-0.62,1.24c-0.24,0.39-0.56,0.67-0.98,0.84c-0.18,0.47-0.78,1.08-1.81,1.81
					c-1.03,0.74-2.2,1.46-3.5,2.17c-1.3,0.71-2.61,1.33-3.94,1.86c-1.33,0.53-2.44,0.8-3.32,0.8h-1.51c-0.47,0-1.05,0.16-1.73,0.49
					c-0.68,0.33-1.25,0.49-1.73,0.49h-3.45h-2.39c-0.94-0.35-1.83-0.68-2.66-0.97c-0.71-0.24-1.43-0.46-2.17-0.67
					c-0.74-0.21-1.34-0.31-1.82-0.31l-1.51-0.71c-1.3,0-2.69-0.5-4.16-1.51c-1.47-1-2.86-2.2-4.16-3.59
					c-1.3-1.39-2.38-2.83-3.23-4.34c-0.86-1.51-1.28-2.79-1.28-3.85c-0.06-0.47-0.12-0.92-0.18-1.33c-0.06-0.35-0.12-0.71-0.18-1.07
					c-0.06-0.35-0.09-0.65-0.09-0.88v-0.98c0-0.88-0.04-1.52-0.13-1.9c-0.09-0.38-0.21-0.75-0.35-1.11
					c-0.15-0.35-0.27-0.78-0.35-1.28c-0.09-0.5-0.13-1.29-0.13-2.35v-3.45V300.64z"/>
				<path d="M186.89,231.29v-0.71v-2.48c0-0.77,0.19-1.52,0.58-2.26c0.38-0.74,0.9-1.37,1.55-1.9c0.65-0.53,1.39-0.96,2.21-1.28
					c0.83-0.33,1.68-0.49,2.57-0.49c0.65,0,1.21,0.24,1.68,0.71c0.48,0.47,0.87,1.02,1.2,1.64c0.33,0.62,0.58,1.27,0.75,1.95
					c0.18,0.68,0.26,1.23,0.26,1.64c0,1.24-0.2,2.34-0.62,3.28c-0.41,0.94-0.86,1.81-1.33,2.61s-0.92,1.52-1.33,2.17
					c-0.41,0.65-0.62,1.33-0.62,2.04c0,0.83,0.19,1.76,0.58,2.79c0.39,1.03,0.9,2.02,1.55,2.97c0.65,0.94,1.42,1.74,2.3,2.39
					c0.89,0.65,1.86,0.98,2.92,0.98c0.35,0,0.81-0.1,1.37-0.31c0.56-0.21,1.11-0.5,1.64-0.89c0.53-0.38,0.99-0.83,1.37-1.33
					s0.58-1.05,0.58-1.64v-1.77c0-0.18,0.09-0.62,0.26-1.33c0.18-0.71,0.41-1.46,0.71-2.26c0.3-0.8,0.65-1.51,1.06-2.13
					c0.41-0.62,0.89-0.93,1.42-0.93c0.36,0,0.75,0.09,1.2,0.26c0.44,0.18,0.87,0.39,1.28,0.62c0.41,0.24,0.75,0.5,1.02,0.8
					c0.26,0.3,0.4,0.56,0.4,0.8v3.46c0.24,1.24,0.58,2.44,1.02,3.58c0.44,1.15,1,2.2,1.68,3.14c0.68,0.95,1.49,1.7,2.44,2.26
					c0.94,0.56,2.04,0.84,3.28,0.84c2.72,0,5.07-0.78,7.04-2.35c1.98-1.56,3.62-3.44,4.92-5.62c1.3-2.19,2.26-4.46,2.88-6.82
					s0.93-4.34,0.93-5.93c0-0.24-0.03-0.63-0.09-1.2c-0.06-0.56-0.15-1.11-0.26-1.64c-0.12-0.65-0.26-1.33-0.44-2.04l-0.8-1.6
					c-0.24-0.47-0.44-0.94-0.62-1.42c-0.18-0.47-0.26-0.94-0.26-1.42c0-1-0.31-1.96-0.93-2.88c-0.62-0.91-1.36-1.79-2.22-2.61
					c-0.86-0.83-1.74-1.61-2.65-2.35c-0.92-0.74-1.7-1.4-2.35-2c-1.3-1.24-2.27-2.13-2.92-2.65c-0.65-0.53-1.39-0.8-2.21-0.8
					c-1.24,0-2.15,0.26-2.74,0.8c-0.59,0.53-1.09,1.42-1.51,2.65c-0.3,0.59-0.38,1.18-0.27,1.77c0.06,0.24,0.15,0.44,0.27,0.62
					c0,0.47,0.16,1.03,0.49,1.68c0.33,0.65,0.72,1.3,1.2,1.95c0.48,0.65,1.03,1.2,1.68,1.64c0.65,0.44,1.27,0.67,1.86,0.67h0.71
					c0.65,0,1.23,0.18,1.73,0.53c0.5,0.35,0.93,0.78,1.28,1.28c0.35,0.5,0.63,1.05,0.84,1.64c0.21,0.59,0.31,1.09,0.31,1.51
					c0,0.41-0.14,0.78-0.4,1.11c-0.26,0.33-0.58,0.59-0.93,0.8c-0.35,0.21-0.72,0.35-1.11,0.44c-0.39,0.09-0.69,0.13-0.93,0.13
					c-2.3,0-4.35-0.52-6.16-1.55c-1.8-1.03-3.35-2.36-4.65-3.99c-1.3-1.62-2.29-3.42-2.97-5.4c-0.68-1.98-1.02-3.91-1.02-5.8v-3.99
					c0.36-0.83,0.56-1.85,0.62-3.06s0.09-2.5,0.09-3.86v-0.71v-1.77c0-1.65-0.47-3.17-1.42-4.56c-0.94-1.39-1.99-2.73-3.14-4.03
					c-1.15-1.3-2.2-2.58-3.14-3.85c-0.94-1.27-1.42-2.61-1.42-4.03c0-0.59,0.21-1.07,0.62-1.42c0.41-0.35,0.9-0.6,1.46-0.75
					c0.56-0.15,1.12-0.24,1.68-0.26c0.56-0.03,0.96-0.05,1.2-0.05c0.88,0,1.94,0.22,3.14,0.67c1.21,0.44,2.39,1.02,3.54,1.73
					s2.13,1.51,2.92,2.39c0.8,0.89,1.2,1.77,1.2,2.66c0,0.35-0.15,0.68-0.44,0.98c-0.18,0.18-0.35,0.32-0.53,0.44v2.04
					c0.48,0.71,0.78,1.46,0.93,2.26c0.15,0.8,0.4,1.43,0.75,1.91c0,0.65-0.01,1.34-0.05,2.08c-0.03,0.74,0.02,1.42,0.14,2.04
					c0.12,0.62,0.37,1.15,0.75,1.6c0.39,0.44,1.02,0.66,1.9,0.66c1.66,0,3.2,0.3,4.65,0.89c1.45,0.59,2.76,1.34,3.94,2.26
					c1.18,0.92,2.23,1.92,3.14,3.01c0.92,1.09,1.67,2.17,2.26,3.23c0.41,0.77,1,1.43,1.77,1.99c0.77,0.56,1.6,1.2,2.48,1.91
					c0.35,0.47,0.56,1.08,0.62,1.81c0.06,0.74,0.09,1.28,0.09,1.64c1.24,2.48,2.35,4.99,3.32,7.53c0.97,2.54,1.85,5.05,2.61,7.53
					v2.48v1.68v2.48v2.48c0,0.65-0.49,1.86-1.46,3.63c-0.98,1.77-2.08,3.62-3.32,5.54c-1.24,1.92-2.45,3.69-3.63,5.32
					c-1.18,1.62-2.01,2.61-2.48,2.97c-1.18,1-2.44,1.71-3.77,2.13c-1.33,0.41-2.85,0.86-4.56,1.33h-2.48h-2.66h-1.51
					c-1.06,0-2.11-0.31-3.14-0.93c-1.03-0.62-2.01-1.3-2.92-2.04c-0.92-0.74-1.79-1.42-2.61-2.04c-0.83-0.62-1.53-0.93-2.13-0.93
					s-1.17,0.13-1.73,0.4c-0.56,0.27-1.08,0.55-1.55,0.84c-0.47,0.29-0.93,0.58-1.37,0.84c-0.44,0.26-0.87,0.4-1.28,0.4
					c-1.24,0-2.72-0.25-4.43-0.75s-3.37-1.26-4.96-2.26c-1.59-1-2.94-2.21-4.03-3.63c-1.09-1.42-1.64-3.07-1.64-4.96v-4.16v-1.68
					v-2.48c0-0.47-0.12-1.05-0.35-1.73c-0.24-0.68-0.35-1.25-0.35-1.73v-0.71V231.29z"/>
			</g>
		</g>
		<g>
			<g>
				<path d="M272.03,680.99c0-0.35,0.03-0.69,0.09-1.02c0.06-0.32,0.1-0.71,0.13-1.15c0.03-0.44,0.07-0.97,0.13-1.6
					c0.06-0.62,0.09-1.43,0.09-2.43l-0.71-2.93c-0.12-0.47-0.24-0.92-0.35-1.33c-0.12-0.35-0.21-0.71-0.27-1.06
					c-0.06-0.36-0.09-0.62-0.09-0.8c0-0.41,0.15-0.93,0.44-1.55c0.3-0.62,0.62-1.16,0.98-1.64c0.77-0.41,1.68-0.68,2.74-0.8
					c1.06-0.12,1.98-0.35,2.75-0.71c0.18-0.18,0.52-0.39,1.02-0.62c0.5-0.23,0.99-0.47,1.46-0.71c0.65-0.24,1.3-0.53,1.95-0.88
					c1.12,0,1.68,0.74,1.68,2.21c0,0.36-0.28,0.89-0.84,1.6c-0.56,0.71-1.18,1.62-1.86,2.75c-0.68,1.12-1.3,2.45-1.86,3.99
					c-0.56,1.54-0.84,3.36-0.84,5.49l0.44,1.69c0.53,0.35,0.97,0.69,1.33,1.02c0.35,0.32,0.65,0.48,0.89,0.48h0.8
					c0.47,0.12,0.92,0.24,1.33,0.36c0.35,0.12,0.71,0.21,1.06,0.26c0.35,0.06,0.62,0.09,0.8,0.09h6.38c0.89,0,1.73-0.18,2.53-0.53
					c0.8-0.36,1.2-0.92,1.2-1.68c0-0.18-0.03-0.47-0.09-0.89c-0.06-0.41-0.15-0.86-0.26-1.33c-0.12-0.53-0.24-1.09-0.35-1.68v-1.77
					c0-0.47-0.12-0.9-0.35-1.28c-0.24-0.38-0.49-0.75-0.75-1.11c-0.26-0.35-0.52-0.69-0.75-1.02c-0.24-0.32-0.35-0.66-0.35-1.02
					c0-0.17,0.12-0.38,0.35-0.62s0.5-0.47,0.8-0.71l1.06-0.89h5.85c1.65,0,2.48,0.74,2.48,2.21c0,0.65-0.13,1.22-0.4,1.69
					c-0.26,0.47-0.54,0.88-0.84,1.24c-0.24,0.65-0.5,1.19-0.8,1.64c-0.29,0.44-0.44,0.99-0.44,1.64v1.42v1.77
					c0,1.47,0.26,2.42,0.8,2.83s1.6,0.62,3.19,0.62h2.21c0.83-0.17,1.66-0.29,2.48-0.35c0.83-0.06,1.59-0.16,2.3-0.31
					c0.71-0.14,1.31-0.43,1.81-0.84c0.5-0.41,0.84-1.07,1.02-1.95v-4.96c0-0.82-0.16-1.73-0.49-2.7s-0.75-1.96-1.28-2.97
					c-0.35-1-0.68-1.94-0.98-2.79c-0.29-0.85-0.44-1.64-0.44-2.34c0.18-0.24,0.39-0.47,0.62-0.71c0.18-0.18,0.35-0.36,0.53-0.53
					c0.18-0.18,0.35-0.27,0.53-0.27c0.41,0,0.8,0.15,1.15,0.44c0.35,0.3,0.71,0.65,1.06,1.07c0.77,0.83,1.55,1.42,2.35,1.77
					c0.8,0.36,1.54,0.7,2.21,1.02c0.68,0.33,1.24,0.73,1.68,1.2c0.44,0.47,0.66,1.18,0.66,2.13c0,0.36-0.04,0.68-0.13,0.97
					c-0.09,0.3-0.21,0.61-0.35,0.93c-0.15,0.32-0.26,0.71-0.35,1.15c-0.09,0.44-0.13,0.99-0.13,1.64l0.26,8.59l0.71,3.01v4.69v2.66
					l0.53,1.77l0.18,2.66c0,0.29-0.12,0.62-0.35,0.97s-0.52,0.68-0.84,0.97c-0.33,0.3-0.65,0.55-0.97,0.75
					c-0.33,0.21-0.58,0.31-0.75,0.31c-1.47,0-2.21-1.09-2.21-3.28c-0.18-0.47-0.38-0.94-0.62-1.42c-0.41-0.89-0.71-1.62-0.89-2.22
					c-0.23-1.24-0.62-2.08-1.15-2.52c-0.53-0.44-1.77-0.67-3.72-0.67c-0.29,0-0.6-0.1-0.93-0.31c-0.32-0.21-0.66-0.1-1.02,0.31
					c-0.3,0-0.6,0.03-0.93,0.09c-0.33,0.06-0.63,0.14-0.93,0.26c-0.35,0.12-0.74,0.24-1.15,0.35h-1.68h-3.19h-2.21l-6.2-0.71h-1.51
					c-0.35,0-0.59-0.04-0.71-0.13c-0.12-0.09-0.35-0.13-0.71-0.13h-4.7h-2.48h-2.66c-0.53,0-0.96,0.3-1.28,0.89
					c-0.33,0.59-0.49,1.04-0.49,1.33v2.48c0,1.12-0.47,1.94-1.42,2.44c-0.94,0.51-2.04,0.75-3.28,0.75c-0.35,0-0.68-0.16-0.97-0.48
					c-0.29-0.33-0.44-0.67-0.44-1.02v-2.93v-1.77c0-0.35-0.04-0.9-0.13-1.64c-0.09-0.74-0.13-1.67-0.13-2.79V680.99z"/>
				<path d="M272.03,624.66c0-3.07,0.5-6.05,1.51-8.94c1-2.9,2.44-5.48,4.3-7.75c1.86-2.27,4.13-4.09,6.82-5.45
					c2.69-1.36,5.68-2.04,8.99-2.04l4.25,0.71h5.85c0.41,0,0.97,0.18,1.68,0.53c0.71,0.36,1.3,0.54,1.77,0.54
					c0.77,0.35,1.54,0.68,2.3,0.97c0.65,0.29,1.34,0.62,2.08,0.97c0.74,0.36,1.43,0.77,2.08,1.24c0.47,0.24,1,0.64,1.6,1.2
					c0.59,0.56,1.15,1.21,1.68,1.95c0.53,0.74,0.97,1.5,1.33,2.26c0.35,0.77,0.53,1.5,0.53,2.21v1.68c0,0.65,0.09,1.3,0.26,1.95
					c0.18,0.65,0.37,1.28,0.58,1.9c0.21,0.62,0.4,1.17,0.58,1.64c0.18,0.47,0.26,0.79,0.26,0.97v2.39c0,1.01,0.14,1.88,0.4,2.61
					c0.26,0.74,0.4,1.38,0.4,1.91v3.19v7.61v1.51c0.18,0.35,0.35,0.68,0.53,0.97c0.29,0.59,0.44,1.15,0.44,1.68l-0.98,2.48v2.48
					l0.98,2.39c0,0.41-0.19,0.96-0.58,1.64c-0.39,0.68-0.78,1.23-1.2,1.64c0,0.24-0.01,0.59-0.04,1.06
					c-0.03,0.48-0.12,0.93-0.26,1.38c-0.15,0.44-0.38,0.84-0.71,1.2c-0.33,0.35-0.78,0.53-1.37,0.53c-0.47,0-0.92-0.21-1.33-0.62
					c-0.41-0.41-0.77-0.89-1.06-1.42c-0.35-0.65-0.71-1.36-1.06-2.13v-2.48l-0.97-4.16c0.18-0.47,0.35-0.91,0.53-1.32
					c0.3-0.77,0.44-1.42,0.44-1.95c0-0.59-0.19-1.05-0.58-1.37c-0.38-0.32-0.84-0.56-1.37-0.71c-0.53-0.15-1.08-0.24-1.64-0.26
					c-0.56-0.03-1.02-0.05-1.37-0.05H308h-3.72c-0.24,0-0.59,0.12-1.06,0.36c-0.24,0.12-0.44,0.24-0.62,0.35h-5.49
					c-0.47,0-1.06-0.12-1.77-0.35c-0.71-0.24-1.51-0.36-2.39-0.36h-3.46h-4.16c-1.6,0-2.94,0.26-4.03,0.79
					c-1.09,0.54-1.64,1.66-1.64,3.37c0,0.35,0.05,0.65,0.14,0.89c0.09,0.24,0.18,0.45,0.26,0.66s0.16,0.43,0.22,0.66
					c0.06,0.24,0.09,0.56,0.09,0.98l-0.71,2.48v1.68c0,0.41-0.19,0.93-0.58,1.55c-0.38,0.62-0.75,0.93-1.11,0.93
					c-0.89,0-1.65-0.48-2.3-1.46c-0.65-0.97-1.2-2.08-1.64-3.32c-0.44-1.24-0.77-2.45-0.97-3.63c-0.21-1.18-0.31-1.98-0.31-2.39
					v-1.51c0-0.47,0.16-0.92,0.49-1.32c0.33-0.41,0.49-0.86,0.49-1.33c-0.12-0.47-0.26-0.92-0.44-1.33
					c-0.12-0.35-0.24-0.72-0.35-1.11c-0.12-0.39-0.18-0.73-0.18-1.02v-3.28v-1.68c-0.12-1.18-0.24-2.27-0.35-3.28
					c-0.12-0.83-0.21-1.64-0.26-2.44C272.06,625.5,272.03,624.95,272.03,624.66z M280.63,628.82c0,0.18,0.12,0.53,0.35,1.07
					c0.24,0.53,0.56,1.08,0.97,1.64c0.41,0.56,0.86,1.07,1.33,1.51c0.47,0.44,0.92,0.66,1.33,0.66c0.12-0.12,0.26-0.24,0.44-0.36
					c0.35-0.23,0.77-0.35,1.24-0.35h2.48h4.87h10.89h4.16c0.48-0.24,0.98-0.39,1.51-0.44c0.53-0.06,1.03-0.13,1.51-0.22
					c0.47-0.09,0.89-0.25,1.24-0.48c0.35-0.24,0.59-0.68,0.71-1.33v-0.97c0-0.18-0.03-0.49-0.09-0.93
					c-0.06-0.44-0.12-0.91-0.18-1.42c-0.06-0.5-0.12-0.98-0.18-1.46c-0.06-0.47-0.09-0.83-0.09-1.07c-0.06-2.54-0.63-4.68-1.73-6.42
					c-1.09-1.74-2.46-3.17-4.12-4.3c-1.65-1.12-3.42-1.95-5.32-2.48c-1.89-0.53-3.66-0.82-5.31-0.88c-1.3-0.06-2.87,0.24-4.7,0.88
					c-1.83,0.65-3.53,1.45-5.09,2.4c-1.56,0.94-2.77,1.92-3.63,2.92c-0.86,1.01-0.99,1.8-0.4,2.39c-0.24,0.36-0.47,0.68-0.71,0.98
					c-0.18,0.29-0.35,0.58-0.53,0.84c-0.18,0.26-0.26,0.48-0.26,0.66v0.8L280.63,628.82z"/>
				<path d="M290.28,560.09c-0.18,0.12-0.38,0.24-0.62,0.35c-0.47,0.24-0.86,0.36-1.15,0.36h-4.16l-4.96,0.79h-1.68
					c-0.65,0-1.08,0.21-1.28,0.62c-0.21,0.41-0.37,0.86-0.49,1.33c-0.12,0.65-0.23,1.23-0.35,1.73c-0.12,0.5-0.47,0.75-1.06,0.75
					c-0.53,0-1.05-0.12-1.55-0.35s-0.97-0.52-1.42-0.84c-0.44-0.33-0.8-0.7-1.06-1.11c-0.27-0.41-0.4-0.79-0.4-1.15
					c0.41-0.82,0.74-1.65,0.98-2.48c0.29-0.71,0.53-1.51,0.71-2.4c0.18-0.88,0.26-1.74,0.26-2.57v-3.45c0-0.59-0.07-1.27-0.22-2.04
					c-0.15-0.77-0.21-1.49-0.18-2.17c0.03-0.68,0.24-1.26,0.62-1.73c0.38-0.47,1.14-0.71,2.26-0.71c0.59-0.18,1.15-0.29,1.68-0.36
					c0.47-0.06,0.92-0.07,1.33-0.04c0.41,0.03,0.71,0.16,0.89,0.4v2.48v1.77c0,0.71,0.37,1.28,1.11,1.73
					c0.74,0.44,1.52,0.67,2.35,0.67c0.89,0.29,1.6,0.47,2.13,0.53c0.53,0.06,0.94,0.03,1.24-0.09c0.35-0.06,0.62-0.2,0.8-0.44
					l3.19,1.06c0.47-0.29,0.96-0.48,1.46-0.58c0.5-0.09,0.96-0.19,1.37-0.31c0.53-0.06,1-0.12,1.42-0.17c0.18,0,0.44,0.06,0.8,0.17
					c0.35,0.12,0.74,0.24,1.15,0.36c0.41,0.12,0.83,0.24,1.24,0.35c0.41,0.12,0.74,0.18,0.97,0.18h1.68c0.24,0,0.53,0.03,0.89,0.09
					c0.35,0.06,0.74,0.14,1.15,0.26c0.47,0.12,0.94,0.24,1.42,0.35c0.41,0,0.78-0.06,1.11-0.18c0.33-0.12,0.63-0.23,0.93-0.35
					c0.24-0.12,0.52-0.18,0.84-0.18c0.33,0,0.69,0,1.11,0c0.83,0,1.39,0.06,1.68,0.18c0.35,0.35,0.94,0.53,1.77,0.53
					c0.83,0,1.67,0.34,2.53,1.02c0.86,0.68,1.96,1.41,3.32,2.17c0.77,0,1.43,0.37,1.99,1.11c0.56,0.74,1.23,1.52,2,2.35
					c0.47,0.41,0.84,0.74,1.11,0.97c0.26,0.24,0.49,0.45,0.67,0.66c0.18,0.21,0.32,0.44,0.44,0.71c0.12,0.26,0.26,0.64,0.44,1.11
					c0.89,1.95,1.4,3.86,1.55,5.75c0.15,1.89,0.22,3.25,0.22,4.08c0,1-0.06,2.11-0.18,3.32c-0.12,1.21-0.33,2.42-0.62,3.63
					c-0.3,1.22-0.65,2.38-1.06,3.5c-0.41,1.12-0.95,2.07-1.6,2.83l-2.48,1.77c-0.65,0.47-1.36,0.88-2.13,1.24
					c-0.77,0.35-1.47,0.68-2.13,0.97c-0.77,0.36-1.56,0.68-2.39,0.97h-5.93c-0.83,0-1.67,0.17-2.53,0.49
					c-0.86,0.32-1.96,0.48-3.32,0.48h-4.96c-0.59-0.12-1.18-0.26-1.77-0.44c-0.47-0.12-0.94-0.24-1.42-0.36
					c-0.47-0.12-0.8-0.18-0.97-0.18c-0.83,0.18-1.56,0.36-2.21,0.54c-1.3,0.29-2.21,0.44-2.75,0.44c-0.47-0.12-0.94-0.26-1.42-0.44
					c-0.41-0.12-0.8-0.24-1.15-0.36c-0.35-0.12-0.65-0.18-0.88-0.18h-4.87c-0.41,0-0.77,0.36-1.06,1.07
					c-0.3,0.71-0.55,1.49-0.75,2.34c-0.21,0.86-0.41,1.63-0.62,2.3c-0.21,0.68-0.46,0.99-0.75,0.93c-0.77,0-1.53-0.32-2.3-0.97
					c-0.77-0.65-1.15-1.39-1.15-2.22l-0.98-4.25v-1.68c0-0.36,0.16-1.05,0.49-2.08c0.33-1.03,0.49-1.99,0.49-2.88v-7.35
					c0-0.83,0.18-1.31,0.53-1.46c0.35-0.15,0.65-0.22,0.89-0.22c1.3,0,2.2,0.18,2.7,0.54c0.5,0.35,0.83,0.81,0.97,1.37
					c0.15,0.56,0.22,1.15,0.22,1.77c0,0.62,0.13,1.21,0.4,1.77c0.26,0.56,0.77,1.02,1.51,1.38c0.74,0.35,1.94,0.53,3.59,0.53
					c0.18,0,0.46-0.03,0.84-0.09s0.8-0.13,1.24-0.22c0.44-0.09,0.86-0.18,1.24-0.26c0.39-0.09,0.67-0.13,0.84-0.13h2.48h13.29h5.93
					c0.77,0.36,1.26,0.44,1.46,0.26c0.21-0.18,0.55-0.26,1.02-0.26l2.39-0.97c0.88-0.59,1.59-1.15,2.13-1.68
					c0.53-0.54,0.96-1.12,1.28-1.77c0.33-0.65,0.55-1.42,0.67-2.3c0.12-0.89,0.18-2,0.18-3.36c0-0.41-0.18-1.12-0.53-2.13
					c-0.35-1-0.77-1.95-1.24-2.83c-0.41-0.17-0.81-0.46-1.2-0.84c-0.38-0.38-0.92-0.84-1.6-1.37c-0.68-0.54-1.56-1.11-2.66-1.73
					c-1.09-0.62-2.55-1.28-4.39-1.99h-3.45c-0.41,0-1.18-0.03-2.3-0.09c-1.12-0.06-2.3-0.13-3.54-0.22
					c-1.24-0.09-2.41-0.18-3.5-0.26C291.36,560.13,290.63,560.09,290.28,560.09z"/>
				<path d="M270.08,515.17c0-0.88,0.19-1.55,0.58-1.99c0.39-0.44,0.87-0.78,1.46-1.02c0.59-0.23,1.2-0.37,1.81-0.4
					c0.62-0.03,1.14-0.04,1.55-0.04h1.68c1.36,0.35,2.6,0.96,3.72,1.81c1.12,0.86,1.68,1.96,1.68,3.32c0,0.88-0.28,1.83-0.84,2.83
					c-0.56,1-0.84,2.13-0.84,3.37c0,1.3,0.46,2.57,1.37,3.81c0.92,1.24,1.99,2.36,3.23,3.37c1.24,1,2.49,1.81,3.76,2.44
					c1.27,0.62,2.26,0.93,2.97,0.93h2.48h3.37c0.71,0,1.92-0.12,3.63-0.35c1.71-0.24,3.47-0.62,5.27-1.15
					c1.8-0.53,3.4-1.23,4.78-2.08c1.39-0.86,2.08-1.94,2.08-3.23l-0.71-1.77c0-1.36-0.16-2.63-0.49-3.81
					c-0.32-1.18-0.99-2.27-1.99-3.28c-1.53-1.3-2.75-2.54-3.63-3.72c-0.3-0.35-0.5-0.77-0.62-1.24c-0.12-0.47-0.18-0.88-0.18-1.24
					c0.12-0.12,0.3-0.27,0.53-0.44c0.48-0.35,0.89-0.53,1.24-0.53c1.3,0,2.79,0.48,4.47,1.42c1.68,0.95,3.28,2.08,4.78,3.41
					c1.51,1.33,2.79,2.69,3.85,4.07c1.06,1.39,1.59,2.52,1.59,3.41v0.71c0.18,0.83,0.36,1.6,0.53,2.3c0.12,0.65,0.24,1.27,0.35,1.86
					c0.12,0.59,0.18,1,0.18,1.24c0,0.47-0.21,1.14-0.62,1.99c-0.41,0.86-0.9,1.76-1.46,2.7c-0.56,0.94-1.15,1.8-1.77,2.57
					c-0.62,0.77-1.16,1.24-1.64,1.42c-0.18,0.24-0.75,0.55-1.72,0.93c-0.98,0.39-2.07,0.77-3.28,1.15c-1.21,0.39-2.4,0.71-3.58,0.97
					s-2.07,0.4-2.66,0.4h-2.75c-0.35,0.18-0.68,0.36-0.97,0.54c-0.59,0.29-1.09,0.44-1.51,0.44c-0.71-0.12-1.39-0.27-2.04-0.44
					c-0.53-0.12-1.09-0.24-1.68-0.36c-0.59-0.12-1.06-0.18-1.42-0.18h-1.95c-0.18,0-0.4,0.06-0.67,0.18
					c-0.26,0.12-0.54,0.24-0.84,0.36c-0.29,0.17-0.62,0.32-0.97,0.44l-2.75-0.98h-1.68c-1-0.47-1.92-0.91-2.74-1.32
					c-0.71-0.36-1.39-0.73-2.04-1.11c-0.65-0.38-1.12-0.72-1.42-1.02c-1.12-0.18-2.13-0.62-3.01-1.33
					c-0.88-0.71-1.71-1.55-2.48-2.53c-0.77-0.97-1.47-2.02-2.13-3.14c-0.65-1.12-1.3-2.24-1.95-3.37c-0.12-0.65-0.26-1.3-0.44-1.95
					c-0.12-0.47-0.24-0.96-0.35-1.46c-0.12-0.5-0.18-0.84-0.18-1.02v-1.77v-3.37L270.08,515.17z"/>
				<path d="M268.85,478.6c0-1.3,0.28-2.27,0.84-2.92c0.56-0.65,1.28-1.11,2.17-1.37c0.89-0.27,1.85-0.44,2.88-0.53
					c1.03-0.09,2.02-0.19,2.97-0.31h3.19c0.65-0.35,1.52-0.81,2.61-1.37c1.09-0.56,2.2-0.84,3.32-0.84h2.21
					c0.18,0,0.71-0.14,1.6-0.44c0.88-0.3,1.86-0.63,2.92-1.02c1.06-0.38,2.08-0.72,3.06-1.02c0.98-0.29,1.64-0.44,1.99-0.44
					c1.12,0,2.61-0.15,4.47-0.44c1.86-0.3,3.67-0.68,5.45-1.15c1.77-0.47,3.31-1.02,4.6-1.64c1.3-0.62,1.95-1.29,1.95-2
					c0-0.83,0.09-1.47,0.26-1.95c0.18-0.47,0.27-0.89,0.27-1.24c0-0.18,0.03-0.49,0.09-0.93c0.06-0.44,0.18-0.92,0.35-1.42
					c0.18-0.5,0.43-0.93,0.75-1.28c0.33-0.35,0.75-0.53,1.28-0.53c1.18,0,2.01,0.41,2.48,1.24c0.47,0.83,0.71,1.8,0.71,2.92
					l-0.26,5.93v2.48v4.43v1.95l0.26,2.48c0,0.36-0.03,0.93-0.09,1.73c-0.06,0.8-0.3,1.2-0.71,1.2c-0.83,0-1.51-0.37-2.04-1.11
					c-0.53-0.74-0.97-1.61-1.33-2.61c-0.29-0.83-0.62-1.52-0.97-2.08c-0.35-0.56-0.94-0.84-1.77-0.84c-0.18,0-0.62,0.07-1.33,0.22
					c-0.71,0.15-1.46,0.33-2.26,0.53c-0.8,0.21-1.51,0.44-2.13,0.71c-0.62,0.26-0.93,0.52-0.93,0.75c-0.59,0.18-1.24,0.31-1.95,0.4
					c-0.71,0.09-1.34,0.21-1.9,0.35c-0.56,0.15-0.99,0.39-1.28,0.71c-0.3,0.33-0.39,0.81-0.27,1.46v3.01c0,0.18,0,0.52,0,1.02
					c0,0.5,0.03,1.02,0.09,1.55c0.06,0.53,0.13,1.05,0.22,1.55s0.22,0.84,0.4,1.02c0.35,0.77,0.87,1.08,1.55,0.93
					c0.68-0.15,1.4-0.22,2.17-0.22c0.24,0.18,0.7,0.44,1.37,0.8c0.68,0.35,1.41,0.69,2.17,1.02c0.77,0.33,1.48,0.61,2.13,0.84
					c0.65,0.24,1.06,0.35,1.24,0.35c0.71,0,1.21-0.19,1.51-0.58c0.3-0.38,0.58-0.81,0.84-1.28c0.26-0.47,0.64-0.9,1.11-1.28
					c0.48-0.38,1.27-0.58,2.39-0.58c0.35,0,0.64,0.12,0.84,0.35c0.21,0.24,0.35,0.52,0.44,0.84c0.09,0.33,0.15,0.65,0.18,0.97
					c0.03,0.33,0.04,0.58,0.04,0.75c0.18,0,0.29,0.06,0.35,0.18c0.06,0.12,0.09,0.28,0.09,0.49c0,0.21-0.15,0.49-0.44,0.84
					c0,0.24,0,0.55,0,0.93c0,0.38-0.03,0.78-0.09,1.2l-0.18,1.6c0,0.77,0.09,1.39,0.26,1.86c0.18,0.47,0.26,1.09,0.26,1.86
					c0,0.83,0.05,1.42,0.13,1.77c0.09,0.35,0.18,0.6,0.27,0.75c0.09,0.15,0.16,0.25,0.22,0.31c0.06,0.06,0.09,0.18,0.09,0.35
					c0,0.3-0.03,0.81-0.09,1.55c-0.06,0.74-0.16,1.49-0.31,2.26c-0.15,0.77-0.35,1.43-0.62,1.99c-0.27,0.56-0.58,0.84-0.93,0.84
					c-1.12,0-2.07-0.34-2.84-1.02c-0.77-0.68-1.15-1.58-1.15-2.7l-0.44-1.68c0-0.12-0.1-0.34-0.31-0.67
					c-0.21-0.32-0.46-0.67-0.75-1.02c-0.29-0.35-0.6-0.72-0.93-1.11c-0.32-0.38-0.58-0.69-0.75-0.93c-1.47-0.35-3.08-0.99-4.83-1.91
					c-1.74-0.91-3.41-1.75-5-2.52c-1-0.35-2.05-0.81-3.14-1.37c-1.09-0.56-2.02-1.08-2.79-1.55c-1.12-0.59-2.21-1.09-3.28-1.51
					c-1.06-0.41-2.14-0.8-3.23-1.15c-1.09-0.35-2.2-0.74-3.32-1.15c-1.12-0.41-2.27-0.89-3.46-1.42c-0.88-0.41-1.84-0.74-2.88-0.98
					c-1.03-0.23-2.09-0.45-3.19-0.66c-1.09-0.21-2.2-0.47-3.32-0.8c-1.12-0.33-2.24-0.75-3.36-1.28c-0.3-0.35-0.65-0.74-1.07-1.15
					c-0.41-0.41-0.79-1-1.15-1.77V478.6z M285.05,479.66c0,0.41,0.18,0.78,0.53,1.11c0.35,0.33,0.75,0.61,1.2,0.84
					c0.44,0.24,0.88,0.41,1.33,0.53s0.75,0.18,0.93,0.18c0.53,0,0.93,0,1.2,0c0.27,0,0.5,0.03,0.71,0.09
					c0.21,0.06,0.49,0.14,0.84,0.22c0.35,0.09,0.92,0.22,1.68,0.4h0.71c0.35,0,0.7-0.27,1.02-0.8c0.33-0.53,0.49-1,0.49-1.42
					c0-0.18,0-0.46,0-0.84c0-0.38-0.03-0.77-0.09-1.15c-0.06-0.39-0.18-0.72-0.35-1.02c-0.18-0.3-0.44-0.44-0.79-0.44
					c-0.77,0-1.36,0.21-1.77,0.62c-0.41,0.41-0.83,0.62-1.24,0.62h-3.9c-0.35,0-0.86,0.1-1.51,0.31
					C285.38,479.11,285.05,479.36,285.05,479.66z"/>
				<path d="M269.29,401.36c0-0.18,0.22-0.37,0.67-0.58c0.44-0.21,0.96-0.4,1.55-0.58c0.59-0.18,1.18-0.33,1.77-0.44
					c0.59-0.12,1-0.18,1.24-0.18h6.38c0.24,0,0.68,0.02,1.33,0.05c0.65,0.03,1.31,0.12,1.99,0.26s1.28,0.4,1.81,0.75
					c0.53,0.36,0.8,0.83,0.8,1.42c0,1-0.22,1.72-0.67,2.17c-0.44,0.44-1,0.77-1.68,0.98c-0.68,0.21-1.42,0.37-2.21,0.49
					c-0.8,0.12-1.53,0.33-2.21,0.62c-0.68,0.3-1.24,0.75-1.68,1.37c-0.44,0.62-0.66,1.55-0.66,2.79v4.87c0,0.3,0.03,0.62,0.09,0.97
					c0.06,0.35,0.15,0.68,0.27,0.98c0.12,0.35,0.24,0.71,0.35,1.06c0,1.24,0.4,2.2,1.2,2.88c0.8,0.68,1.79,1.02,2.97,1.02h4.25
					c0.47,0,0.9,0.02,1.28,0.05c0.39,0.03,0.75-0.14,1.11-0.49l3.45,0.44h14.35c1.18,0,2.14-0.09,2.88-0.26
					c0.74-0.18,1.34-0.41,1.82-0.71c0.47-0.3,0.87-0.62,1.19-0.98c0.33-0.35,0.64-0.68,0.93-0.97c0.3-0.88,0.58-1.68,0.84-2.39
					c0.26-0.71,0.4-1.57,0.4-2.57c0.3-1.77,0.84-3.1,1.64-3.99c0.8-0.88,1.62-1.36,2.48-1.42c0.86-0.06,1.66,0.26,2.39,0.97
					s1.2,1.77,1.37,3.19c0,0.53-0.09,1.05-0.27,1.55c-0.18,0.5-0.32,0.99-0.44,1.46c-0.06,0.53-0.09,1.12-0.09,1.77
					c0,0.65-0.01,1.32-0.04,1.99c-0.03,0.68-0.11,1.33-0.22,1.95c-0.12,0.62-0.33,1.17-0.62,1.64v0.53v7.88
					c0,0.35,0.16,1.08,0.49,2.17c0.33,1.09,0.49,2.32,0.49,3.67c0,0.95-0.03,1.8-0.09,2.57c-0.06,0.65-0.1,1.31-0.13,1.99
					c-0.03,0.68-0.05,1.14-0.05,1.37c0,0.29,0.12,0.53,0.35,0.71c0.24,0.18,0.35,0.77,0.35,1.77c-0.06,0.12-0.18,0.24-0.35,0.35
					c-0.12,0.12-0.25,0.21-0.4,0.26c-0.15,0.06-0.37,0.09-0.67,0.09c-0.65-0.24-1.3-0.53-1.95-0.89c-0.53-0.29-1.09-0.63-1.68-1.02
					c-0.59-0.39-1.12-0.81-1.6-1.28c-0.29-0.83-0.56-1.6-0.79-2.3c-0.24-0.59-0.44-1.17-0.62-1.73c-0.18-0.56-0.26-0.93-0.26-1.11
					l-0.97-4.25c0-0.41-0.28-0.74-0.84-0.98c-0.56-0.23-1.16-0.41-1.81-0.53c-0.77-0.12-1.68-0.18-2.75-0.18h-9.39
					c-0.23,0-0.65-0.12-1.24-0.35l-0.71-0.35h-11.34c-0.47,0-0.94-0.04-1.42-0.13c-0.47-0.09-0.92-0.13-1.33-0.13
					c-0.18,0-0.44,0.09-0.8,0.26c-0.35,0.18-0.71,0.41-1.06,0.71c-0.35,0.3-0.67,0.64-0.93,1.02c-0.27,0.39-0.4,0.78-0.4,1.2v9.83
					c0,1.24,0.22,2.2,0.67,2.88c0.44,0.68,1,1.2,1.68,1.55c0.68,0.35,1.42,0.62,2.21,0.8c0.8,0.18,1.54,0.4,2.21,0.67
					c0.68,0.26,1.24,0.63,1.68,1.11c0.44,0.47,0.67,1.18,0.67,2.13c0,0.89-0.34,1.52-1.02,1.91s-1.4,0.58-2.17,0.58
					c-0.24,0-0.6-0.03-1.11-0.09c-0.5-0.06-1.02-0.13-1.55-0.22c-0.53-0.09-1.03-0.18-1.51-0.26c-0.47-0.09-0.79-0.13-0.97-0.13
					l-4.25-1.07c-0.18,0-0.58-0.04-1.2-0.13c-0.62-0.09-1.28-0.23-1.99-0.44c-0.71-0.2-1.33-0.45-1.86-0.75
					c-0.53-0.29-0.8-0.65-0.8-1.06c0-0.77,0.15-1.37,0.44-1.82c0.3-0.44,0.62-0.93,0.97-1.46c0.3-0.35,0.53-0.72,0.71-1.11
					c0.18-0.38,0.27-0.9,0.27-1.55c0-0.35-0.07-0.89-0.22-1.6c-0.15-0.71-0.22-1.24-0.22-1.6v-1.77c0.12-0.18,0.19-0.38,0.22-0.62
					c0.03-0.24,0.07-0.5,0.13-0.8c0.06-0.29,0.09-0.62,0.09-0.97v-13.38l-0.44-2.39l0.44-2.48c0-1.24-0.07-2.53-0.22-3.85
					c-0.15-1.33-0.22-2.58-0.22-3.77v-4.25c0-1.06-0.15-2.01-0.44-2.84c-0.29-0.83-0.6-1.55-0.93-2.17
					c-0.32-0.62-0.63-1.12-0.93-1.51C269.44,401.81,269.29,401.53,269.29,401.36z"/>
				<path d="M271.06,381.34c0-0.18,0.04-0.47,0.13-0.89c0.09-0.41,0.18-0.86,0.26-1.33c0.09-0.47,0.16-0.93,0.22-1.37
					c0.06-0.44,0.09-0.78,0.09-1.02c0-0.12,0.12-0.33,0.35-0.62c0.24-0.3,0.53-0.58,0.88-0.84c0.35-0.26,0.75-0.5,1.2-0.71
					c0.44-0.2,0.87-0.31,1.28-0.31c0.24,0,0.44,0.35,0.62,1.06c0.18,0.71,0.35,1.51,0.53,2.39c0.18,0.89,0.38,1.68,0.62,2.39
					c0.24,0.71,0.53,1.06,0.88,1.06h6.2c0.47-0.12,0.92-0.26,1.33-0.44c0.35-0.12,0.71-0.24,1.06-0.35c0.35-0.12,0.62-0.18,0.8-0.18
					l4.16,0.97c0.18,0,0.5-0.04,0.97-0.13c0.48-0.09,0.98-0.21,1.51-0.35c0.53-0.15,1.03-0.26,1.51-0.35
					c0.48-0.09,0.8-0.13,0.98-0.13l4.43-0.8c1.24,0,2.39,0.13,3.45,0.4c1.07,0.26,1.8,0.4,2.21,0.4h2.48c0.35,0,0.66,0.16,0.93,0.49
					c0.26,0.33,1.02,0.49,2.26,0.49c0.24,0,0.52-0.09,0.84-0.26c0.33-0.18,0.62-0.4,0.89-0.67s0.49-0.54,0.67-0.84
					c0.18-0.3,0.26-0.53,0.26-0.71l0.53-1.95c0.77-1.65,2.01-2.48,3.72-2.48c0.71,0,1.28,0.49,1.72,1.46
					c0.44,0.98,0.67,1.96,0.67,2.97v1.51v1.68v1.68l-0.97,3.28c0,0.35,0.09,0.86,0.26,1.51s0.38,1.33,0.62,2.04
					c0.24,0.71,0.44,1.36,0.62,1.95c0.18,0.59,0.26,0.97,0.26,1.15c0,0.35-0.19,0.84-0.58,1.46c-0.39,0.62-0.78,0.93-1.2,0.93
					c-0.65,0-1.23-0.34-1.73-1.02s-1-1.42-1.51-2.21c-0.5-0.8-1.05-1.48-1.64-2.04c-0.59-0.56-1.33-0.75-2.21-0.58
					c-0.89,0.48-1.55,0.59-1.99,0.35c-0.44-0.24-0.87-0.35-1.28-0.35H308h-5.93h-12.84l-2.39,0.98c-0.65-0.12-1.27-0.27-1.86-0.44
					c-0.47-0.12-0.93-0.24-1.37-0.35s-0.78-0.18-1.02-0.18c-1.18,0-2.11,0.09-2.79,0.26c-0.68,0.18-1.23,0.41-1.64,0.71
					c-0.29,0.29-0.49,0.62-0.57,0.97c-0.09,0.35-0.15,0.72-0.18,1.11c-0.03,0.39-0.07,0.78-0.13,1.2c-0.06,0.41-0.18,0.8-0.35,1.15
					c-0.24,0.35-0.62,0.65-1.15,0.88c-0.53,0.24-1.36,0.35-2.48,0.35c-0.24,0-0.47-0.03-0.71-0.09c-0.18-0.06-0.36-0.13-0.53-0.22
					c-0.18-0.09-0.26-0.25-0.26-0.49v-1.68v-3.19c0-0.24,0.03-0.52,0.09-0.84c0.06-0.32,0.15-0.63,0.27-0.93
					c0.12-0.29,0.24-0.62,0.35-0.97c0-0.35-0.03-0.8-0.09-1.33c-0.06-0.53-0.15-1.03-0.26-1.5c-0.12-0.59-0.24-1.21-0.35-1.86v-0.98
					c0-0.24-0.12-0.53-0.35-0.88L271.06,381.34z"/>
				<path d="M271.24,345.46l0.8-3.19v-1.77c0.24-0.77,0.47-1.47,0.71-2.13c0.24-0.59,0.46-1.15,0.67-1.68
					c0.21-0.53,0.4-0.89,0.58-1.07c0.47-0.88,0.87-1.9,1.2-3.06c0.33-1.15,0.9-2.11,1.73-2.88c0.41-0.47,1.12-0.96,2.13-1.46
					c1-0.5,1.71-0.99,2.13-1.46c1.71-2.01,3.35-3.29,4.92-3.85c1.56-0.56,2.97-0.84,4.21-0.84l5.85,0.26h2.48
					c0.65,0,1.63,0.25,2.92,0.75c1.3,0.5,2.66,1.09,4.08,1.77c1.42,0.68,2.73,1.32,3.94,1.9c1.21,0.59,2,0.98,2.35,1.15
					c1.24,0.41,2.26,1.14,3.06,2.17c0.8,1.03,1.43,2.05,1.9,3.06c1.24,1.6,2.36,3.09,3.37,4.47c1,1.39,1.51,2.94,1.51,4.65
					c0,0.71-0.07,1.4-0.22,2.08c-0.15,0.68-0.22,1.61-0.22,2.79c0,0.24,0.01,0.53,0.05,0.89c0.03,0.35,0.07,0.74,0.13,1.15
					c0.06,0.47,0.09,0.94,0.09,1.42v1.51c0,0.47-0.09,1.08-0.27,1.82c-0.18,0.74-0.41,1.43-0.71,2.08
					c-0.29,0.77-0.65,1.59-1.06,2.48c-0.71,1.6-1.49,3.22-2.35,4.87c-0.86,1.65-2.29,2.98-4.3,3.99c-2.95,1.24-6.02,2.38-9.21,3.41
					c-3.19,1.03-6.26,1.55-9.21,1.55c-0.59,0-1.12-0.06-1.6-0.18c-0.47-0.12-0.96-0.26-1.46-0.44c-0.5-0.18-1.02-0.38-1.55-0.62
					c-0.53-0.24-1.21-0.47-2.04-0.71c-0.88,0-1.71-0.13-2.48-0.4c-0.77-0.26-1.6-0.63-2.48-1.11c-0.18,0-0.74-0.26-1.68-0.8
					c-0.94-0.53-1.95-1.18-3.01-1.95c-1.06-0.77-2.02-1.58-2.88-2.44c-0.86-0.86-1.28-1.58-1.28-2.17l-0.98-2.48
					c0-0.77-0.03-1.46-0.09-2.08c-0.06-0.62-0.27-1.26-0.62-1.91c-0.29-0.65-0.54-1.27-0.75-1.86s-0.31-1.18-0.31-1.77v-4.25V345.46
					z M278.14,353.08c0,1,0.68,2.01,2.04,3.01c1.36,1,2.91,1.91,4.65,2.7c1.74,0.79,3.41,1.45,5,1.95c1.6,0.5,2.63,0.75,3.1,0.75
					h1.51h5.4c0.83,0,2.08-0.52,3.76-1.55c1.68-1.03,3.37-2.32,5.05-3.85c1.68-1.53,3.17-3.17,4.47-4.92
					c1.3-1.74,1.95-3.32,1.95-4.74v-1.68c0-1.24-0.32-2.58-0.97-4.03c-0.65-1.45-1.53-2.78-2.66-3.99
					c-1.12-1.21-2.44-2.23-3.94-3.06c-1.51-0.83-3.08-1.24-4.74-1.24h-2.48h-5.85c-1.24,0-2.23,0.16-2.97,0.49
					c-0.74,0.33-1.45,0.75-2.13,1.28c-0.68,0.53-1.45,1.15-2.3,1.86c-0.86,0.71-2.02,1.45-3.5,2.21c-0.35,0.48-0.8,0.99-1.33,1.55
					c-0.53,0.56-1.03,1.15-1.51,1.77c-0.47,0.62-0.89,1.27-1.24,1.95s-0.53,1.31-0.53,1.9v1.68c0,0.48-0.03,1.03-0.09,1.68
					c-0.06,0.65-0.15,1.3-0.27,1.95C278.47,351.48,278.32,352.25,278.14,353.08z"/>
				<path d="M271.24,307.2c0-0.77,0.03-1.42,0.09-1.95c0.06-0.53,0.3-1.03,0.71-1.51c0.47-0.77,0.9-1.25,1.28-1.46
					c0.39-0.2,0.78-0.54,1.2-1.02c1.18-0.41,1.91-1.03,2.17-1.86c0.26-0.83,0.69-1.6,1.28-2.3c0.59-0.71,1.32-1.4,2.17-2.08
					c0.86-0.68,1.76-1.37,2.7-2.08c0.94-0.71,1.86-1.39,2.74-2.04c0.89-0.65,1.63-1.3,2.21-1.95c1-0.89,2.05-1.64,3.15-2.26
					c1.09-0.62,1.99-1.61,2.7-2.97c0.3-0.35,0.97-1.03,2.04-2.04c1.06-1,2.2-2.11,3.41-3.32c1.21-1.21,2.29-2.38,3.23-3.5
					c0.95-1.12,1.42-2.01,1.42-2.66c0-0.41-0.09-0.69-0.27-0.84c-0.18-0.15-0.4-0.22-0.66-0.22c-0.27,0-0.53,0.04-0.8,0.13
					c-0.27,0.09-0.49,0.13-0.67,0.13h-6.64c-0.53,0-1.15-0.16-1.86-0.49c-0.71-0.33-1.56-0.49-2.57-0.49h-7.44
					c-0.18,0.24-0.47,0.56-0.89,0.97c-0.41,0.41-0.84,0.83-1.28,1.24s-0.84,0.81-1.2,1.2c-0.35,0.39-0.53,0.67-0.53,0.84v1.68
					c0,0.35-0.1,0.77-0.31,1.24c-0.21,0.48-0.46,0.92-0.75,1.33c-0.29,0.41-0.58,0.75-0.84,1.02c-0.26,0.26-0.46,0.4-0.58,0.4h-2.75
					c-0.59,0-1.06-0.13-1.42-0.4c-0.35-0.27-0.6-0.6-0.75-1.02c-0.15-0.41-0.24-0.86-0.27-1.33c-0.03-0.47-0.04-0.88-0.04-1.24
					v-1.68c0-0.41,0.04-0.96,0.13-1.64c0.09-0.68,0.18-1.39,0.27-2.13c0.09-0.74,0.18-1.45,0.26-2.13s0.13-1.28,0.13-1.82v-12.31
					c0-1.18,0.26-2.29,0.8-3.32c0.53-1.03,1.42-1.55,2.66-1.55c0.47,0,0.87,0.03,1.2,0.09c0.33,0.06,0.75,0.26,1.28,0.62
					c0.83,1.36,1.2,2.68,1.11,3.94c-0.09,1.27-0.13,2.5-0.13,3.68l0.71,2.48v1.51c0,0.48,0.34,0.87,1.02,1.19
					c0.68,0.33,1.41,0.49,2.17,0.49h3.46H287h5.23h4.16c0.35,0,0.89-0.12,1.6-0.35s1.24-0.35,1.6-0.35h4.96l8.59,1.5
					c0.35,0,0.83-0.07,1.42-0.22c0.59-0.15,1.2-0.33,1.82-0.53c0.62-0.21,1.21-0.38,1.77-0.53c0.56-0.15,1.02-0.22,1.37-0.22
					c0.24,0,0.65,0.01,1.24,0.04c0.59,0.03,1.18,0.09,1.77,0.18c0.59,0.09,1.11,0.24,1.55,0.44c0.44,0.21,0.67,0.49,0.67,0.84
					c0,0.24,0,0.64,0,1.2c0,0.56-0.03,1.14-0.09,1.73c-0.06,0.59-0.15,1.11-0.26,1.55c-0.12,0.44-0.26,0.67-0.44,0.67
					c-0.83,0.83-1.83,1.52-3.01,2.08s-2.13,1.25-2.83,2.08c-0.89,0.65-1.62,1.27-2.21,1.86c-0.59,0.59-1.15,1.17-1.68,1.73
					c-0.53,0.56-1.09,1.09-1.68,1.6s-1.3,0.93-2.13,1.28c-1.48,0.65-2.89,1.65-4.25,3.01c-1.36,1.36-2.72,2.79-4.07,4.3
					c-1.36,1.51-2.73,2.98-4.12,4.43c-1.39,1.45-2.82,2.61-4.3,3.5c-0.18,0-0.46,0.09-0.84,0.26c-0.38,0.18-0.75,0.41-1.11,0.71
					c-0.35,0.3-0.68,0.64-0.97,1.02c-0.3,0.39-0.44,0.78-0.44,1.2c0,1.12,0.88,1.68,2.66,1.68h6.64h3.45l4.96-0.71
					c1.18,0,1.99,0.04,2.44,0.13s1.11,0.13,1.99,0.13c1.12,0,1.96-0.34,2.53-1.02c0.56-0.68,0.99-1.52,1.28-2.52
					c0.3-1,0.52-2.08,0.67-3.23c0.15-1.15,0.34-2.23,0.58-3.23c0.24-1,0.6-1.85,1.11-2.53c0.5-0.68,1.23-1.02,2.17-1.02
					c0.47,0,0.75,0.15,0.84,0.44c0.09,0.3,0.13,0.65,0.13,1.06v10.1l0.8,5.67c-0.41,0.47-0.65,1.06-0.71,1.77
					c-0.06,0.71-0.09,1.27-0.09,1.68v1.68c0,1.24-0.16,2.16-0.49,2.75c-0.33,0.59-0.49,1.33-0.49,2.21v3.19l0.97,0.71v1.77
					c-0.24,0-0.64,0.01-1.2,0.04c-0.56,0.03-1.11,0.04-1.64,0.04c-0.65,0.06-1.33,0.09-2.04,0.09c-0.47,0-0.88-0.26-1.24-0.8
					c-0.35-0.53-0.53-1-0.53-1.42c0-0.94,0-1.58,0-1.9s-0.01-0.53-0.04-0.62c-0.03-0.09-0.05-0.15-0.05-0.18
					c0-0.03-0.01-0.21-0.04-0.53c-0.03-0.32-0.05-0.88-0.05-1.68c0-0.8,0-2.02,0-3.68c0-0.41-0.13-0.77-0.4-1.06
					c-0.26-0.29-0.58-0.53-0.93-0.71c-0.35-0.18-0.72-0.29-1.11-0.35c-0.39-0.06-0.67-0.09-0.84-0.09
					c-0.23,0.12-0.47,0.21-0.71,0.26c-0.35,0.18-0.77,0.27-1.24,0.27c-0.89,0-1.61,0.04-2.17,0.13c-0.56,0.09-1.05,0.21-1.46,0.35
					c-0.41,0.15-0.78,0.26-1.11,0.35s-0.72,0.13-1.2,0.13c-0.41,0-0.92-0.04-1.51-0.13s-1.12-0.19-1.6-0.31
					c-0.59-0.18-1.18-0.35-1.77-0.53h-5.93c-0.35,0-0.77,0.04-1.24,0.13c-0.47,0.09-0.94,0.37-1.42,0.84
					c-0.71,0-1.15-0.15-1.33-0.44c-0.12-0.18-0.18-0.35-0.18-0.53c-0.24,0.06-0.56,0.18-0.98,0.35c-0.41,0.18-0.82,0.37-1.24,0.58
					c-0.41,0.21-0.8,0.38-1.15,0.53c-0.35,0.15-0.62,0.22-0.8,0.22c-1.24,0-2.18,0.48-2.83,1.42c-0.65,0.95-1.27,1.99-1.86,3.14
					s-1.27,2.2-2.04,3.14c-0.77,0.95-1.89,1.42-3.37,1.42c-0.59-0.24-1.12-0.47-1.59-0.71c-0.41-0.23-0.8-0.49-1.15-0.75
					c-0.35-0.26-0.53-0.6-0.53-1.02V307.2z"/>
				<path d="M268.85,220.12c0-1.3,0.28-2.27,0.84-2.92c0.56-0.65,1.28-1.11,2.17-1.37c0.89-0.27,1.85-0.44,2.88-0.53
					c1.03-0.09,2.02-0.19,2.97-0.31h3.19c0.65-0.35,1.52-0.81,2.61-1.37c1.09-0.56,2.2-0.84,3.32-0.84h2.21
					c0.18,0,0.71-0.14,1.6-0.44c0.88-0.3,1.86-0.63,2.92-1.02c1.06-0.38,2.08-0.72,3.06-1.02c0.98-0.29,1.64-0.44,1.99-0.44
					c1.12,0,2.61-0.15,4.47-0.44c1.86-0.3,3.67-0.68,5.45-1.15c1.77-0.47,3.31-1.02,4.6-1.64c1.3-0.62,1.95-1.29,1.95-2
					c0-0.83,0.09-1.47,0.26-1.95c0.18-0.47,0.27-0.89,0.27-1.24c0-0.18,0.03-0.49,0.09-0.93c0.06-0.44,0.18-0.92,0.35-1.42
					c0.18-0.5,0.43-0.93,0.75-1.28c0.33-0.35,0.75-0.53,1.28-0.53c1.18,0,2.01,0.41,2.48,1.24c0.47,0.83,0.71,1.8,0.71,2.92
					l-0.26,5.93v2.48v4.43v1.95l0.26,2.48c0,0.36-0.03,0.93-0.09,1.73c-0.06,0.8-0.3,1.2-0.71,1.2c-0.83,0-1.51-0.37-2.04-1.11
					c-0.53-0.74-0.97-1.61-1.33-2.61c-0.29-0.83-0.62-1.52-0.97-2.08s-0.94-0.84-1.77-0.84c-0.18,0-0.62,0.07-1.33,0.22
					c-0.71,0.15-1.46,0.33-2.26,0.53c-0.8,0.21-1.51,0.44-2.13,0.71c-0.62,0.26-0.93,0.52-0.93,0.75c-0.59,0.18-1.24,0.31-1.95,0.4
					c-0.71,0.09-1.34,0.21-1.9,0.35c-0.56,0.15-0.99,0.39-1.28,0.71c-0.3,0.33-0.39,0.81-0.27,1.46v3.01c0,0.18,0,0.52,0,1.02
					c0,0.5,0.03,1.02,0.09,1.55c0.06,0.53,0.13,1.05,0.22,1.55s0.22,0.84,0.4,1.02c0.35,0.77,0.87,1.08,1.55,0.93
					c0.68-0.15,1.4-0.22,2.17-0.22c0.24,0.18,0.7,0.44,1.37,0.8c0.68,0.35,1.41,0.69,2.17,1.02c0.77,0.33,1.48,0.61,2.13,0.84
					c0.65,0.24,1.06,0.35,1.24,0.35c0.71,0,1.21-0.19,1.51-0.58c0.3-0.38,0.58-0.81,0.84-1.28c0.26-0.47,0.64-0.9,1.11-1.28
					c0.48-0.38,1.27-0.58,2.39-0.58c0.35,0,0.64,0.12,0.84,0.35c0.21,0.24,0.35,0.52,0.44,0.84c0.09,0.33,0.15,0.65,0.18,0.97
					c0.03,0.33,0.04,0.58,0.04,0.75c0.18,0,0.29,0.06,0.35,0.18c0.06,0.12,0.09,0.28,0.09,0.49s-0.15,0.49-0.44,0.84
					c0,0.24,0,0.55,0,0.93s-0.03,0.78-0.09,1.19l-0.18,1.6c0,0.77,0.09,1.39,0.26,1.86s0.26,1.09,0.26,1.86
					c0,0.83,0.05,1.42,0.13,1.77c0.09,0.35,0.18,0.6,0.27,0.75c0.09,0.15,0.16,0.25,0.22,0.31c0.06,0.06,0.09,0.18,0.09,0.35
					c0,0.3-0.03,0.81-0.09,1.55c-0.06,0.74-0.16,1.49-0.31,2.26c-0.15,0.77-0.35,1.43-0.62,1.99c-0.27,0.56-0.58,0.84-0.93,0.84
					c-1.12,0-2.07-0.34-2.84-1.02c-0.77-0.68-1.15-1.58-1.15-2.7l-0.44-1.68c0-0.12-0.1-0.34-0.31-0.67
					c-0.21-0.32-0.46-0.67-0.75-1.02c-0.29-0.35-0.6-0.72-0.93-1.11c-0.32-0.38-0.58-0.69-0.75-0.93c-1.47-0.35-3.08-0.99-4.83-1.91
					c-1.74-0.91-3.41-1.75-5-2.52c-1-0.35-2.05-0.81-3.14-1.37c-1.09-0.56-2.02-1.08-2.79-1.55c-1.12-0.59-2.21-1.09-3.28-1.51
					c-1.06-0.41-2.14-0.8-3.23-1.15c-1.09-0.35-2.2-0.74-3.32-1.15c-1.12-0.41-2.27-0.89-3.46-1.42c-0.88-0.41-1.84-0.74-2.88-0.98
					c-1.03-0.23-2.09-0.45-3.19-0.66c-1.09-0.21-2.2-0.47-3.32-0.8c-1.12-0.33-2.24-0.75-3.36-1.28c-0.3-0.35-0.65-0.74-1.07-1.15
					c-0.41-0.41-0.79-1-1.15-1.77V220.12z M285.05,221.19c0,0.41,0.18,0.78,0.53,1.11c0.35,0.33,0.75,0.61,1.2,0.84
					c0.44,0.24,0.88,0.41,1.33,0.53c0.44,0.12,0.75,0.18,0.93,0.18c0.53,0,0.93,0,1.2,0c0.27,0,0.5,0.03,0.71,0.09
					c0.21,0.06,0.49,0.14,0.84,0.22c0.35,0.09,0.92,0.22,1.68,0.4h0.71c0.35,0,0.7-0.27,1.02-0.8c0.33-0.53,0.49-1,0.49-1.42
					c0-0.18,0-0.46,0-0.84c0-0.38-0.03-0.77-0.09-1.15c-0.06-0.39-0.18-0.72-0.35-1.02c-0.18-0.3-0.44-0.44-0.79-0.44
					c-0.77,0-1.36,0.21-1.77,0.62c-0.41,0.41-0.83,0.62-1.24,0.62h-3.9c-0.35,0-0.86,0.1-1.51,0.31
					C285.38,220.64,285.05,220.89,285.05,221.19z"/>
				<path d="M272.48,170.61c0-0.83,0.24-1.61,0.71-2.35c0.47-0.74,1.15-1.11,2.04-1.11h1.68c0.47,0.65,0.88,1.27,1.24,1.86
					c0.3,0.48,0.58,0.95,0.84,1.42c0.26,0.48,0.4,0.8,0.4,0.98v2.66c0,1.24,0.35,2.21,1.06,2.92c0.71,0.71,1.68,1.06,2.92,1.06h2.66
					c1.6,0,3.34,0.19,5.23,0.58c1.89,0.39,3.69,0.75,5.4,1.11h4.87h4.96h2.48h0.98c0.18,0,0.49-0.04,0.93-0.13
					c0.44-0.09,0.88-0.23,1.33-0.44c0.44-0.2,0.83-0.45,1.15-0.75c0.33-0.29,0.49-0.68,0.49-1.15v-2.48v-2.66v-2.48
					c0-0.18-0.18-0.67-0.53-1.46c-0.35-0.8-0.77-1.67-1.24-2.61c-0.47-0.94-0.97-1.87-1.51-2.79c-0.53-0.92-0.97-1.58-1.33-2
					c-0.41-0.47-0.81-0.94-1.2-1.42c-0.38-0.47-0.57-0.91-0.57-1.33c-0.83-0.35-1.32-0.6-1.46-0.75c-0.15-0.15-0.22-0.45-0.22-0.93
					c0-0.35,0.19-0.86,0.58-1.51c0.39-0.65,0.75-0.97,1.11-0.97c0.18,0,0.87,0.25,2.08,0.75c1.21,0.5,2.57,1.11,4.07,1.81
					s2.95,1.48,4.34,2.3c1.39,0.83,2.32,1.6,2.79,2.3c0.24,0.18,0.4,0.69,0.49,1.55c0.09,0.86,0.16,1.76,0.22,2.7
					c0.06,1.06,0.09,2.27,0.09,3.63v2.48v1.68c0,1.24-0.12,2.48-0.35,3.72c-0.24,1.24-0.21,2.07,0.09,2.48l0.27,1.15l0.97,4.25
					c0,0.18-0.04,0.55-0.13,1.11c-0.09,0.56-0.21,1.17-0.35,1.81c-0.15,0.65-0.27,1.26-0.35,1.82c-0.09,0.56-0.13,0.93-0.13,1.11
					c0,0.48,0.06,0.92,0.18,1.33c0.12,0.41,0.24,0.77,0.35,1.06c0.18,0.35,0.33,0.71,0.44,1.06c0,0.65-0.15,1.14-0.44,1.46
					c-0.3,0.33-0.65,0.56-1.06,0.71c-0.41,0.15-0.83,0.24-1.24,0.26c-0.41,0.03-0.74,0.04-0.97,0.04c-1.24,0-2.01-0.4-2.3-1.19
					c-0.29-0.8-0.54-1.67-0.75-2.61c-0.21-0.94-0.56-1.82-1.06-2.61c-0.5-0.8-1.58-1.2-3.23-1.2h-7.44l-6.64-0.71h-3.19
					c-0.23,0-0.69-0.03-1.37-0.09c-0.68-0.06-1.4-0.15-2.17-0.26c-0.89-0.12-1.83-0.27-2.84-0.44c-0.47,0-0.91,0.13-1.33,0.4
					c-0.41,0.27-0.8,0.4-1.15,0.4h-0.97c-1.65,0-2.79,0.25-3.41,0.75c-0.62,0.5-1.09,1.06-1.42,1.68c-0.32,0.62-0.69,1.18-1.11,1.68
					c-0.41,0.5-1.24,0.75-2.48,0.75c-0.59,0-1.11-0.13-1.55-0.4c-0.44-0.26-0.81-0.58-1.11-0.93c-0.3-0.35-0.5-0.71-0.62-1.06
					c-0.12-0.35-0.18-0.62-0.18-0.8V170.61z"/>
			</g>
		</g>
		<g>
			<g>
				<path d="M346.64,667.18c0-1.18,0.46-2.29,1.37-3.32c0.92-1.04,1.76-1.96,2.53-2.79c1.42-0.47,2.48-1.21,3.19-2.21
					c0.41-0.36,0.86-0.71,1.33-1.07c0.47-0.35,1.03-0.59,1.68-0.71c0-0.24,0.25-0.47,0.75-0.71c0.5-0.24,1.09-0.44,1.77-0.62
					c0.68-0.17,1.31-0.32,1.9-0.44c0.59-0.12,0.97-0.17,1.15-0.17c0.83,0,1.74,0.14,2.75,0.44c1,0.29,2.01,0.66,3.01,1.11
					c1,0.44,1.96,0.92,2.88,1.42s1.67,0.93,2.26,1.28c0.41,0.24,0.74,0.55,0.97,0.93c0.24,0.39,0.46,0.75,0.67,1.11
					c0.21,0.35,0.49,0.66,0.84,0.93c0.35,0.26,0.83,0.4,1.42,0.4c0.65,0,1.51-0.17,2.57-0.53c1.06-0.35,2.13-0.79,3.19-1.33
					c1.06-0.53,2.01-1.08,2.83-1.64c0.83-0.56,1.33-1.02,1.51-1.37c0.47-0.71,1.06-1.35,1.77-1.91c0.71-0.56,1.42-1.15,2.13-1.77
					c0.71-0.62,1.34-1.28,1.91-1.99c0.56-0.71,0.93-1.53,1.11-2.48c0.12-0.35,0.34-0.91,0.67-1.68c0.33-0.77,0.69-1.36,1.11-1.77
					c0.35-0.36,0.6-0.55,0.75-0.58s0.46,0.01,0.93,0.13c0.65,0.17,1.12,0.6,1.42,1.28s0.49,1.42,0.58,2.21
					c0.09,0.8,0.12,1.52,0.09,2.17c-0.03,0.65-0.07,1.04-0.13,1.15c-0.35,0.41-0.53,0.96-0.53,1.64s-0.06,1.23-0.18,1.64
					c-0.95,1.6-1.71,2.72-2.3,3.37c-0.59,0.65-1.15,1.42-1.68,2.3c-0.18,0.36-0.49,0.8-0.93,1.33c-0.44,0.53-0.96,1.11-1.55,1.73
					c-0.59,0.62-1.21,1.24-1.86,1.86c-0.65,0.62-1.24,1.2-1.77,1.73c-0.89,0.71-1.74,1.31-2.57,1.81c-0.83,0.51-1.61,0.94-2.35,1.33
					c-0.74,0.39-1.42,0.75-2.04,1.11c-0.62,0.36-1.11,0.74-1.46,1.15c-0.47,0.83-0.92,1.43-1.33,1.82
					c-0.41,0.38-0.62,0.98-0.62,1.81c0,0.71,0.22,1.26,0.66,1.64c0.44,0.39,0.96,0.68,1.55,0.89s1.21,0.34,1.86,0.4
					c0.65,0.06,1.18,0.09,1.6,0.09l4.16-0.97h1.77c1.42,0,2.48-0.46,3.19-1.38c0.71-0.92,1.3-1.9,1.77-2.97
					c0.48-1.07,0.93-2.05,1.37-2.97c0.44-0.92,1.11-1.38,1.99-1.38c0.41,0,0.77,0.21,1.06,0.62c0.3,0.41,0.44,0.79,0.44,1.15v3.19
					l-0.71,4.96v1.95v4.16v1.51v3.46c0,0.17-0.04,0.75-0.13,1.72c-0.09,0.98-0.24,2.01-0.44,3.1c-0.21,1.09-0.5,2.08-0.89,2.97
					c-0.38,0.89-0.9,1.33-1.55,1.33c-0.18,0-0.35-0.09-0.53-0.26c-0.18-0.18-0.35-0.39-0.53-0.62c-0.24-0.24-0.44-0.53-0.62-0.89
					c0-0.18,0.03-0.44,0.09-0.79c0.06-0.36,0.12-0.71,0.18-1.07c0.06-0.41,0.12-0.85,0.18-1.33v-1.77c0-1.18-0.34-2.17-1.02-2.97
					c-0.68-0.8-1.4-1.2-2.17-1.2h-9.3h-14.35l-6.38-0.71c-0.59,0.18-1.3,0.29-2.13,0.35c-0.83,0.06-1.61,0.17-2.35,0.31
					c-0.74,0.15-1.4,0.41-1.99,0.8c-0.59,0.38-0.97,0.96-1.15,1.73v3.45c0,0.65-0.06,1.3-0.18,1.95c-0.12,0.65-0.33,1.26-0.62,1.81
					c-0.3,0.56-0.71,1.02-1.24,1.38c-0.53,0.35-1.24,0.53-2.13,0.53c-0.18,0-0.37-0.13-0.58-0.4c-0.21-0.27-0.4-0.55-0.58-0.85
					c-0.24-0.35-0.44-0.77-0.62-1.24l-0.71-14.97v-9.12c0-0.18-0.03-0.5-0.09-0.98c-0.06-0.47-0.15-0.94-0.27-1.42
					c-0.12-0.59-0.23-1.21-0.35-1.86V667.18z M355.67,675.6c0.06,0.24,0.12,0.5,0.18,0.79c0.12,0.3,0.22,0.62,0.31,0.97
					c0.09,0.36,0.28,0.74,0.58,1.15c0,0.41,0.19,0.81,0.58,1.2c0.39,0.39,0.99,0.58,1.82,0.58h1.5h3.46h1.51
					c0.48,0,0.9,0.12,1.28,0.35c0.39,0.24,0.75,0.36,1.11,0.36l0.18-0.36c0.12-0.12,0.22-0.2,0.31-0.26
					c0.09-0.06,0.28-0.09,0.58-0.09c0.59,0.18,1.14,0.12,1.64-0.18c0.5-0.29,0.94-0.71,1.33-1.24c0.39-0.54,0.68-1.11,0.89-1.73
					c0.21-0.62,0.31-1.13,0.31-1.55c-0.24-0.54-0.47-1.07-0.71-1.6c-0.18-0.47-0.36-0.9-0.53-1.28c-0.18-0.39-0.26-0.73-0.26-1.02
					l0.71-1.77c0-0.77-0.31-1.42-0.93-1.95c-0.62-0.53-1.33-0.96-2.13-1.28c-0.79-0.32-1.56-0.58-2.3-0.75s-1.23-0.32-1.46-0.44
					l-2.48,0.54c-0.41,0-0.81,0.04-1.2,0.13c-0.39,0.09-0.81,0.37-1.29,0.84c-0.35,0-0.88,0.04-1.59,0.13
					c-0.71,0.09-1.24,0.37-1.6,0.84c0,0.18-0.09,0.6-0.26,1.28c-0.18,0.68-0.38,1.42-0.62,2.21c-0.23,0.8-0.44,1.6-0.62,2.4
					C355.76,674.67,355.67,675.25,355.67,675.6z"/>
				<path d="M348.59,621.83c0-0.35,0.03-0.69,0.09-1.02c0.06-0.32,0.1-0.71,0.13-1.15c0.03-0.44,0.07-0.97,0.13-1.6
					c0.06-0.62,0.09-1.43,0.09-2.43l-0.71-2.93c-0.12-0.47-0.24-0.92-0.35-1.33c-0.12-0.35-0.21-0.71-0.27-1.06
					c-0.06-0.36-0.09-0.62-0.09-0.8c0-0.41,0.15-0.93,0.44-1.55c0.3-0.62,0.62-1.16,0.98-1.64c0.77-0.41,1.68-0.68,2.74-0.8
					c1.06-0.12,1.98-0.35,2.75-0.71c0.18-0.18,0.52-0.39,1.02-0.62c0.5-0.23,0.99-0.47,1.46-0.71c0.65-0.24,1.3-0.53,1.95-0.88
					c1.12,0,1.68,0.74,1.68,2.21c0,0.36-0.28,0.89-0.84,1.6c-0.56,0.71-1.18,1.62-1.86,2.75c-0.68,1.12-1.3,2.45-1.86,3.99
					c-0.56,1.54-0.84,3.36-0.84,5.49l0.44,1.69c0.53,0.35,0.97,0.69,1.33,1.02c0.35,0.32,0.65,0.48,0.89,0.48h0.8
					c0.47,0.12,0.92,0.24,1.33,0.36c0.35,0.12,0.71,0.21,1.06,0.26c0.35,0.06,0.62,0.09,0.8,0.09h6.38c0.89,0,1.73-0.18,2.53-0.53
					c0.8-0.36,1.2-0.92,1.2-1.68c0-0.18-0.03-0.47-0.09-0.89c-0.06-0.41-0.15-0.86-0.26-1.33c-0.12-0.53-0.24-1.09-0.35-1.68v-1.77
					c0-0.47-0.12-0.9-0.35-1.28c-0.24-0.38-0.49-0.75-0.75-1.11c-0.26-0.35-0.52-0.69-0.75-1.02c-0.24-0.32-0.35-0.66-0.35-1.02
					c0-0.17,0.12-0.38,0.35-0.62c0.24-0.24,0.5-0.47,0.8-0.71l1.06-0.89h5.85c1.65,0,2.48,0.74,2.48,2.21c0,0.65-0.13,1.22-0.4,1.69
					c-0.26,0.47-0.54,0.88-0.84,1.24c-0.24,0.65-0.5,1.19-0.8,1.64c-0.29,0.44-0.44,0.99-0.44,1.64v1.42v1.77
					c0,1.47,0.26,2.42,0.8,2.83c0.53,0.41,1.6,0.62,3.19,0.62h2.21c0.83-0.17,1.66-0.29,2.48-0.35c0.83-0.06,1.59-0.16,2.3-0.31
					c0.71-0.14,1.31-0.43,1.81-0.84c0.5-0.41,0.84-1.07,1.02-1.95v-4.96c0-0.82-0.16-1.73-0.49-2.7c-0.33-0.97-0.75-1.96-1.28-2.97
					c-0.35-1-0.68-1.94-0.98-2.79c-0.29-0.85-0.44-1.64-0.44-2.34c0.18-0.24,0.39-0.47,0.62-0.71c0.18-0.18,0.35-0.36,0.53-0.53
					c0.18-0.18,0.35-0.27,0.53-0.27c0.41,0,0.8,0.15,1.15,0.44c0.35,0.3,0.71,0.65,1.06,1.07c0.77,0.83,1.55,1.42,2.35,1.77
					c0.8,0.36,1.54,0.7,2.21,1.02c0.68,0.33,1.24,0.73,1.68,1.2c0.44,0.47,0.66,1.18,0.66,2.13c0,0.36-0.04,0.68-0.13,0.97
					c-0.09,0.3-0.21,0.61-0.35,0.93s-0.26,0.71-0.35,1.15c-0.09,0.44-0.13,0.99-0.13,1.64l0.26,8.59l0.71,3.01v4.69v2.66l0.53,1.77
					l0.18,2.66c0,0.29-0.12,0.62-0.35,0.97s-0.52,0.68-0.84,0.97c-0.33,0.3-0.65,0.55-0.97,0.75s-0.58,0.31-0.75,0.31
					c-1.47,0-2.21-1.09-2.21-3.28c-0.18-0.47-0.38-0.94-0.62-1.42c-0.41-0.89-0.71-1.62-0.89-2.22c-0.23-1.24-0.62-2.08-1.15-2.52
					c-0.53-0.44-1.77-0.67-3.72-0.67c-0.29,0-0.6-0.1-0.93-0.31c-0.32-0.21-0.66-0.1-1.02,0.31c-0.3,0-0.6,0.03-0.93,0.09
					c-0.33,0.06-0.63,0.14-0.93,0.26c-0.35,0.12-0.74,0.24-1.15,0.35h-1.68h-3.19h-2.21l-6.2-0.71h-1.51
					c-0.35,0-0.59-0.04-0.71-0.13c-0.12-0.09-0.35-0.13-0.71-0.13h-4.7h-2.48h-2.66c-0.53,0-0.96,0.3-1.28,0.89
					c-0.33,0.59-0.49,1.04-0.49,1.33v2.48c0,1.12-0.47,1.93-1.42,2.44c-0.94,0.51-2.04,0.75-3.28,0.75c-0.35,0-0.68-0.16-0.97-0.48
					c-0.29-0.33-0.44-0.67-0.44-1.02v-2.93v-1.77c0-0.35-0.04-0.9-0.13-1.64c-0.09-0.74-0.13-1.67-0.13-2.79V621.83z"/>
				<path d="M355.5,585.52c-0.94,0-1.76-0.16-2.44-0.49c-0.68-0.32-1.28-0.77-1.81-1.32c-0.53-0.56-1.03-1.2-1.51-1.91
					s-0.94-1.45-1.42-2.22c-1-1.59-1.83-3.05-2.48-4.38c-0.65-1.33-0.97-2.97-0.97-4.92c0-1.24,0.01-2.33,0.04-3.28
					c0.03-0.94,0.43-1.92,1.2-2.92c0.65-0.83,1.36-1.41,2.13-1.73c0.77-0.32,1.71-0.49,2.83-0.49c0.59,0,1.21,0.1,1.86,0.31
					c0.65,0.21,1.24,0.5,1.77,0.89c0.53,0.39,0.96,0.86,1.29,1.42c0.32,0.56,0.49,1.17,0.49,1.81c0,0.65-0.16,1.17-0.49,1.55
					c-0.33,0.39-0.67,0.74-1.02,1.07c-0.35,0.33-0.69,0.68-1.02,1.07c-0.32,0.38-0.49,0.87-0.49,1.46c0,0.77,0.07,1.55,0.22,2.35
					c0.15,0.79,0.4,1.52,0.75,2.17c0.35,0.65,0.8,1.18,1.33,1.6c0.53,0.41,1.18,0.62,1.95,0.62c0.71,0,1.21-0.24,1.51-0.71
					c0.3-0.47,0.5-1.05,0.62-1.73c0.12-0.67,0.24-1.4,0.35-2.17c0.12-0.77,0.35-1.48,0.71-2.13c0.83-1.59,1.56-2.97,2.21-4.12
					c0.65-1.15,1.48-2.46,2.48-3.94c0.3-0.54,0.55-1,0.75-1.42c0.21-0.41,0.4-0.81,0.58-1.2c0.18-0.39,0.38-0.78,0.62-1.2
					c0.24-0.41,0.56-0.88,0.97-1.42c1.36-1.71,2.73-3.08,4.12-4.12c1.39-1.03,3.2-1.55,5.45-1.55h2.04c0.71,0,1.34-0.12,1.9-0.36
					c0.56-0.23,1.23-0.35,2-0.35c1.24,0,2.24,0.25,3.01,0.75c0.77,0.5,1.66,0.98,2.66,1.46c0.48,0.12,0.87,0.12,1.2,0
					c0.32-0.12,0.66-0.03,1.02,0.27c0.77,0.24,1.27,0.62,1.51,1.15c0.24,0.54,0.65,1.04,1.24,1.51c0.47,0.53,0.88,1.03,1.24,1.5
					c0.35,0.48,0.69,0.95,1.02,1.42c0.33,0.47,0.64,0.96,0.93,1.46c0.3,0.51,0.62,1.11,0.98,1.82c0.65,1.12,1.11,2.13,1.37,3.01
					c0.27,0.88,0.55,1.92,0.84,3.1c0.12,0.41,0.31,0.77,0.58,1.06c0.26,0.3,0.4,0.68,0.4,1.15c0,0.54-0.04,0.95-0.13,1.24
					s-0.13,0.62-0.13,0.97c0,0.89,0.09,1.58,0.26,2.08c0.18,0.51,0.26,1.14,0.26,1.91c0,0.47-0.1,0.84-0.31,1.11
					c-0.21,0.26-0.37,0.64-0.49,1.11c-0.24,0.65-0.34,1.22-0.31,1.72c0.03,0.51-0.01,1.08-0.13,1.73c0,0.65-0.19,1.19-0.58,1.6
					c-0.39,0.41-0.78,0.94-1.2,1.6c-0.35,0.65-0.6,1.27-0.75,1.86c-0.15,0.59-0.55,1.21-1.2,1.86c-0.35,0.65-0.81,1.01-1.37,1.07
					c-0.56,0.06-1.17,0.26-1.82,0.62c-1,0.48-1.79,0.89-2.35,1.24c-0.56,0.35-1.43,0.53-2.61,0.53c-1.71,0-3.2-0.65-4.47-1.95
					c-1.27-1.3-1.9-2.87-1.9-4.7c0-1.12,0.25-2.18,0.75-3.18c0.5-1.01,1.26-1.51,2.26-1.51c0.35,0,0.62,0.05,0.8,0.13
					c0.18,0.09,0.38,0.13,0.62,0.13c0.41,0,0.74-0.09,0.97-0.26c0.24-0.18,0.5-0.26,0.8-0.26c0.12,0,0.28,0.05,0.49,0.13
					c0.21,0.09,0.37,0.13,0.49,0.13c0.88,0,1.64-0.24,2.26-0.71c0.62-0.47,1.15-1.08,1.6-1.81c0.44-0.74,0.77-1.58,0.97-2.52
					c0.21-0.94,0.31-1.89,0.31-2.84c0-1.89-0.44-3.62-1.33-5.18c-0.88-1.57-2.06-2.97-3.54-4.21c-0.77-0.71-1.56-1.3-2.39-1.77
					c-0.83-0.47-1.86-0.71-3.1-0.71c-0.71,0-1.37,0.18-2,0.54c-0.62,0.35-1.25,0.53-1.9,0.53c-0.29,0-0.46-0.05-0.49-0.13
					c-0.03-0.09-0.1-0.13-0.22-0.13c-0.94,0-1.73,0.25-2.35,0.75c-0.62,0.51-1.17,1.14-1.64,1.91c-0.47,0.77-0.92,1.61-1.33,2.53
					c-0.41,0.92-0.86,1.81-1.33,2.7c-0.12,0.24-0.33,0.43-0.62,0.58c-0.3,0.14-0.5,0.37-0.62,0.66c-0.29,0.59-0.45,1.18-0.49,1.77
					c-0.03,0.59-0.28,1.15-0.75,1.68c-0.3,0.47-0.6,0.79-0.93,0.97c-0.33,0.18-0.67,0.5-1.02,0.97c-0.3,0.65-0.46,1.23-0.49,1.73
					c-0.03,0.5-0.28,1.08-0.75,1.73c-0.41,0.36-0.77,0.66-1.06,0.93c-0.29,0.26-0.68,0.51-1.15,0.75c-0.59,0.47-1.06,1.05-1.42,1.73
					s-0.97,1.02-1.86,1.02h-2.21c-0.35,0-0.71,0.03-1.06,0.09c-0.35,0.06-0.74,0.09-1.15,0.09c-0.24,0-0.43-0.03-0.58-0.09
					c-0.15-0.06-0.34-0.09-0.58-0.09c-0.29,0-0.54-0.05-0.75-0.13C355.78,585.57,355.62,585.52,355.5,585.52z"/>
				<path d="M348.59,524.58c0-0.35,0.03-0.69,0.09-1.02c0.06-0.33,0.1-0.71,0.13-1.15c0.03-0.44,0.07-0.98,0.13-1.6
					c0.06-0.62,0.09-1.43,0.09-2.44l-0.71-2.92c-0.12-0.47-0.24-0.92-0.35-1.33c-0.12-0.35-0.21-0.71-0.27-1.06
					c-0.06-0.35-0.09-0.62-0.09-0.8c0-0.41,0.15-0.93,0.44-1.55c0.3-0.62,0.62-1.17,0.98-1.64c0.77-0.41,1.68-0.68,2.74-0.8
					c1.06-0.12,1.98-0.35,2.75-0.71c0.18-0.18,0.52-0.38,1.02-0.62s0.99-0.47,1.46-0.71c0.65-0.24,1.3-0.53,1.95-0.89
					c1.12,0,1.68,0.74,1.68,2.21c0,0.35-0.28,0.89-0.84,1.6c-0.56,0.71-1.18,1.62-1.86,2.74c-0.68,1.12-1.3,2.45-1.86,3.99
					c-0.56,1.53-0.84,3.37-0.84,5.49l0.44,1.68c0.53,0.35,0.97,0.7,1.33,1.02c0.35,0.33,0.65,0.49,0.89,0.49h0.8
					c0.47,0.12,0.92,0.24,1.33,0.35c0.35,0.12,0.71,0.21,1.06,0.27c0.35,0.06,0.62,0.09,0.8,0.09h6.38c0.89,0,1.73-0.18,2.53-0.53
					s1.2-0.92,1.2-1.68c0-0.18-0.03-0.47-0.09-0.88c-0.06-0.41-0.15-0.86-0.26-1.33c-0.12-0.53-0.24-1.09-0.35-1.68v-1.77
					c0-0.47-0.12-0.9-0.35-1.28c-0.24-0.39-0.49-0.75-0.75-1.11c-0.26-0.35-0.52-0.69-0.75-1.02c-0.24-0.32-0.35-0.66-0.35-1.02
					c0-0.18,0.12-0.39,0.35-0.62c0.24-0.23,0.5-0.47,0.8-0.71l1.06-0.88h5.85c1.65,0,2.48,0.74,2.48,2.21c0,0.65-0.13,1.21-0.4,1.68
					c-0.26,0.47-0.54,0.89-0.84,1.24c-0.24,0.65-0.5,1.2-0.8,1.64c-0.29,0.44-0.44,0.99-0.44,1.64v1.42v1.77
					c0,1.48,0.26,2.42,0.8,2.84c0.53,0.41,1.6,0.62,3.19,0.62h2.21c0.83-0.18,1.66-0.29,2.48-0.35c0.83-0.06,1.59-0.16,2.3-0.31
					c0.71-0.15,1.31-0.43,1.81-0.84c0.5-0.41,0.84-1.06,1.02-1.95v-4.96c0-0.83-0.16-1.73-0.49-2.7c-0.33-0.97-0.75-1.96-1.28-2.97
					c-0.35-1-0.68-1.94-0.98-2.79c-0.29-0.86-0.44-1.64-0.44-2.35c0.18-0.24,0.39-0.47,0.62-0.71c0.18-0.18,0.35-0.35,0.53-0.53
					c0.18-0.18,0.35-0.26,0.53-0.26c0.41,0,0.8,0.15,1.15,0.44c0.35,0.29,0.71,0.65,1.06,1.06c0.77,0.83,1.55,1.42,2.35,1.77
					c0.8,0.35,1.54,0.69,2.21,1.02c0.68,0.33,1.24,0.72,1.68,1.2c0.44,0.47,0.66,1.18,0.66,2.13c0,0.35-0.04,0.68-0.13,0.98
					c-0.09,0.3-0.21,0.6-0.35,0.93s-0.26,0.71-0.35,1.15c-0.09,0.44-0.13,0.99-0.13,1.64l0.26,8.59l0.71,3.01v4.7v2.66l0.53,1.77
					l0.18,2.66c0,0.29-0.12,0.62-0.35,0.97s-0.52,0.68-0.84,0.97c-0.33,0.3-0.65,0.55-0.97,0.75s-0.58,0.31-0.75,0.31
					c-1.47,0-2.21-1.09-2.21-3.28c-0.18-0.47-0.38-0.94-0.62-1.42c-0.41-0.88-0.71-1.62-0.89-2.21c-0.23-1.24-0.62-2.08-1.15-2.53
					c-0.53-0.44-1.77-0.66-3.72-0.66c-0.29,0-0.6-0.1-0.93-0.31c-0.32-0.21-0.66-0.1-1.02,0.31c-0.3,0-0.6,0.03-0.93,0.09
					c-0.33,0.06-0.63,0.15-0.93,0.27c-0.35,0.12-0.74,0.24-1.15,0.35h-1.68h-3.19h-2.21l-6.2-0.71h-1.51
					c-0.35,0-0.59-0.05-0.71-0.13c-0.12-0.09-0.35-0.14-0.71-0.14h-4.7h-2.48h-2.66c-0.53,0-0.96,0.3-1.28,0.89
					c-0.33,0.59-0.49,1.03-0.49,1.33v2.48c0,1.12-0.47,1.93-1.42,2.43c-0.94,0.51-2.04,0.75-3.28,0.75c-0.35,0-0.68-0.16-0.97-0.48
					c-0.29-0.33-0.44-0.67-0.44-1.02v-2.93v-1.77c0-0.35-0.04-0.9-0.13-1.64c-0.09-0.74-0.13-1.67-0.13-2.79V524.58z"/>
				<path d="M345.4,465.32c0-1.3,0.28-2.27,0.84-2.92c0.56-0.65,1.28-1.11,2.17-1.37c0.89-0.27,1.85-0.44,2.88-0.53
					c1.03-0.09,2.02-0.19,2.97-0.31h3.19c0.65-0.35,1.52-0.81,2.61-1.37c1.09-0.56,2.2-0.84,3.32-0.84h2.21
					c0.18,0,0.71-0.14,1.6-0.44c0.88-0.3,1.86-0.63,2.92-1.02c1.06-0.38,2.08-0.72,3.06-1.02c0.98-0.29,1.64-0.44,1.99-0.44
					c1.12,0,2.61-0.15,4.47-0.44c1.86-0.3,3.67-0.68,5.45-1.15c1.77-0.47,3.31-1.02,4.6-1.64c1.3-0.62,1.95-1.29,1.95-2
					c0-0.83,0.09-1.47,0.26-1.95c0.18-0.47,0.27-0.89,0.27-1.24c0-0.18,0.03-0.49,0.09-0.93c0.06-0.44,0.18-0.92,0.35-1.42
					c0.18-0.5,0.43-0.93,0.75-1.28s0.75-0.53,1.28-0.53c1.18,0,2.01,0.41,2.48,1.24c0.47,0.83,0.71,1.8,0.71,2.92l-0.26,5.93v2.48
					v4.43v1.95l0.26,2.48c0,0.36-0.03,0.93-0.09,1.73c-0.06,0.8-0.3,1.2-0.71,1.2c-0.83,0-1.51-0.37-2.04-1.11
					c-0.53-0.74-0.97-1.61-1.33-2.61c-0.29-0.83-0.62-1.52-0.97-2.08c-0.35-0.56-0.94-0.84-1.77-0.84c-0.18,0-0.62,0.07-1.33,0.22
					c-0.71,0.15-1.46,0.33-2.26,0.53c-0.8,0.21-1.51,0.44-2.13,0.71c-0.62,0.26-0.93,0.52-0.93,0.75c-0.59,0.18-1.24,0.31-1.95,0.4
					c-0.71,0.09-1.34,0.21-1.9,0.35c-0.56,0.15-0.99,0.39-1.28,0.71c-0.3,0.33-0.39,0.81-0.27,1.46v3.01c0,0.18,0,0.52,0,1.02
					c0,0.5,0.03,1.02,0.09,1.55c0.06,0.53,0.13,1.05,0.22,1.55s0.22,0.84,0.4,1.02c0.35,0.77,0.87,1.08,1.55,0.93
					c0.68-0.15,1.4-0.22,2.17-0.22c0.24,0.18,0.7,0.44,1.37,0.8c0.68,0.35,1.41,0.69,2.17,1.02c0.77,0.33,1.48,0.61,2.13,0.84
					c0.65,0.24,1.06,0.35,1.24,0.35c0.71,0,1.21-0.19,1.51-0.58c0.3-0.38,0.58-0.81,0.84-1.28c0.26-0.47,0.64-0.9,1.11-1.28
					c0.48-0.38,1.27-0.58,2.39-0.58c0.35,0,0.64,0.12,0.84,0.35c0.21,0.24,0.35,0.52,0.44,0.84c0.09,0.33,0.15,0.65,0.18,0.97
					c0.03,0.33,0.04,0.58,0.04,0.75c0.18,0,0.29,0.06,0.35,0.18c0.06,0.12,0.09,0.28,0.09,0.49s-0.15,0.49-0.44,0.84
					c0,0.24,0,0.55,0,0.93s-0.03,0.78-0.09,1.2l-0.18,1.6c0,0.77,0.09,1.39,0.26,1.86s0.26,1.09,0.26,1.86
					c0,0.83,0.05,1.42,0.13,1.77c0.09,0.35,0.18,0.6,0.27,0.75c0.09,0.15,0.16,0.25,0.22,0.31c0.06,0.06,0.09,0.18,0.09,0.35
					c0,0.3-0.03,0.81-0.09,1.55c-0.06,0.74-0.16,1.49-0.31,2.26c-0.15,0.77-0.35,1.43-0.62,1.99c-0.27,0.56-0.58,0.84-0.93,0.84
					c-1.12,0-2.07-0.34-2.84-1.02c-0.77-0.68-1.15-1.58-1.15-2.7l-0.44-1.68c0-0.12-0.1-0.34-0.31-0.67
					c-0.21-0.32-0.46-0.67-0.75-1.02c-0.29-0.35-0.6-0.72-0.93-1.11c-0.32-0.38-0.58-0.69-0.75-0.93c-1.47-0.35-3.08-0.99-4.83-1.91
					c-1.74-0.91-3.41-1.75-5-2.52c-1-0.35-2.05-0.81-3.14-1.37c-1.09-0.56-2.02-1.08-2.79-1.55c-1.12-0.59-2.21-1.09-3.28-1.51
					c-1.06-0.41-2.14-0.8-3.23-1.15c-1.09-0.35-2.2-0.74-3.32-1.15c-1.12-0.41-2.27-0.89-3.46-1.42c-0.88-0.41-1.84-0.74-2.88-0.98
					c-1.03-0.23-2.09-0.45-3.19-0.66c-1.09-0.21-2.2-0.47-3.32-0.8c-1.12-0.33-2.24-0.75-3.36-1.28c-0.3-0.35-0.65-0.74-1.07-1.15
					c-0.41-0.41-0.79-1-1.15-1.77V465.32z M361.61,466.38c0,0.41,0.18,0.78,0.53,1.11c0.35,0.33,0.75,0.61,1.2,0.84
					s0.88,0.41,1.33,0.53c0.44,0.12,0.75,0.18,0.93,0.18c0.53,0,0.93,0,1.2,0c0.27,0,0.5,0.03,0.71,0.09
					c0.21,0.06,0.49,0.14,0.84,0.22c0.35,0.09,0.92,0.22,1.68,0.4h0.71c0.35,0,0.7-0.27,1.02-0.8c0.33-0.53,0.49-1,0.49-1.42
					c0-0.18,0-0.46,0-0.84c0-0.38-0.03-0.77-0.09-1.15c-0.06-0.39-0.18-0.72-0.35-1.02c-0.18-0.3-0.44-0.44-0.79-0.44
					c-0.77,0-1.36,0.21-1.77,0.62c-0.41,0.41-0.83,0.62-1.24,0.62h-3.9c-0.35,0-0.86,0.1-1.51,0.31
					C361.93,465.84,361.61,466.09,361.61,466.38z"/>
				<path d="M346.64,409.51c0-0.88,0.19-1.55,0.58-1.99c0.39-0.44,0.87-0.78,1.46-1.02c0.59-0.23,1.19-0.37,1.81-0.4
					c0.62-0.03,1.14-0.04,1.55-0.04h1.68c1.36,0.35,2.6,0.96,3.72,1.81c1.12,0.86,1.68,1.96,1.68,3.32c0,0.88-0.28,1.83-0.84,2.83
					c-0.56,1-0.84,2.13-0.84,3.37c0,1.3,0.46,2.57,1.37,3.81c0.92,1.24,1.99,2.36,3.23,3.37c1.24,1,2.49,1.81,3.76,2.44
					c1.27,0.62,2.26,0.93,2.97,0.93h2.48h3.37c0.71,0,1.92-0.12,3.63-0.35c1.71-0.24,3.47-0.62,5.27-1.15
					c1.8-0.53,3.4-1.23,4.78-2.08c1.39-0.86,2.08-1.94,2.08-3.23l-0.71-1.77c0-1.36-0.16-2.63-0.49-3.81
					c-0.32-1.18-0.99-2.27-1.99-3.28c-1.53-1.3-2.75-2.54-3.63-3.72c-0.3-0.35-0.5-0.77-0.62-1.24c-0.12-0.47-0.18-0.88-0.18-1.24
					c0.12-0.12,0.3-0.27,0.53-0.44c0.48-0.35,0.89-0.53,1.24-0.53c1.3,0,2.79,0.48,4.47,1.42c1.68,0.95,3.28,2.08,4.78,3.41
					c1.51,1.33,2.79,2.69,3.85,4.07c1.06,1.39,1.59,2.52,1.59,3.41v0.71c0.18,0.83,0.36,1.6,0.53,2.3c0.12,0.65,0.24,1.27,0.35,1.86
					c0.12,0.59,0.18,1,0.18,1.24c0,0.47-0.21,1.14-0.62,1.99c-0.41,0.86-0.9,1.76-1.46,2.7c-0.56,0.94-1.15,1.8-1.77,2.57
					c-0.62,0.77-1.16,1.24-1.64,1.42c-0.18,0.24-0.75,0.55-1.72,0.93c-0.98,0.39-2.07,0.77-3.28,1.15c-1.21,0.39-2.4,0.71-3.59,0.97
					c-1.18,0.27-2.07,0.4-2.66,0.4h-2.75c-0.35,0.18-0.68,0.35-0.97,0.53c-0.59,0.3-1.09,0.44-1.51,0.44
					c-0.71-0.12-1.39-0.26-2.04-0.44c-0.53-0.12-1.09-0.23-1.68-0.35c-0.59-0.12-1.06-0.18-1.42-0.18h-1.95
					c-0.18,0-0.4,0.06-0.67,0.18c-0.26,0.12-0.54,0.24-0.84,0.35c-0.29,0.18-0.62,0.33-0.97,0.44l-2.75-0.97h-1.68
					c-1-0.47-1.92-0.92-2.74-1.33c-0.71-0.35-1.39-0.72-2.04-1.11c-0.65-0.38-1.12-0.72-1.42-1.02c-1.12-0.18-2.13-0.62-3.01-1.33
					c-0.88-0.71-1.71-1.55-2.48-2.53c-0.77-0.97-1.47-2.02-2.13-3.14c-0.65-1.12-1.3-2.24-1.95-3.37c-0.12-0.65-0.26-1.3-0.44-1.95
					c-0.12-0.47-0.24-0.96-0.35-1.46c-0.12-0.5-0.18-0.84-0.18-1.02v-1.77v-3.37L346.64,409.51z"/>
				<path d="M347.79,388.43v-0.97c0-0.47,0.18-1.08,0.53-1.82c0.35-0.74,0.53-1.52,0.53-2.35l-0.8-2.48v-3.45v-1.68
					c0-0.65,0.3-1.09,0.89-1.33c0.24-0.12,0.53-0.18,0.89-0.18c1.24,0,2.11,0.18,2.61,0.53c0.5,0.35,0.83,0.81,0.97,1.37
					c0.15,0.56,0.24,1.15,0.27,1.77c0.03,0.62,0.16,1.21,0.4,1.77c0.24,0.56,0.69,1.02,1.37,1.37c0.68,0.35,1.76,0.53,3.23,0.53
					c0.47,0,1.21-0.12,2.21-0.36c1-0.23,1.74-0.35,2.21-0.35h2.48c1.18,0,2.21-0.38,3.1-1.15c0.88-0.77,1.33-1.77,1.33-3.01
					c0-0.47-0.09-0.89-0.26-1.24c-0.06-0.24-0.15-0.41-0.26-0.53l0.53-3.19v-2.66v-1.51c0-0.47,0.03-0.94,0.09-1.42
					c0.12-0.94,0.41-1.62,0.89-2.04c0-0.3-0.05-0.55-0.14-0.75c-0.09-0.21-0.13-0.37-0.13-0.49c-0.12-0.24-0.26-0.47-0.44-0.71
					c-0.18-0.24-0.26-0.41-0.26-0.53v-3.45c-0.29-0.36-0.67-0.68-1.11-0.98c-0.44-0.29-0.9-0.44-1.37-0.44h-1.24h-5.67l-4.43,0.98
					h-1.51c-0.59,0-1,0.21-1.24,0.62c-0.24,0.41-0.44,0.86-0.62,1.33c-0.18,0.48-0.43,0.92-0.75,1.33
					c-0.32,0.41-0.93,0.62-1.82,0.62c-0.71,0-1.37-0.35-1.99-1.06c-0.62-0.71-0.93-1.51-0.93-2.39c0.3-0.77,0.56-1.57,0.8-2.39
					c0.18-0.71,0.34-1.49,0.49-2.35c0.15-0.86,0.22-1.73,0.22-2.61v-0.97v-2.48c0-0.59,0.07-1.27,0.22-2.04
					c0.15-0.77,0.39-1.46,0.71-2.08c0.33-0.62,0.77-1.15,1.33-1.59c0.56-0.44,1.28-0.67,2.17-0.67l0.98,0.44l0.44,2.04v2.39
					c0,0.41,0.39,0.93,1.15,1.55c0.77,0.62,1.45,0.93,2.04,0.93h5.93h3.46c0.35,0,1-0.07,1.95-0.22c0.95-0.15,1.63-0.22,2.04-0.22
					c0.24,0,0.5,0.09,0.8,0.26c0.3,0.18,0.59,0.33,0.88,0.44c0.77,0.3,1.33,0.44,1.68,0.44h2.48h2.48c0.89,0,1.74-0.07,2.57-0.22
					c0.83-0.15,1.62-0.22,2.39-0.22c0.47,0,0.97,0.07,1.51,0.22c0.53,0.15,1.18,0.22,1.95,0.22c0.41,0,0.74,0.03,0.97,0.09
					c0.24,0.06,0.48,0.1,0.71,0.13c0.24,0.03,0.49,0.03,0.75,0c0.26-0.03,0.6-0.1,1.02-0.22c0.65-0.18,1.2-0.69,1.64-1.55
					c0.44-0.86,0.84-1.77,1.2-2.75c0.35-0.97,0.71-1.85,1.06-2.61c0.35-0.77,0.77-1.15,1.24-1.15c0.41,0,0.75,0.13,1.02,0.4
					c0.27,0.27,0.52,0.55,0.75,0.84c0.24,0.36,0.47,0.77,0.71,1.24v4.87v2.48v2.48l-0.97,4.16l0.97,2.48c0,0.18-0.01,0.44-0.04,0.8
					c-0.03,0.35-0.09,0.71-0.18,1.06s-0.25,0.66-0.49,0.93c-0.24,0.26-0.59,0.4-1.06,0.4c-0.65,0-1.18-0.29-1.6-0.88
					c-0.41-0.59-0.89-1.24-1.42-1.95c-0.53-0.71-1.2-1.36-1.99-1.95c-0.8-0.59-1.91-0.89-3.32-0.89h-2.48h-2.48h-2.66h-2.48
					c-0.41,0-0.93,0.16-1.55,0.49c-0.62,0.33-0.93,0.72-0.93,1.19v2.48v3.19c0,0.41-0.16,1-0.49,1.77
					c-0.33,0.77-0.49,1.33-0.49,1.68v1.77v2.48v2.39v1.77c0,1.24,0.26,2.24,0.8,3.01c0.53,0.77,1.42,1.15,2.65,1.15h5.67
					c1,0.35,1.61,0.56,1.82,0.62c0.21,0.06,0.49,0.09,0.84,0.09c0.41,0,0.87-0.12,1.37-0.36c0.5-0.23,1.11-0.35,1.81-0.35
					c0.89,0.35,1.61,0.25,2.17-0.31c0.56-0.56,1.09-1.26,1.6-2.08s0.99-1.62,1.46-2.39c0.48-0.77,1.03-1.15,1.68-1.15
					c0.18,0,0.37,0.14,0.58,0.4c0.2,0.26,0.37,0.58,0.49,0.93c0.12,0.35,0.22,0.71,0.31,1.06c0.09,0.35,0.13,0.62,0.13,0.8
					c0,0.3-0.07,0.69-0.22,1.2c-0.15,0.5-0.33,1.06-0.53,1.68c-0.21,0.62-0.38,1.28-0.53,1.99c-0.15,0.71-0.22,1.39-0.22,2.04
					c0.18,0.3,0.32,0.59,0.44,0.89c0.12,0.3,0.2,0.58,0.26,0.84c0.06,0.26,0.09,0.52,0.09,0.75v0.97v2.48v1.51
					c0,0.83-0.21,1.64-0.62,2.44c-0.41,0.8-1.12,1.2-2.13,1.2c-0.77,0-1.53-0.1-2.3-0.31c-0.77-0.21-1.15-0.75-1.15-1.64l-0.44-1.68
					c0-0.47-0.32-1-0.97-1.6c-0.65-0.59-1.15-0.88-1.51-0.88h-3.46h-2.48c-0.47,0-1.27,0.16-2.39,0.49
					c-1.12,0.33-2.3,0.49-3.54,0.49h-4.16c-0.18,0-0.5-0.04-0.97-0.13c-0.47-0.09-0.97-0.21-1.51-0.35s-1.03-0.26-1.51-0.35
					c-0.47-0.09-0.8-0.13-0.97-0.13l-4.16,0.97c-0.47,0-1.09-0.15-1.86-0.44c-0.41-0.18-0.86-0.35-1.33-0.53h-5.93
					c-0.41,0-0.74,0.34-0.97,1.02s-0.43,1.45-0.58,2.3c-0.15,0.86-0.29,1.63-0.44,2.3c-0.15,0.68-0.31,1.02-0.49,1.02
					c-1.12,0-2.1-0.34-2.92-1.02c-0.83-0.68-1.24-1.4-1.24-2.17l-0.26-4.43V388.43z"/>
			</g>
		</g>
		<g>
			<path d="M201.13,723.44h0.83c0.4,0,0.92,0.15,1.55,0.45c0.63,0.3,1.3,0.45,2,0.45l2.12-0.68h2.95h1.44
				c0.55,0,0.93,0.25,1.13,0.76c0.1,0.2,0.15,0.45,0.15,0.75c0,1.06-0.15,1.8-0.45,2.23c-0.3,0.43-0.69,0.71-1.17,0.84
				c-0.48,0.13-0.98,0.2-1.51,0.22c-0.53,0.03-1.03,0.14-1.51,0.34c-0.48,0.2-0.87,0.59-1.17,1.17c-0.31,0.58-0.45,1.5-0.45,2.76
				c0,0.41,0.1,1.04,0.3,1.89s0.3,1.49,0.3,1.89v2.12c0,1.01,0.33,1.89,0.98,2.65c0.65,0.75,1.51,1.13,2.57,1.13
				c0.4,0,0.76-0.07,1.06-0.23c0.2-0.05,0.35-0.12,0.45-0.22l2.72,0.46h2.27h1.29c0.4,0,0.81,0.02,1.21,0.07
				c0.81,0.1,1.39,0.35,1.74,0.75c0.25,0,0.47-0.03,0.65-0.11c0.18-0.08,0.31-0.12,0.41-0.12c0.2-0.1,0.4-0.23,0.6-0.38
				c0.2-0.15,0.35-0.22,0.45-0.22H227c0.3-0.25,0.58-0.57,0.83-0.94c0.25-0.38,0.38-0.77,0.38-1.17v-1.06v-4.84l-0.83-3.78v-1.29
				c0-0.5-0.18-0.85-0.53-1.06c-0.35-0.2-0.73-0.37-1.13-0.53c-0.4-0.15-0.78-0.36-1.13-0.64c-0.35-0.28-0.53-0.79-0.53-1.55
				c0-0.61,0.3-1.17,0.91-1.7c0.6-0.53,1.29-0.79,2.04-0.79c0.65,0.25,1.33,0.48,2.04,0.68c0.6,0.16,1.27,0.29,2,0.42
				s1.47,0.18,2.23,0.18h0.83h2.12c0.5,0,1.08,0.06,1.74,0.19c0.65,0.13,1.25,0.33,1.78,0.6c0.53,0.28,0.98,0.66,1.36,1.13
				c0.38,0.48,0.57,1.1,0.57,1.85l-0.38,0.84l-1.74,0.37h-2.04c-0.35,0-0.79,0.33-1.32,0.98c-0.53,0.66-0.79,1.24-0.79,1.74v5.07
				v2.95c0,0.3,0.06,0.86,0.19,1.66c0.13,0.81,0.19,1.39,0.19,1.74c0,0.2-0.07,0.43-0.23,0.68c-0.15,0.25-0.28,0.51-0.38,0.75
				c-0.25,0.66-0.38,1.13-0.38,1.44v2.12v2.11c0,0.76,0.06,1.49,0.19,2.19c0.13,0.71,0.19,1.39,0.19,2.04c0,0.4-0.06,0.84-0.19,1.28
				c-0.13,0.45-0.19,1.01-0.19,1.66c0,0.36-0.03,0.63-0.07,0.84c-0.05,0.2-0.09,0.4-0.11,0.6c-0.03,0.2-0.03,0.41,0,0.65
				c0.02,0.22,0.09,0.51,0.19,0.87c0.15,0.55,0.59,1.02,1.32,1.4c0.73,0.37,1.51,0.71,2.35,1.02s1.58,0.6,2.23,0.91
				c0.65,0.3,0.98,0.66,0.98,1.06c0,0.35-0.11,0.64-0.34,0.87c-0.23,0.22-0.47,0.44-0.72,0.64c-0.3,0.2-0.65,0.4-1.06,0.6h-4.16
				h-2.12h-2.12l-3.55-0.83l-2.12,0.83c-0.15,0-0.38-0.01-0.68-0.03c-0.3-0.03-0.6-0.07-0.91-0.16c-0.3-0.07-0.57-0.21-0.79-0.41
				c-0.23-0.2-0.34-0.5-0.34-0.9c0-0.56,0.25-1.01,0.76-1.36c0.5-0.35,1.06-0.75,1.66-1.21c0.6-0.45,1.16-1.02,1.66-1.7
				c0.5-0.68,0.76-1.62,0.76-2.83v-2.12v-2.12v-2.27v-2.12c0-0.35-0.14-0.79-0.42-1.32c-0.28-0.52-0.62-0.79-1.02-0.79h-2.12h-2.72
				c-0.35,0-0.86-0.14-1.51-0.42c-0.66-0.28-1.13-0.41-1.44-0.41h-1.51h-2.12h-2.04h-1.51c-1.06,0-1.92,0.22-2.57,0.68
				c-0.66,0.45-0.98,1.21-0.98,2.27v4.84c-0.3,0.86-0.48,1.38-0.53,1.55c-0.05,0.18-0.07,0.42-0.07,0.72c0,0.35,0.1,0.74,0.3,1.17
				c0.2,0.43,0.3,0.94,0.3,1.55c-0.3,0.75-0.22,1.38,0.26,1.85c0.48,0.48,1.07,0.93,1.78,1.36c0.71,0.43,1.39,0.85,2.04,1.25
				c0.65,0.4,0.98,0.88,0.98,1.44c0,0.15-0.11,0.31-0.34,0.49s-0.49,0.32-0.79,0.41c-0.3,0.1-0.6,0.19-0.91,0.26
				c-0.3,0.07-0.53,0.12-0.68,0.12c-0.25,0-0.59-0.06-1.02-0.19c-0.43-0.13-0.91-0.28-1.44-0.45s-1.1-0.33-1.7-0.46
				c-0.61-0.12-1.19-0.18-1.74-0.18c-0.25,0.15-0.5,0.28-0.75,0.37c-0.25,0.1-0.49,0.18-0.72,0.23c-0.23,0.05-0.44,0.07-0.64,0.07
				h-0.83h-2.12h-1.28c-0.71,0-1.4-0.18-2.08-0.53c-0.68-0.35-1.02-0.96-1.02-1.81c0-0.66,0.09-1.31,0.26-1.97
				c0.18-0.66,0.65-0.98,1.4-0.98l1.44-0.37c0.4,0,0.86-0.28,1.36-0.84c0.5-0.55,0.76-0.98,0.76-1.28v-2.95v-2.12
				c0-0.4-0.14-1.08-0.41-2.04c-0.28-0.96-0.42-1.96-0.42-3.02v-3.56c0-0.15,0.04-0.43,0.12-0.83c0.07-0.4,0.18-0.84,0.3-1.29
				c0.12-0.45,0.22-0.88,0.3-1.28c0.07-0.4,0.11-0.68,0.11-0.83l-0.83-3.56c0-0.4,0.13-0.93,0.38-1.59c0.15-0.35,0.3-0.73,0.45-1.13
				v-5.07c0-0.35-0.29-0.63-0.87-0.83c-0.58-0.2-1.24-0.37-1.97-0.5c-0.73-0.12-1.39-0.25-1.97-0.37c-0.58-0.13-0.87-0.26-0.87-0.41
				c0-0.96,0.29-1.79,0.87-2.5c0.58-0.7,1.2-1.06,1.85-1.06l3.78-0.22H201.13z"/>
			<path d="M266.95,723.44l2.72,0.68h1.51c0.66,0.2,1.26,0.4,1.82,0.6c0.5,0.2,0.98,0.39,1.44,0.57c0.45,0.17,0.76,0.34,0.91,0.49
				c0.76,0.4,1.63,0.74,2.61,1.02c0.98,0.28,1.8,0.77,2.46,1.47c0.4,0.36,0.82,0.96,1.25,1.82s0.84,1.46,1.25,1.81
				c1.72,1.46,2.81,2.86,3.29,4.2c0.48,1.34,0.72,2.53,0.72,3.59l-0.23,4.99v2.12c0,0.55-0.22,1.39-0.64,2.49
				c-0.43,1.11-0.94,2.27-1.51,3.48c-0.58,1.22-1.12,2.34-1.63,3.37c-0.5,1.04-0.83,1.7-0.98,2c-0.35,1.06-0.97,1.93-1.85,2.61
				c-0.88,0.68-1.75,1.23-2.61,1.63c-1.36,1.06-2.63,2.02-3.82,2.87s-2.51,1.28-3.97,1.28c-0.6,0-1.2-0.06-1.78-0.19
				c-0.58-0.13-1.38-0.19-2.38-0.19c-0.2,0-0.45,0.01-0.76,0.04c-0.3,0.02-0.63,0.06-0.98,0.12c-0.41,0.05-0.81,0.07-1.21,0.07
				h-1.28c-0.41,0-0.92-0.07-1.55-0.23c-0.63-0.15-1.22-0.35-1.78-0.6c-0.66-0.25-1.36-0.55-2.12-0.9c-1.36-0.6-2.75-1.27-4.16-2
				c-1.41-0.73-2.55-1.96-3.4-3.67c-1.06-2.52-2.03-5.15-2.91-7.87c-0.88-2.72-1.32-5.34-1.32-7.87c0-0.5,0.05-0.96,0.15-1.36
				c0.1-0.4,0.22-0.82,0.38-1.25c0.15-0.43,0.33-0.87,0.53-1.32s0.4-1.03,0.6-1.74c0-0.75,0.11-1.46,0.34-2.12
				c0.23-0.65,0.54-1.36,0.95-2.11c0-0.16,0.22-0.63,0.68-1.44c0.45-0.81,1.01-1.66,1.66-2.57c0.65-0.9,1.35-1.73,2.08-2.46
				c0.73-0.73,1.35-1.09,1.85-1.09l2.12-0.84c0.65,0,1.25-0.02,1.78-0.07c0.53-0.05,1.07-0.22,1.63-0.53
				c0.55-0.25,1.08-0.46,1.59-0.64c0.5-0.18,1.01-0.26,1.51-0.26h3.63H266.95z M260.44,729.34c-0.86,0-1.72,0.58-2.57,1.74
				c-0.86,1.16-1.63,2.49-2.31,3.97c-0.68,1.49-1.24,2.91-1.66,4.27c-0.43,1.36-0.64,2.25-0.64,2.65v1.28v4.62
				c0,0.7,0.44,1.77,1.32,3.21c0.88,1.43,1.98,2.87,3.29,4.31c1.31,1.43,2.71,2.71,4.2,3.82c1.49,1.11,2.84,1.66,4.05,1.66h1.44
				c1.06,0,2.21-0.28,3.44-0.84c1.24-0.55,2.37-1.31,3.4-2.27c1.03-0.96,1.9-2.08,2.61-3.36c0.71-1.28,1.06-2.64,1.06-4.05v-2.12
				v-4.99c0-1.06-0.14-1.9-0.41-2.53c-0.28-0.63-0.65-1.23-1.1-1.81c-0.45-0.58-0.98-1.23-1.59-1.97c-0.6-0.73-1.24-1.72-1.89-2.98
				c-0.4-0.31-0.84-0.69-1.32-1.13c-0.48-0.45-0.98-0.89-1.51-1.29c-0.53-0.4-1.09-0.75-1.66-1.06c-0.58-0.3-1.12-0.45-1.63-0.45
				h-1.44c-0.4,0-0.88-0.03-1.44-0.08c-0.56-0.05-1.11-0.12-1.66-0.22C261.8,729.62,261.15,729.5,260.44,729.34z"/>
			<path d="M322.24,739.71c-0.1-0.15-0.2-0.33-0.3-0.53c-0.2-0.4-0.3-0.73-0.3-0.98v-3.55l-0.68-4.24v-1.43
				c0-0.56-0.18-0.92-0.53-1.1c-0.35-0.17-0.73-0.31-1.13-0.41c-0.56-0.1-1.05-0.2-1.47-0.31c-0.43-0.1-0.64-0.4-0.64-0.9
				c0-0.45,0.1-0.9,0.3-1.32s0.44-0.84,0.72-1.21c0.28-0.38,0.59-0.68,0.95-0.91c0.35-0.22,0.68-0.34,0.98-0.34
				c0.71,0.35,1.41,0.63,2.12,0.83c0.6,0.25,1.29,0.45,2.04,0.61c0.76,0.15,1.49,0.22,2.19,0.22h2.95c0.5,0,1.08-0.06,1.74-0.19
				c0.65-0.13,1.27-0.17,1.85-0.15c0.58,0.02,1.07,0.2,1.47,0.53c0.4,0.33,0.6,0.97,0.6,1.93c0.15,0.5,0.25,0.98,0.3,1.43
				c0.05,0.41,0.06,0.78,0.04,1.13c-0.03,0.36-0.14,0.6-0.34,0.76h-2.12h-1.51c-0.6,0-1.1,0.32-1.47,0.94
				c-0.38,0.63-0.57,1.3-0.57,2c-0.25,0.75-0.41,1.36-0.45,1.81c-0.05,0.45-0.03,0.81,0.07,1.06c0.05,0.31,0.18,0.53,0.38,0.68
				l-0.91,2.72c0.25,0.4,0.42,0.82,0.49,1.25c0.07,0.43,0.16,0.82,0.26,1.17c0.05,0.45,0.1,0.86,0.15,1.21
				c0,0.15-0.05,0.37-0.15,0.68c-0.1,0.31-0.2,0.63-0.3,0.98c-0.1,0.35-0.2,0.71-0.3,1.06c-0.1,0.35-0.15,0.63-0.15,0.83v1.44
				c0,0.2-0.03,0.45-0.07,0.75c-0.05,0.31-0.13,0.63-0.23,0.98c-0.1,0.4-0.2,0.81-0.3,1.21c0,0.35,0.05,0.67,0.15,0.94
				c0.1,0.28,0.2,0.54,0.3,0.79c0.1,0.2,0.15,0.44,0.15,0.72c0,0.28,0,0.59,0,0.94c0,0.71-0.05,1.19-0.15,1.44
				c-0.3,0.3-0.45,0.81-0.45,1.51c0,0.71-0.29,1.43-0.87,2.16c-0.58,0.73-1.2,1.68-1.85,2.83c0,0.66-0.32,1.23-0.95,1.7
				c-0.63,0.48-1.3,1.05-2,1.7c-0.35,0.4-0.63,0.71-0.83,0.94c-0.2,0.22-0.39,0.41-0.57,0.56c-0.18,0.15-0.38,0.28-0.6,0.38
				c-0.23,0.1-0.54,0.22-0.95,0.38c-1.66,0.75-3.3,1.19-4.92,1.32c-1.62,0.13-2.78,0.19-3.48,0.19c-0.86,0-1.8-0.05-2.84-0.15
				c-1.03-0.1-2.07-0.28-3.1-0.53c-1.03-0.25-2.03-0.55-2.99-0.91c-0.96-0.35-1.77-0.81-2.42-1.36l-1.51-2.12
				c-0.4-0.55-0.76-1.16-1.06-1.81c-0.3-0.66-0.58-1.26-0.83-1.81c-0.3-0.66-0.58-1.34-0.83-2.04v-5.07c0-0.71-0.14-1.42-0.41-2.15
				c-0.28-0.73-0.42-1.68-0.42-2.84v-4.24c0.1-0.5,0.23-1.01,0.38-1.51c0.1-0.4,0.2-0.81,0.3-1.21c0.1-0.4,0.15-0.69,0.15-0.84
				c-0.15-0.71-0.3-1.34-0.45-1.89c-0.25-1.11-0.38-1.89-0.38-2.35c0.1-0.4,0.23-0.81,0.38-1.21c0.1-0.35,0.2-0.68,0.3-0.98
				c0.1-0.3,0.15-0.55,0.15-0.75v-4.16c0-0.36-0.3-0.66-0.91-0.91s-1.27-0.47-2-0.65c-0.73-0.17-1.39-0.35-1.97-0.53
				c-0.58-0.17-0.85-0.39-0.79-0.64c0-0.66,0.28-1.31,0.83-1.97c0.55-0.65,1.18-0.98,1.89-0.98l3.63-0.83h1.44
				c0.3,0,0.9,0.14,1.78,0.41c0.88,0.28,1.7,0.41,2.46,0.41h6.28c0.71,0,1.12,0.16,1.25,0.45c0.13,0.31,0.19,0.56,0.19,0.76
				c0,1.11-0.15,1.88-0.45,2.3c-0.3,0.43-0.69,0.71-1.17,0.84c-0.48,0.13-0.98,0.19-1.51,0.19c-0.53,0-1.04,0.11-1.51,0.34
				c-0.48,0.22-0.87,0.66-1.17,1.28c-0.3,0.63-0.45,1.65-0.45,3.06c0,0.15,0.03,0.39,0.08,0.72c0.05,0.33,0.11,0.68,0.19,1.06
				c0.08,0.37,0.15,0.73,0.23,1.06c0.07,0.33,0.11,0.56,0.11,0.71v2.12v11.35v5.07c-0.3,0.66-0.38,1.07-0.22,1.24
				c0.15,0.18,0.22,0.47,0.22,0.87l0.83,2.04c0.5,0.75,0.98,1.36,1.44,1.81c0.45,0.45,0.96,0.82,1.51,1.1
				c0.56,0.28,1.21,0.47,1.97,0.56c0.76,0.1,1.71,0.16,2.87,0.16c0.35,0,0.96-0.16,1.82-0.45c0.86-0.31,1.66-0.66,2.42-1.06
				c0.15-0.35,0.39-0.69,0.72-1.02c0.33-0.33,0.72-0.78,1.17-1.36c0.45-0.58,0.95-1.34,1.48-2.27c0.53-0.93,1.1-2.18,1.7-3.74v-2.95
				c0-0.36,0.02-1.01,0.07-1.97c0.05-0.96,0.11-1.96,0.19-3.02c0.07-1.06,0.15-2.06,0.23-2.99
				C322.21,740.63,322.24,740.01,322.24,739.71z"/>
			<path d="M342.82,730.03c0-0.81,0.14-1.5,0.42-2.08c0.28-0.58,0.65-1.09,1.13-1.55c0.48-0.45,1.02-0.88,1.63-1.28
				c0.6-0.4,1.23-0.81,1.89-1.21c1.36-0.86,2.61-1.57,3.75-2.12c1.13-0.55,2.53-0.84,4.2-0.84c1.06,0,1.99,0.02,2.8,0.04
				c0.81,0.02,1.64,0.36,2.5,1.02c0.71,0.56,1.2,1.16,1.47,1.81c0.28,0.66,0.42,1.47,0.42,2.42c0,0.5-0.09,1.03-0.26,1.59
				c-0.18,0.55-0.43,1.06-0.76,1.51c-0.33,0.45-0.73,0.82-1.21,1.1c-0.48,0.28-1,0.41-1.55,0.41s-1-0.14-1.32-0.41
				c-0.33-0.28-0.63-0.57-0.91-0.87c-0.28-0.31-0.58-0.59-0.91-0.87c-0.33-0.28-0.75-0.42-1.25-0.42c-0.66,0-1.32,0.07-2,0.19
				c-0.68,0.13-1.3,0.34-1.85,0.64c-0.55,0.3-1.01,0.68-1.36,1.13c-0.35,0.45-0.53,1.01-0.53,1.66c0,0.6,0.2,1.04,0.6,1.28
				c0.4,0.25,0.9,0.43,1.47,0.53c0.58,0.1,1.2,0.2,1.85,0.31c0.65,0.1,1.26,0.3,1.81,0.6c1.36,0.71,2.53,1.34,3.52,1.89
				c0.98,0.56,2.1,1.26,3.37,2.12c0.45,0.25,0.86,0.47,1.21,0.65c0.35,0.17,0.69,0.34,1.02,0.49c0.33,0.15,0.67,0.33,1.02,0.53
				c0.35,0.2,0.75,0.48,1.21,0.84c1.46,1.16,2.63,2.33,3.52,3.51c0.88,1.19,1.32,2.74,1.32,4.65v1.74c0,0.6,0.1,1.15,0.3,1.63
				c0.2,0.48,0.31,1.05,0.31,1.7c0,1.06-0.22,1.92-0.64,2.57c-0.43,0.66-0.84,1.41-1.25,2.27c-0.1,0.4-0.1,0.74,0,1.02
				c0.1,0.28,0.02,0.57-0.23,0.87c-0.2,0.66-0.53,1.09-0.98,1.29c-0.45,0.2-0.88,0.55-1.28,1.06c-0.45,0.4-0.88,0.75-1.29,1.05
				c-0.4,0.31-0.81,0.59-1.21,0.87c-0.41,0.28-0.82,0.55-1.25,0.79c-0.43,0.25-0.94,0.53-1.55,0.84c-0.96,0.55-1.82,0.94-2.57,1.17
				c-0.76,0.22-1.64,0.46-2.65,0.71c-0.35,0.1-0.66,0.26-0.91,0.5c-0.25,0.22-0.58,0.34-0.98,0.34c-0.45,0-0.81-0.04-1.06-0.12
				c-0.25-0.07-0.53-0.12-0.83-0.12c-0.75,0-1.35,0.08-1.78,0.23s-0.97,0.22-1.63,0.22c-0.4,0-0.72-0.09-0.94-0.26
				s-0.54-0.32-0.95-0.41c-0.55-0.2-1.05-0.29-1.47-0.26c-0.43,0.02-0.92-0.01-1.47-0.12c-0.56,0-1.01-0.16-1.36-0.49
				c-0.35-0.33-0.81-0.67-1.36-1.02c-0.56-0.31-1.09-0.52-1.59-0.65s-1.03-0.47-1.59-1.02c-0.56-0.31-0.86-0.7-0.91-1.17
				c-0.05-0.48-0.22-1-0.53-1.55c-0.41-0.86-0.76-1.53-1.06-2c-0.3-0.48-0.45-1.23-0.45-2.23c0-1.46,0.56-2.74,1.66-3.82
				s2.44-1.63,4.01-1.63c0.96,0,1.86,0.22,2.72,0.65c0.86,0.43,1.29,1.07,1.29,1.93c0,0.3-0.04,0.53-0.12,0.68
				c-0.07,0.15-0.11,0.33-0.11,0.53c0,0.35,0.07,0.63,0.23,0.84c0.15,0.2,0.23,0.43,0.23,0.68c0,0.1-0.04,0.24-0.12,0.41
				c-0.07,0.18-0.11,0.32-0.11,0.41c0,0.76,0.2,1.4,0.6,1.93s0.92,0.98,1.55,1.36c0.63,0.37,1.35,0.66,2.15,0.83
				c0.81,0.18,1.62,0.26,2.42,0.26c1.61,0,3.09-0.37,4.43-1.13c1.34-0.75,2.53-1.76,3.59-3.02c0.6-0.66,1.11-1.34,1.51-2.04
				c0.4-0.7,0.6-1.59,0.6-2.65c0-0.6-0.15-1.17-0.45-1.7c-0.3-0.53-0.45-1.07-0.45-1.63c0-0.25,0.04-0.39,0.12-0.41
				c0.07-0.02,0.11-0.09,0.11-0.19c0-0.81-0.22-1.47-0.64-2c-0.43-0.53-0.97-1-1.63-1.4c-0.66-0.4-1.38-0.78-2.16-1.13
				c-0.78-0.35-1.55-0.73-2.31-1.13c-0.2-0.1-0.37-0.28-0.49-0.53c-0.13-0.25-0.32-0.43-0.57-0.53c-0.5-0.25-1.01-0.39-1.51-0.41
				c-0.51-0.02-0.98-0.24-1.44-0.65c-0.4-0.25-0.68-0.51-0.83-0.79c-0.15-0.28-0.43-0.56-0.83-0.87c-0.55-0.25-1.05-0.39-1.47-0.41
				c-0.43-0.02-0.92-0.24-1.47-0.65c-0.3-0.35-0.57-0.65-0.79-0.9c-0.23-0.25-0.44-0.58-0.64-0.98c-0.41-0.5-0.9-0.91-1.48-1.21
				c-0.58-0.31-0.87-0.84-0.87-1.59v-1.89c0-0.31-0.03-0.6-0.07-0.91c-0.05-0.31-0.07-0.63-0.07-0.98c0-0.2,0.02-0.36,0.07-0.49
				c0.05-0.13,0.07-0.29,0.07-0.5c0-0.25,0.04-0.46,0.12-0.64C342.78,730.26,342.82,730.12,342.82,730.03z"/>
			<path d="M390.33,724.12c0.3,0,0.59,0.02,0.87,0.07c0.28,0.05,0.6,0.09,0.98,0.12c0.38,0.02,0.83,0.06,1.36,0.12
				c0.53,0.05,1.22,0.07,2.08,0.07l2.5-0.6c0.4-0.1,0.78-0.2,1.13-0.31c0.3-0.1,0.6-0.18,0.91-0.22c0.3-0.05,0.53-0.08,0.68-0.08
				c0.35,0,0.79,0.13,1.32,0.38c0.53,0.25,1,0.53,1.4,0.84c0.35,0.66,0.58,1.43,0.68,2.34c0.1,0.9,0.3,1.69,0.6,2.34
				c0.15,0.15,0.33,0.44,0.53,0.87c0.2,0.43,0.4,0.85,0.6,1.25c0.2,0.55,0.45,1.11,0.75,1.66c0,0.96-0.63,1.43-1.89,1.43
				c-0.3,0-0.76-0.24-1.36-0.71c-0.6-0.48-1.39-1.01-2.34-1.59c-0.96-0.58-2.09-1.11-3.4-1.59c-1.31-0.48-2.88-0.72-4.69-0.72
				l-1.44,0.38c-0.3,0.45-0.59,0.83-0.87,1.13c-0.28,0.3-0.42,0.55-0.42,0.75v0.68c-0.1,0.41-0.2,0.78-0.3,1.13
				c-0.1,0.31-0.18,0.61-0.23,0.91c-0.05,0.31-0.07,0.53-0.07,0.68v5.45c0,0.75,0.15,1.47,0.45,2.15c0.31,0.69,0.78,1.03,1.44,1.03
				c0.15,0,0.4-0.03,0.75-0.07c0.35-0.05,0.73-0.13,1.13-0.23c0.45-0.1,0.93-0.2,1.44-0.3h1.51c0.4,0,0.77-0.1,1.1-0.31
				c0.33-0.2,0.64-0.41,0.94-0.64c0.3-0.23,0.59-0.44,0.87-0.65c0.28-0.2,0.57-0.31,0.87-0.31c0.15,0,0.33,0.1,0.53,0.31
				c0.2,0.2,0.4,0.43,0.61,0.68l0.75,0.91v4.99c0,1.41-0.63,2.11-1.89,2.11c-0.56,0-1.04-0.11-1.44-0.34
				c-0.4-0.22-0.75-0.47-1.06-0.71c-0.56-0.2-1.02-0.43-1.4-0.69c-0.38-0.25-0.85-0.37-1.4-0.37h-1.21h-1.51
				c-1.26,0-2.07,0.22-2.42,0.68c-0.35,0.45-0.53,1.36-0.53,2.72v1.89c0.15,0.71,0.25,1.41,0.3,2.12c0.05,0.71,0.14,1.36,0.26,1.96
				c0.13,0.61,0.37,1.12,0.72,1.55c0.35,0.43,0.91,0.72,1.66,0.87h4.24c0.71,0,1.47-0.14,2.31-0.41s1.68-0.65,2.53-1.1
				c0.86-0.3,1.65-0.58,2.38-0.83c0.73-0.25,1.4-0.38,2-0.38c0.21,0.15,0.4,0.33,0.61,0.53c0.15,0.15,0.3,0.3,0.45,0.45
				c0.15,0.15,0.23,0.3,0.23,0.45c0,0.35-0.13,0.68-0.38,0.98c-0.25,0.31-0.55,0.6-0.91,0.91c-0.7,0.66-1.21,1.32-1.51,2
				s-0.59,1.31-0.87,1.89c-0.28,0.58-0.62,1.06-1.02,1.44c-0.4,0.38-1.01,0.56-1.82,0.56c-0.3,0-0.58-0.03-0.83-0.11
				c-0.25-0.07-0.52-0.18-0.79-0.31c-0.28-0.13-0.61-0.22-0.98-0.3c-0.38-0.07-0.84-0.12-1.4-0.12l-7.34,0.22l-2.57,0.6h-4.01h-2.27
				l-1.51,0.45l-2.27,0.16c-0.25,0-0.53-0.1-0.83-0.31c-0.3-0.2-0.58-0.44-0.83-0.72c-0.25-0.28-0.47-0.55-0.64-0.83
				c-0.18-0.28-0.26-0.5-0.26-0.65c0-1.26,0.93-1.89,2.8-1.89c0.4-0.16,0.81-0.33,1.21-0.53c0.75-0.35,1.39-0.6,1.89-0.76
				c1.06-0.2,1.78-0.53,2.16-0.98c0.38-0.45,0.57-1.51,0.57-3.18c0-0.25,0.09-0.52,0.26-0.79c0.18-0.28,0.09-0.57-0.26-0.87
				c0-0.25-0.03-0.52-0.07-0.79c-0.05-0.28-0.13-0.54-0.23-0.79c-0.1-0.3-0.2-0.63-0.3-0.98v-1.43v-2.72v-1.89l0.6-5.29v-1.28
				c0-0.31,0.04-0.51,0.11-0.6c0.08-0.1,0.12-0.31,0.12-0.6v-4.01v-2.11v-2.27c0-0.45-0.25-0.82-0.76-1.09
				c-0.5-0.28-0.88-0.41-1.13-0.41h-2.12c-0.96,0-1.65-0.4-2.08-1.21s-0.64-1.74-0.64-2.8c0-0.31,0.14-0.58,0.41-0.84
				s0.57-0.38,0.87-0.38h2.5h1.51c0.3,0,0.77-0.03,1.4-0.11s1.42-0.12,2.38-0.12H390.33z"/>
		</g>
	</g>
	<polygon points="431.55,147.59 296.93,93.53 296.93,93.53 296.93,93.53 162.31,147.59 167.28,163.47 297.15,113.39 426.36,163.47 	
		"/>
</g>
</svg>
